SplineFontDB: 3.2
FontName: typicons
FullName: Typicons
FamilyName: Typicons
Weight: Book
Copyright: (c) Stephen Hutchings 2012
Version: 2.0.3 ; ttfautohint (v0.95) -l 8 -r 50 -G 200 -x 14 -w "G" -f -s
ItalicAngle: 0
UnderlinePosition: -150
UnderlineWidth: 50
Ascent: 800
Descent: 200
InvalidEm: 0
sfntRevision: 0x00020000
LayerCount: 2
Layer: 0 1 "Back" 1
Layer: 1 1 "Fore" 0
XUID: [1021 220 -731427345 1949850]
StyleMap: 0x0040
FSType: 0
OS2Version: 4
OS2_WeightWidthSlopeOnly: 0
OS2_UseTypoMetrics: 1
CreationTime: 1406487198
ModificationTime: 1712598375
PfmFamily: 17
TTFWeight: 400
TTFWidth: 5
LineGap: 90
VLineGap: 0
Panose: 2 0 5 3 0 0 0 0 0 0
OS2TypoAscent: 800
OS2TypoAOffset: 0
OS2TypoDescent: -200
OS2TypoDOffset: 0
OS2TypoLinegap: 90
OS2WinAscent: 800
OS2WinAOffset: 0
OS2WinDescent: 242
OS2WinDOffset: 0
HheadAscent: 800
HheadAOffset: 0
HheadDescent: -242
HheadDOffset: 0
OS2SubXSize: 650
OS2SubYSize: 700
OS2SubXOff: 0
OS2SubYOff: 140
OS2SupXSize: 650
OS2SupYSize: 700
OS2SupXOff: 0
OS2SupYOff: 480
OS2StrikeYSize: 49
OS2StrikeYPos: 258
OS2Vendor: 'PfEd'
OS2CodePages: 00000001.00000000
OS2UnicodeRanges: 00000000.10000000.00000000.00000000
DEI: 91125
TtTable: prep
MPPEM
PUSHW_1
 200
GT
IF
PUSHB_2
 1
 1
INSTCTRL
EIF
PUSHW_2
 2048
 2048
MUL
DUP
PUSHB_1
 1
SWAP
WCVTP
PUSHB_1
 3
SWAP
WCVTF
PUSHB_3
 4
 40
 9
RCVT
GT
WCVTP
PUSHB_3
 10
 2
 7
LOOPCALL
PUSHB_2
 6
 1
WCVTP
PUSHB_2
 36
 1
GETINFO
LTEQ
IF
PUSHB_1
 64
GETINFO
IF
PUSHB_2
 6
 3
WCVTP
PUSHB_2
 38
 1
GETINFO
LTEQ
IF
PUSHW_1
 1024
GETINFO
IF
PUSHB_2
 6
 1
WCVTP
EIF
EIF
EIF
EIF
PUSHW_1
 511
SCANCTRL
PUSHB_1
 4
SCANTYPE
PUSHB_2
 5
 0
WCVTP
EndTTInstrs
TtTable: fpgm
PUSHB_1
 0
FDEF
PUSHB_1
 32
ADD
FLOOR
ENDF
PUSHB_1
 1
FDEF
DUP
ABS
DUP
PUSHB_1
 192
LT
PUSHB_1
 4
MINDEX
AND
PUSHB_1
 4
RCVT
OR
IF
POP
SWAP
POP
ELSE
ROLL
IF
DUP
PUSHB_1
 80
LT
IF
POP
PUSHB_1
 64
EIF
ELSE
DUP
PUSHB_1
 56
LT
IF
POP
PUSHB_1
 56
EIF
EIF
DUP
PUSHB_1
 10
RCVT
SUB
ABS
PUSHB_1
 40
LT
IF
POP
PUSHB_1
 10
RCVT
DUP
PUSHB_1
 48
LT
IF
POP
PUSHB_1
 48
EIF

StartChar: .notdef
Encoding: 336 -1 0
Width: 364
GlyphClass: 1
Flags: W
LayerCount: 2
Fore
SplineSet
33 0 m 1,0,-1
 33 666 l 1,1,-1
 298 666 l 1,2,-1
 298 0 l 1,3,-1
 33 0 l 1,0,-1
66 33 m 1,4,-1
 265 33 l 1,5,-1
 265 633 l 1,6,-1
 66 633 l 1,7,-1
 66 33 l 1,4,-1
EndSplineSet
Validated: 1
EndChar

StartChar: glyph1
Encoding: 1 57345 1
Width: 667
GlyphClass: 1
Flags: W
LayerCount: 2
Fore
SplineSet
333 633 m 128,-1,1
 471 633 471 633 569 535.5 c 128,-1,2
 667 438 667 438 667 300 c 128,-1,3
 667 162 667 162 569 64.5 c 128,-1,4
 471 -33 471 -33 333 -33 c 128,-1,5
 195 -33 195 -33 97.5 64.5 c 128,-1,6
 0 162 0 162 0 300 c 128,-1,7
 0 438 0 438 97.5 535.5 c 128,-1,0
 195 633 195 633 333 633 c 128,-1,1
333 50 m 128,-1,9
 436 50 436 50 509.5 123 c 128,-1,10
 583 196 583 196 583 300 c 128,-1,11
 583 404 583 404 509.5 477 c 128,-1,12
 436 550 436 550 333 550 c 128,-1,13
 230 550 230 550 156.5 477 c 128,-1,14
 83 404 83 404 83 300 c 128,-1,15
 83 196 83 196 156.5 123 c 128,-1,8
 230 50 230 50 333 50 c 128,-1,9
333 508 m 1,16,17
 419 508 419 508 480.5 447 c 128,-1,18
 542 386 542 386 542 300 c 128,-1,19
 542 214 542 214 480.5 153 c 128,-1,20
 419 92 419 92 333 92 c 1,21,-1
 333 508 l 1,16,17
EndSplineSet
Validated: 1
EndChar

StartChar: glyph2
Encoding: 2 57346 2
Width: 750
GlyphClass: 1
Flags: W
LayerCount: 2
Fore
SplineSet
333 550 m 128,-1,1
 333 592 333 592 375 592 c 128,-1,2
 417 592 417 592 417 550 c 128,-1,3
 417 508 417 508 375 508 c 128,-1,0
 333 508 333 508 333 550 c 128,-1,1
42 342 m 0,4,5
 42 393 42 393 79 430 c 128,-1,6
 116 467 116 467 167 467 c 2,7,-1
 184 467 l 1,8,9
 167 505 167 505 167 550 c 0,10,11
 167 636 167 636 228 697 c 128,-1,12
 289 758 289 758 375 758 c 128,-1,13
 461 758 461 758 522 697 c 128,-1,14
 583 636 583 636 583 550 c 0,15,16
 583 505 583 505 566 467 c 1,17,-1
 583 467 l 2,18,19
 619 467 619 467 647.5 449 c 128,-1,20
 676 431 676 431 692 404 c 0,21,22
 708 376 708 376 708 342 c 0,23,24
 708 316 708 316 700 296 c 1,25,26
 750 259 750 259 750 196 c 0,27,28
 750 89 750 89 697 4 c 128,-1,29
 644 -81 644 -81 563 -129 c 0,30,31
 475 -179 475 -179 375 -179 c 0,32,33
 296 -179 296 -179 227 -148 c 128,-1,34
 158 -117 158 -117 110 -69 c 128,-1,35
 62 -21 62 -21 31 48 c 128,-1,36
 0 117 0 117 0 196 c 0,37,38
 0 259 0 259 50 296 c 1,39,40
 42 316 42 316 42 342 c 0,4,5
125 238 m 128,-1,42
 108 238 108 238 95.5 225.5 c 128,-1,43
 83 213 83 213 83 196 c 0,44,45
 83 76 83 76 169 -10 c 128,-1,46
 255 -96 255 -96 375 -96 c 128,-1,47
 495 -96 495 -96 581 -10 c 128,-1,48
 667 76 667 76 667 196 c 0,49,50
 667 213 667 213 654.5 225.5 c 128,-1,51
 642 238 642 238 625 238 c 128,-1,52
 608 238 608 238 595.5 225.5 c 128,-1,53
 583 213 583 213 583 196 c 0,54,55
 583 120 583 120 534.5 63 c 128,-1,56
 486 6 486 6 417 -8 c 1,57,-1
 417 300 l 1,58,-1
 583 300 l 2,59,60
 600 300 600 300 612.5 312.5 c 128,-1,61
 625 325 625 325 625 342 c 128,-1,62
 625 359 625 359 612.5 371 c 128,-1,63
 600 383 600 383 583 383 c 2,64,-1
 417 383 l 1,65,-1
 417 433 l 1,66,67
 453 446 453 446 476.5 477 c 128,-1,68
 500 508 500 508 500 550 c 0,69,70
 500 602 500 602 463.5 638.5 c 128,-1,71
 427 675 427 675 375 675 c 128,-1,72
 323 675 323 675 286.5 638.5 c 128,-1,73
 250 602 250 602 250 550 c 0,74,75
 250 509 250 509 274 477.5 c 128,-1,76
 298 446 298 446 333 433 c 1,77,-1
 333 383 l 1,78,-1
 167 383 l 2,79,80
 150 383 150 383 137.5 371 c 128,-1,81
 125 359 125 359 125 342 c 128,-1,82
 125 325 125 325 137.5 312.5 c 128,-1,83
 150 300 150 300 167 300 c 2,84,-1
 333 300 l 1,85,-1
 333 -8 l 1,86,87
 264 6 264 6 215.5 63 c 128,-1,88
 167 120 167 120 167 196 c 0,89,90
 167 213 167 213 154.5 225.5 c 128,-1,41
 142 238 142 238 125 238 c 128,-1,42
180 258 m 1,91,92
 208 233 208 233 208 196 c 0,93,94
 208 101 208 101 292 52 c 1,95,-1
 292 258 l 1,96,-1
 180 258 l 1,91,92
458 52 m 1,97,98
 494 73 494 73 518 110.5 c 128,-1,99
 542 148 542 148 542 196 c 0,100,101
 542 233 542 233 570 258 c 1,102,-1
 458 258 l 1,103,-1
 458 52 l 1,97,98
333 550 m 128,-1,105
 333 592 333 592 375 592 c 128,-1,106
 417 592 417 592 417 550 c 128,-1,107
 417 508 417 508 375 508 c 128,-1,104
 333 508 333 508 333 550 c 128,-1,105
EndSplineSet
Validated: 5
EndChar

StartChar: glyph0
Encoding: 0 57344 3
Width: 783
GlyphClass: 1
Flags: W
LayerCount: 2
Fore
SplineSet
392 511 m 1,0,-1
 350 633 l 2,1,2
 344 650 344 650 352 666.5 c 128,-1,3
 360 683 360 683 377 689 c 0,4,5
 401 697 401 697 422 679.5 c 128,-1,6
 443 662 443 662 433 633 c 2,7,-1
 392 511 l 1,0,-1
58 342 m 2,8,-1
 181 300 l 1,9,-1
 58 258 l 2,10,11
 41 252 41 252 24.5 260.5 c 128,-1,12
 8 269 8 269 2 286 c 0,13,14
 -6 310 -6 310 11.5 331 c 128,-1,15
 29 352 29 352 58 342 c 2,8,-1
392 89 m 1,16,-1
 433 -33 l 2,17,18
 439 -50 439 -50 431 -66.5 c 128,-1,19
 423 -83 423 -83 406 -89 c 0,20,21
 382 -97 382 -97 361 -79.5 c 128,-1,22
 340 -62 340 -62 350 -33 c 2,23,-1
 392 89 l 1,16,-1
781 314 m 0,24,25
 789 290 789 290 771.5 269 c 128,-1,26
 754 248 754 248 725 258 c 2,27,-1
 603 300 l 1,28,-1
 725 342 l 2,29,30
 742 348 742 348 758.5 339.5 c 128,-1,31
 775 331 775 331 781 314 c 0,24,25
126 506 m 2,32,33
 109 514 109 514 103.5 531 c 128,-1,34
 98 548 98 548 106 565 c 0,35,36
 119 590 119 590 146 589 c 128,-1,37
 173 588 173 588 185 565 c 2,38,-1
 242 449 l 1,39,-1
 126 506 l 2,32,33
126 15 m 0,40,41
 101 28 101 28 102 55 c 128,-1,42
 103 82 103 82 126 94 c 2,43,-1
 242 151 l 1,44,-1
 185 35 l 2,45,46
 177 18 177 18 160 12.5 c 128,-1,47
 143 7 143 7 126 15 c 0,40,41
657 94 m 2,48,49
 674 86 674 86 679.5 69 c 128,-1,50
 685 52 685 52 677 35 c 0,51,52
 664 10 664 10 637 11 c 128,-1,53
 610 12 610 12 598 35 c 2,54,-1
 541 151 l 1,55,-1
 657 94 l 2,48,49
657 585 m 0,56,57
 682 572 682 572 681 545 c 128,-1,58
 680 518 680 518 657 506 c 2,59,-1
 541 449 l 1,60,-1
 598 565 l 2,61,62
 606 582 606 582 623 587.5 c 128,-1,63
 640 593 640 593 657 585 c 0,56,57
392 488 m 128,-1,65
 469 488 469 488 524 432.5 c 128,-1,66
 579 377 579 377 579 300 c 128,-1,67
 579 223 579 223 524 167.5 c 128,-1,68
 469 112 469 112 392 112 c 128,-1,69
 315 112 315 112 259.5 167.5 c 128,-1,70
 204 223 204 223 204 300 c 128,-1,71
 204 377 204 377 259.5 432.5 c 128,-1,64
 315 488 315 488 392 488 c 128,-1,65
EndSplineSet
Validated: 33
EndChar

StartChar: glyph3
Encoding: 3 57347 4
Width: 583
GlyphClass: 1
Flags: W
LayerCount: 2
Fore
SplineSet
542 238 m 128,-1,1
 559 238 559 238 571 225.5 c 128,-1,2
 583 213 583 213 583 196 c 0,3,4
 583 75 583 75 498 -10.5 c 128,-1,5
 413 -96 413 -96 292 -96 c 128,-1,6
 171 -96 171 -96 85.5 -10.5 c 128,-1,7
 0 75 0 75 0 196 c 0,8,9
 0 213 0 213 12.5 225.5 c 128,-1,10
 25 238 25 238 42 238 c 128,-1,11
 59 238 59 238 71 225.5 c 128,-1,12
 83 213 83 213 83 196 c 0,13,14
 83 121 83 121 130.5 63.5 c 128,-1,15
 178 6 178 6 250 -8 c 1,16,-1
 250 300 l 1,17,-1
 83 300 l 2,18,19
 66 300 66 300 54 312.5 c 128,-1,20
 42 325 42 325 42 342 c 128,-1,21
 42 359 42 359 54 371 c 128,-1,22
 66 383 66 383 83 383 c 2,23,-1
 250 383 l 1,24,-1
 250 433 l 1,25,26
 213 446 213 446 190 478 c 128,-1,27
 167 510 167 510 167 550 c 0,28,29
 167 602 167 602 203.5 638.5 c 128,-1,30
 240 675 240 675 292 675 c 128,-1,31
 344 675 344 675 380.5 638.5 c 128,-1,32
 417 602 417 602 417 550 c 0,33,34
 417 510 417 510 393.5 478 c 128,-1,35
 370 446 370 446 333 433 c 1,36,-1
 333 383 l 1,37,-1
 500 383 l 2,38,39
 517 383 517 383 529.5 371 c 128,-1,40
 542 359 542 359 542 342 c 128,-1,41
 542 325 542 325 529.5 312.5 c 128,-1,42
 517 300 517 300 500 300 c 2,43,-1
 333 300 l 1,44,-1
 333 -8 l 1,45,46
 405 6 405 6 452.5 63.5 c 128,-1,47
 500 121 500 121 500 196 c 0,48,49
 500 213 500 213 512.5 225.5 c 128,-1,0
 525 238 525 238 542 238 c 128,-1,1
292 592 m 128,-1,51
 275 592 275 592 262.5 579.5 c 128,-1,52
 250 567 250 567 250 550 c 128,-1,53
 250 533 250 533 262.5 520.5 c 128,-1,54
 275 508 275 508 292 508 c 128,-1,55
 309 508 309 508 321 520.5 c 128,-1,56
 333 533 333 533 333 550 c 128,-1,57
 333 567 333 567 321 579.5 c 128,-1,50
 309 592 309 592 292 592 c 128,-1,51
EndSplineSet
Validated: 1
EndChar

StartChar: glyph4
Encoding: 4 57348 5
Width: 792
GlyphClass: 1
Flags: W
LayerCount: 2
Fore
SplineSet
458 300 m 2,0,1
 467 300 467 300 473 294 c 128,-1,2
 479 288 479 288 479 279 c 128,-1,3
 479 270 479 270 473 264 c 128,-1,4
 467 258 467 258 458 258 c 2,5,-1
 333 258 l 2,6,7
 324 258 324 258 318 264 c 128,-1,8
 312 270 312 270 312 279 c 128,-1,9
 312 288 312 288 318 294 c 128,-1,10
 324 300 324 300 333 300 c 2,11,-1
 458 300 l 2,0,1
750 592 m 2,12,13
 767 592 767 592 779.5 579.5 c 128,-1,14
 792 567 792 567 792 550 c 128,-1,15
 792 533 792 533 779.5 520.5 c 128,-1,16
 767 508 767 508 750 508 c 2,17,-1
 42 508 l 2,18,19
 25 508 25 508 12.5 520.5 c 128,-1,20
 0 533 0 533 0 550 c 128,-1,21
 0 567 0 567 12.5 579.5 c 128,-1,22
 25 592 25 592 42 592 c 2,23,-1
 750 592 l 2,12,13
667 467 m 2,24,25
 684 467 684 467 696 454.5 c 128,-1,26
 708 442 708 442 708 425 c 2,27,-1
 708 92 l 2,28,29
 708 40 708 40 671.5 3.5 c 128,-1,30
 635 -33 635 -33 583 -33 c 2,31,-1
 208 -33 l 2,32,33
 156 -33 156 -33 119.5 3.5 c 128,-1,34
 83 40 83 40 83 92 c 2,35,-1
 83 425 l 2,36,37
 83 442 83 442 95.5 454.5 c 128,-1,38
 108 467 108 467 125 467 c 2,39,-1
 667 467 l 2,24,25
583 50 m 2,40,41
 600 50 600 50 612.5 62.5 c 128,-1,42
 625 75 625 75 625 92 c 2,43,-1
 625 383 l 1,44,-1
 167 383 l 1,45,-1
 167 92 l 2,46,47
 167 75 167 75 179 62.5 c 128,-1,48
 191 50 191 50 208 50 c 2,49,-1
 583 50 l 2,40,41
EndSplineSet
Validated: 1
EndChar

StartChar: glyph5
Encoding: 5 57349 6
Width: 750
GlyphClass: 1
Flags: W
LayerCount: 2
Fore
SplineSet
750 8 m 2,0,1
 750 -9 750 -9 738 -21 c 128,-1,2
 726 -33 726 -33 708 -33 c 0,3,4
 687 -33 687 -33 674 -14 c 0,5,6
 626 60 626 60 563.5 92.5 c 128,-1,7
 501 125 501 125 417 131 c 1,8,-1
 417 71 l 2,9,10
 417 37 417 37 392 12 c 0,11,12
 368 -12 368 -12 333 -11.5 c 128,-1,13
 298 -11 298 -11 275 12 c 2,14,-1
 12 270 l 2,15,16
 0 282 0 282 0 300 c 128,-1,17
 0 318 0 318 12 330 c 2,18,-1
 274 588 l 2,19,20
 297 611 297 611 332.5 611.5 c 128,-1,21
 368 612 368 612 392 588 c 0,22,23
 417 563 417 563 417 529 c 2,24,-1
 417 458 l 1,25,26
 562 429 562 429 656 314 c 128,-1,27
 750 199 750 199 750 50 c 2,28,-1
 750 8 l 2,0,1
376 216 m 2,29,30
 555 212 555 212 658 128 c 1,31,32
 634 229 634 229 555 299 c 128,-1,33
 476 369 476 369 370 381 c 1,34,-1
 333 383 l 1,35,-1
 333 529 l 1,36,-1
 101 300 l 1,37,-1
 333 71 l 1,38,-1
 333 217 l 1,39,-1
 376 216 l 2,29,30
EndSplineSet
Validated: 33
EndChar

StartChar: glyph6
Encoding: 6 57350 7
Width: 667
GlyphClass: 1
Flags: W
LayerCount: 2
Fore
SplineSet
292 571 m 0,0,1
 308 571 308 571 320.5 558.5 c 128,-1,2
 333 546 333 546 333 529 c 2,3,-1
 333 423 l 1,4,5
 475 407 475 407 571 300.5 c 128,-1,6
 667 194 667 194 667 50 c 2,7,-1
 667 8 l 1,8,9
 603 105 603 105 521 138.5 c 128,-1,10
 439 172 439 172 333 175 c 1,11,-1
 333 71 l 2,12,13
 333 54 333 54 320.5 41.5 c 128,-1,14
 308 29 308 29 292 29 c 0,15,16
 274 29 274 29 262 41 c 2,17,-1
 0 300 l 1,18,-1
 262 559 l 2,19,20
 274 571 274 571 292 571 c 0,0,1
EndSplineSet
Validated: 1
EndChar

StartChar: glyph7
Encoding: 7 57351 8
Width: 667
GlyphClass: 1
Flags: W
LayerCount: 2
Fore
SplineSet
333 -88 m 1,0,-1
 37 209 l 2,1,2
 0 246 0 246 0 297 c 128,-1,3
 0 348 0 348 37 385 c 0,4,5
 71 419 71 419 121.5 420.5 c 128,-1,6
 172 422 172 422 208 390 c 1,7,-1
 208 592 l 2,8,9
 208 644 208 644 244.5 680.5 c 128,-1,10
 281 717 281 717 333 717 c 128,-1,11
 385 717 385 717 421.5 680.5 c 128,-1,12
 458 644 458 644 458 592 c 2,13,-1
 458 390 l 1,14,15
 494 422 494 422 545 420.5 c 128,-1,16
 596 419 596 419 630 385 c 0,17,18
 667 348 667 348 667 297 c 128,-1,19
 667 246 667 246 630 209 c 2,20,-1
 333 -88 l 1,0,-1
125 339 m 0,21,22
 107 339 107 339 95 327 c 128,-1,23
 83 315 83 315 83 297.5 c 128,-1,24
 83 280 83 280 95 268 c 2,25,-1
 333 30 l 1,26,-1
 571 268 l 2,27,28
 583 280 583 280 583 297.5 c 128,-1,29
 583 315 583 315 571 327 c 128,-1,30
 559 339 559 339 541.5 339 c 128,-1,31
 524 339 524 339 512 327 c 2,32,-1
 375 189 l 1,33,-1
 375 592 l 2,34,35
 375 609 375 609 362.5 621 c 128,-1,36
 350 633 350 633 333 633 c 128,-1,37
 316 633 316 633 304 621 c 128,-1,38
 292 609 292 609 292 592 c 2,39,-1
 292 189 l 1,40,-1
 154 327 l 2,41,42
 142 339 142 339 125 339 c 0,21,22
EndSplineSet
Validated: 33
EndChar

StartChar: glyph8
Encoding: 8 57352 9
Width: 583
GlyphClass: 1
Flags: W
LayerCount: 2
Fore
SplineSet
559 356 m 128,-1,1
 584 331 584 331 584 297 c 128,-1,2
 584 263 584 263 559 238 c 2,3,-1
 292 -29 l 1,4,-1
 24 238 l 2,5,6
 -1 263 -1 263 -1 297 c 128,-1,7
 -1 331 -1 331 24 356 c 128,-1,8
 49 381 49 381 83 381 c 128,-1,9
 117 381 117 381 142 356 c 2,10,-1
 208 290 l 1,11,-1
 208 592 l 2,12,13
 208 626 208 626 232.5 650.5 c 128,-1,14
 257 675 257 675 292 675 c 0,15,16
 326 675 326 675 350.5 650.5 c 128,-1,17
 375 626 375 626 375 592 c 2,18,-1
 375 290 l 1,19,-1
 441 356 l 2,20,21
 466 381 466 381 500 381 c 128,-1,0
 534 381 534 381 559 356 c 128,-1,1
EndSplineSet
Validated: 1
EndChar

StartChar: glyph9
Encoding: 9 57353 10
Width: 417
GlyphClass: 1
Flags: W
LayerCount: 2
Fore
SplineSet
404 246 m 128,-1,1
 416 234 416 234 416 216.5 c 128,-1,2
 416 199 416 199 404 187 c 2,3,-1
 208 -9 l 1,4,-1
 12 187 l 2,5,6
 0 199 0 199 0 216.5 c 128,-1,7
 0 234 0 234 12 246 c 128,-1,8
 24 258 24 258 41.5 258 c 128,-1,9
 59 258 59 258 71 246 c 2,10,-1
 167 151 l 1,11,-1
 167 467 l 2,12,13
 167 484 167 484 179 496 c 128,-1,14
 191 508 191 508 208 508 c 128,-1,15
 225 508 225 508 237.5 496 c 128,-1,16
 250 484 250 484 250 467 c 2,17,-1
 250 151 l 1,18,-1
 346 246 l 2,19,20
 358 258 358 258 375 258 c 128,-1,0
 392 258 392 258 404 246 c 128,-1,1
EndSplineSet
Validated: 1
EndChar

StartChar: glyph10
Encoding: 10 57354 11
Width: 750
GlyphClass: 1
Flags: W
LayerCount: 2
Fore
SplineSet
42 -33 m 0,0,1
 24 -33 24 -33 12 -20.5 c 128,-1,2
 0 -8 0 -8 0 8 c 2,3,-1
 0 50 l 2,4,5
 0 199 0 199 94 314 c 128,-1,6
 188 429 188 429 333 458 c 1,7,-1
 333 529 l 2,8,9
 333 563 333 563 358 588 c 0,10,11
 382 612 382 612 417.5 611.5 c 128,-1,12
 453 611 453 611 476 588 c 2,13,-1
 738 330 l 2,14,15
 750 318 750 318 750 300 c 128,-1,16
 750 282 750 282 738 270 c 2,17,-1
 475 12 l 2,18,19
 452 -11 452 -11 417 -11.5 c 128,-1,20
 382 -12 382 -12 358 12 c 0,21,22
 333 37 333 37 333 71 c 2,23,-1
 333 131 l 1,24,25
 249 125 249 125 186.5 92.5 c 128,-1,26
 124 60 124 60 76 -14 c 0,27,28
 63 -33 63 -33 42 -33 c 0,0,1
375 216 m 2,29,-1
 417 217 l 1,30,-1
 417 71 l 1,31,-1
 649 300 l 1,32,-1
 417 529 l 1,33,-1
 417 383 l 1,34,35
 401 383 401 383 380 381 c 0,36,37
 274 369 274 369 195 299 c 128,-1,38
 116 229 116 229 92 128 c 1,39,40
 195 212 195 212 375 216 c 2,29,-1
EndSplineSet
Validated: 33
EndChar

StartChar: glyph11
Encoding: 11 57355 12
Width: 667
GlyphClass: 1
Flags: W
LayerCount: 2
Fore
SplineSet
333 529 m 2,0,1
 333 546 333 546 345.5 558.5 c 128,-1,2
 358 571 358 571 375 571 c 128,-1,3
 392 571 392 571 404 559 c 2,4,-1
 667 300 l 1,5,-1
 404 41 l 2,6,7
 392 29 392 29 375 29 c 128,-1,8
 358 29 358 29 345.5 41.5 c 128,-1,9
 333 54 333 54 333 71 c 2,10,-1
 333 175 l 1,11,12
 227 172 227 172 145.5 138.5 c 128,-1,13
 64 105 64 105 0 8 c 1,14,-1
 0 50 l 2,15,16
 0 194 0 194 95.5 300.5 c 128,-1,17
 191 407 191 407 333 423 c 1,18,-1
 333 529 l 2,0,1
EndSplineSet
Validated: 1
EndChar

StartChar: glyph12
Encoding: 12 57356 13
Width: 805
GlyphClass: 1
Flags: W
LayerCount: 2
Fore
SplineSet
510 50 m 0,0,1
 510 -1 510 -1 473 -38 c 128,-1,2
 436 -75 436 -75 385 -75 c 128,-1,3
 334 -75 334 -75 297 -38 c 2,4,-1
 0 258 l 1,5,-1
 297 555 l 2,6,7
 332 590 332 590 385 590 c 128,-1,8
 438 590 438 590 473 555 c 0,9,10
 510 518 510 518 510 467 c 0,11,12
 510 418 510 418 478 383 c 1,13,-1
 680 383 l 2,14,15
 732 383 732 383 768.5 346.5 c 128,-1,16
 805 310 805 310 805 258 c 128,-1,17
 805 206 805 206 768.5 169.5 c 128,-1,18
 732 133 732 133 680 133 c 2,19,-1
 478 133 l 1,20,21
 510 98 510 98 510 50 c 0,0,1
118 258 m 1,22,-1
 356 21 l 2,23,24
 368 9 368 9 385.5 9 c 128,-1,25
 403 9 403 9 415 21 c 128,-1,26
 427 33 427 33 427 50 c 128,-1,27
 427 67 427 67 415 79 c 2,28,-1
 277 217 l 1,29,-1
 680 217 l 2,30,31
 697 217 697 217 709 229 c 128,-1,32
 721 241 721 241 721 258 c 128,-1,33
 721 275 721 275 709 287.5 c 128,-1,34
 697 300 697 300 680 300 c 2,35,-1
 277 300 l 1,36,-1
 415 437 l 2,37,38
 427 449 427 449 427 467 c 0,39,40
 427 484 427 484 415 496 c 128,-1,41
 403 508 403 508 385.5 508 c 128,-1,42
 368 508 368 508 356 496 c 2,43,-1
 118 258 l 1,22,-1
EndSplineSet
Validated: 1
EndChar

StartChar: glyph13
Encoding: 13 57357 14
Width: 704
GlyphClass: 1
Flags: W
LayerCount: 2
Fore
SplineSet
621 342 m 2,0,1
 655 342 655 342 679.5 317.5 c 128,-1,2
 704 293 704 293 704 258 c 0,3,4
 704 224 704 224 680 199.5 c 128,-1,5
 656 175 656 175 621 175 c 2,6,-1
 319 175 l 1,7,-1
 385 109 l 2,8,9
 410 85 410 85 410 50.5 c 128,-1,10
 410 16 410 16 385 -9 c 0,11,12
 361 -33 361 -33 326 -33 c 128,-1,13
 291 -33 291 -33 267 -9 c 2,14,-1
 0 258 l 1,15,-1
 267 526 l 2,16,17
 292 551 292 551 326 551 c 128,-1,18
 360 551 360 551 385 526 c 0,19,20
 410 502 410 502 410 467.5 c 128,-1,21
 410 433 410 433 385 408 c 2,22,-1
 319 342 l 1,23,-1
 621 342 l 2,0,1
EndSplineSet
Validated: 1
EndChar

StartChar: glyph14
Encoding: 14 57358 15
Width: 517
GlyphClass: 1
Flags: W
LayerCount: 2
Fore
SplineSet
476 342 m 2,0,1
 493 342 493 342 505 329.5 c 128,-1,2
 517 317 517 317 517 300 c 128,-1,3
 517 283 517 283 505 270.5 c 128,-1,4
 493 258 493 258 476 258 c 2,5,-1
 160 258 l 1,6,-1
 255 163 l 2,7,8
 267 151 267 151 267 133.5 c 128,-1,9
 267 116 267 116 255 104 c 128,-1,10
 243 92 243 92 226 92 c 0,11,12
 208 92 208 92 196 104 c 2,13,-1
 0 300 l 1,14,-1
 196 496 l 2,15,16
 208 508 208 508 225.5 508 c 128,-1,17
 243 508 243 508 255 496 c 128,-1,18
 267 484 267 484 267 466.5 c 128,-1,19
 267 449 267 449 255 437 c 2,20,-1
 160 342 l 1,21,-1
 476 342 l 2,0,1
EndSplineSet
Validated: 1
EndChar

StartChar: glyph15
Encoding: 15 57359 16
Width: 958
GlyphClass: 1
Flags: W
LayerCount: 2
Fore
SplineSet
625 633 m 0,0,1
 676 633 676 633 713 596 c 128,-1,2
 750 559 750 559 750 508 c 2,3,-1
 750 501 l 1,4,5
 840 478 840 478 899 399 c 128,-1,6
 958 320 958 320 958 217 c 0,7,8
 958 96 958 96 873 10.5 c 128,-1,9
 788 -75 788 -75 667 -75 c 2,10,-1
 292 -75 l 2,11,12
 171 -75 171 -75 85.5 10.5 c 128,-1,13
 0 96 0 96 0 217 c 128,-1,14
 0 338 0 338 85.5 423 c 128,-1,15
 171 508 171 508 292 508 c 2,16,-1
 333 508 l 2,17,18
 382 508 382 508 416 477 c 1,19,-1
 537 597 l 2,20,21
 573 633 573 633 625 633 c 0,0,1
667 8 m 2,22,23
 753 8 753 8 814 69.5 c 128,-1,24
 875 131 875 131 875 217 c 128,-1,25
 875 303 875 303 820 364 c 128,-1,26
 765 425 765 425 688 425 c 2,27,-1
 601 425 l 1,28,-1
 654 479 l 2,29,30
 666 491 666 491 666 508.5 c 128,-1,31
 666 526 666 526 654 538 c 128,-1,32
 642 550 642 550 625 550 c 128,-1,33
 608 550 608 550 596 538 c 2,34,-1
 441 383 l 1,35,-1
 596 229 l 2,36,37
 608 217 608 217 625 217 c 128,-1,38
 642 217 642 217 654 229 c 128,-1,39
 666 241 666 241 666 258.5 c 128,-1,40
 666 276 666 276 654 288 c 2,41,-1
 601 342 l 1,42,-1
 688 342 l 2,43,44
 731 342 731 342 761.5 305.5 c 128,-1,45
 792 269 792 269 792 217 c 128,-1,46
 792 165 792 165 755.5 128.5 c 128,-1,47
 719 92 719 92 667 92 c 2,48,-1
 292 92 l 2,49,50
 240 92 240 92 203.5 128.5 c 128,-1,51
 167 165 167 165 167 217 c 128,-1,52
 167 269 167 269 203.5 305.5 c 128,-1,53
 240 342 240 342 292 342 c 2,54,-1
 333 342 l 2,55,56
 350 342 350 342 362.5 354 c 128,-1,57
 375 366 375 366 375 383 c 128,-1,58
 375 400 375 400 362.5 412.5 c 128,-1,59
 350 425 350 425 333 425 c 2,60,-1
 292 425 l 2,61,62
 206 425 206 425 144.5 364 c 128,-1,63
 83 303 83 303 83 217 c 128,-1,64
 83 131 83 131 144.5 69.5 c 128,-1,65
 206 8 206 8 292 8 c 2,66,-1
 667 8 l 2,22,23
708 258 m 0,67,68
 708 224 708 224 683.5 199.5 c 128,-1,69
 659 175 659 175 625 175 c 0,70,71
 590 175 590 175 566 199 c 2,72,-1
 411 354 l 1,73,74
 402 330 402 330 381 315 c 128,-1,75
 360 300 360 300 333 300 c 2,76,-1
 292 300 l 2,77,78
 257 300 257 300 232.5 275.5 c 128,-1,79
 208 251 208 251 208 217 c 0,80,81
 208 182 208 182 233 157.5 c 128,-1,82
 258 133 258 133 292 133 c 2,83,-1
 667 133 l 2,84,85
 701 133 701 133 725.5 157.5 c 128,-1,86
 750 182 750 182 750 217 c 0,87,88
 750 247 750 247 735 270.5 c 128,-1,89
 720 294 720 294 698 299 c 1,90,91
 708 282 708 282 708 258 c 0,67,68
EndSplineSet
Validated: 1
EndChar

StartChar: glyph16
Encoding: 16 57360 17
Width: 750
GlyphClass: 1
Flags: W
LayerCount: 2
Fore
SplineSet
562 467 m 2,0,1
 639 467 639 467 694.5 405.5 c 128,-1,2
 750 344 750 344 750 258 c 128,-1,3
 750 172 750 172 689 111 c 128,-1,4
 628 50 628 50 542 50 c 2,5,-1
 208 50 l 2,6,7
 122 50 122 50 61 111 c 128,-1,8
 0 172 0 172 0 258 c 128,-1,9
 0 344 0 344 61 405.5 c 128,-1,10
 122 467 122 467 208 467 c 0,11,12
 225 467 225 467 237.5 454.5 c 128,-1,13
 250 442 250 442 250 425 c 128,-1,14
 250 408 250 408 237.5 395.5 c 128,-1,15
 225 383 225 383 208 383 c 0,16,17
 156 383 156 383 119.5 346.5 c 128,-1,18
 83 310 83 310 83 258 c 128,-1,19
 83 206 83 206 119.5 169.5 c 128,-1,20
 156 133 156 133 208 133 c 2,21,-1
 542 133 l 2,22,23
 594 133 594 133 630.5 169.5 c 128,-1,24
 667 206 667 206 667 258 c 128,-1,25
 667 310 667 310 636 346.5 c 128,-1,26
 605 383 605 383 562 383 c 2,27,-1
 476 383 l 1,28,-1
 529 329 l 2,29,30
 541 317 541 317 541 300 c 128,-1,31
 541 283 541 283 529 271 c 0,32,33
 516 258 516 258 500 258 c 128,-1,34
 484 258 484 258 471 271 c 2,35,-1
 316 425 l 1,36,-1
 471 579 l 2,37,38
 483 591 483 591 500 591 c 128,-1,39
 517 591 517 591 529 579 c 128,-1,40
 541 567 541 567 541 550 c 128,-1,41
 541 533 541 533 529 521 c 2,42,-1
 476 467 l 1,43,-1
 562 467 l 2,0,1
EndSplineSet
Validated: 1
EndChar

StartChar: glyph17
Encoding: 17 57361 18
Width: 792
GlyphClass: 1
Flags: W
LayerCount: 2
Fore
SplineSet
490 675 m 2,0,-1
 792 675 l 1,1,-1
 792 383 l 2,2,3
 792 343 792 343 768.5 311 c 128,-1,4
 745 279 745 279 708 266 c 1,5,-1
 708 261 l 1,6,-1
 708 -33 l 1,7,-1
 417 -33 l 1,8,9
 404 -70 404 -70 368.5 -93.5 c 128,-1,10
 333 -117 333 -117 292 -117 c 2,11,-1
 0 -117 l 1,12,-1
 0 175 l 2,13,14
 0 215 0 215 23.5 247 c 128,-1,15
 47 279 47 279 84 292 c 1,16,-1
 83 297 l 1,17,-1
 83 592 l 1,18,-1
 373 592 l 1,19,20
 386 629 386 629 418 652 c 128,-1,21
 450 675 450 675 490 675 c 2,0,-1
625 50 m 1,22,-1
 625 261 l 2,23,24
 625 278 625 278 612.5 290.5 c 128,-1,25
 600 303 600 303 583 303 c 128,-1,26
 566 303 566 303 554 290.5 c 128,-1,27
 542 278 542 278 542 261 c 2,28,-1
 542 133 l 1,29,-1
 417 133 l 2,30,31
 400 133 400 133 387.5 121 c 128,-1,32
 375 109 375 109 375 92 c 128,-1,33
 375 75 375 75 387.5 62.5 c 128,-1,34
 400 50 400 50 417 50 c 2,35,-1
 625 50 l 1,22,-1
167 508 m 1,36,-1
 167 297 l 2,37,38
 167 280 167 280 179 268 c 128,-1,39
 191 256 191 256 208 256 c 128,-1,40
 225 256 225 256 237.5 268 c 128,-1,41
 250 280 250 280 250 297 c 2,42,-1
 250 425 l 1,43,-1
 378 425 l 2,44,45
 395 425 395 425 407 437.5 c 128,-1,46
 419 450 419 450 419 467 c 128,-1,47
 419 484 419 484 407 496 c 128,-1,48
 395 508 395 508 378 508 c 2,49,-1
 167 508 l 1,36,-1
708 383 m 2,50,-1
 708 592 l 1,51,-1
 500 592 l 2,52,53
 483 592 483 592 470.5 579.5 c 128,-1,54
 458 567 458 567 458 550 c 128,-1,55
 458 533 458 533 470.5 520.5 c 128,-1,56
 483 508 483 508 500 508 c 2,57,-1
 566 508 l 1,58,-1
 429 371 l 2,59,60
 417 359 417 359 417 341.5 c 128,-1,61
 417 324 417 324 429 312 c 128,-1,62
 441 300 441 300 458 300 c 0,63,64
 476 300 476 300 488 312 c 2,65,-1
 625 449 l 1,66,-1
 625 383 l 2,67,68
 625 366 625 366 637.5 354 c 128,-1,69
 650 342 650 342 667 342 c 128,-1,70
 684 342 684 342 696 354 c 128,-1,71
 708 366 708 366 708 383 c 2,50,-1
292 -33 m 2,72,73
 309 -33 309 -33 321 -21 c 128,-1,74
 333 -9 333 -9 333 8 c 128,-1,75
 333 25 333 25 321 37.5 c 128,-1,76
 309 50 309 50 292 50 c 2,77,-1
 226 50 l 1,78,-1
 363 187 l 2,79,80
 375 199 375 199 375 216.5 c 128,-1,81
 375 234 375 234 363 246 c 128,-1,82
 351 258 351 258 333 258 c 0,83,84
 316 258 316 258 304 246 c 2,85,-1
 167 109 l 1,86,-1
 167 175 l 2,87,88
 167 192 167 192 154.5 204.5 c 128,-1,89
 142 217 142 217 125 217 c 128,-1,90
 108 217 108 217 95.5 204.5 c 128,-1,91
 83 192 83 192 83 175 c 2,92,-1
 83 -33 l 1,93,-1
 292 -33 l 2,72,73
333 300 m 0,94,95
 367 300 367 300 392 275.5 c 128,-1,96
 417 251 417 251 417 217 c 0,97,98
 417 195 417 195 404 174 c 1,99,100
 409 175 409 175 419 175 c 2,101,-1
 500 175 l 1,102,-1
 500 261 l 1,103,-1
 501 270 l 1,104,105
 482 258 482 258 458 258 c 0,106,107
 424 258 424 258 399.5 283 c 128,-1,108
 375 308 375 308 375 342 c 0,109,110
 375 364 375 364 387 384 c 1,111,-1
 378 383 l 1,112,-1
 292 383 l 1,113,-1
 292 297 l 1,114,-1
 291 288 l 1,115,116
 310 300 310 300 333 300 c 0,94,95
EndSplineSet
Validated: 1
EndChar

StartChar: glyph18
Encoding: 18 57362 19
Width: 667
GlyphClass: 1
Flags: W
LayerCount: 2
Fore
SplineSet
458 633 m 2,0,-1
 667 633 l 1,1,-1
 667 425 l 2,2,3
 667 408 667 408 654.5 395.5 c 128,-1,4
 642 383 642 383 625 383 c 128,-1,5
 608 383 608 383 595.5 395.5 c 128,-1,6
 583 408 583 408 583 425 c 2,7,-1
 583 491 l 1,8,-1
 446 354 l 2,9,10
 434 342 434 342 417 342 c 0,11,12
 399 342 399 342 387 354 c 128,-1,13
 375 366 375 366 375 383.5 c 128,-1,14
 375 401 375 401 387 413 c 2,15,-1
 524 550 l 1,16,-1
 458 550 l 2,17,18
 441 550 441 550 429 562.5 c 128,-1,19
 417 575 417 575 417 592 c 128,-1,20
 417 609 417 609 429 621 c 128,-1,21
 441 633 441 633 458 633 c 2,0,-1
221 246 m 2,22,23
 233 258 233 258 250 258 c 128,-1,24
 267 258 267 258 279 246 c 128,-1,25
 291 234 291 234 291 216.5 c 128,-1,26
 291 199 291 199 279 187 c 2,27,-1
 142 50 l 1,28,-1
 208 50 l 2,29,30
 225 50 225 50 237.5 37.5 c 128,-1,31
 250 25 250 25 250 8 c 128,-1,32
 250 -9 250 -9 237.5 -21 c 128,-1,33
 225 -33 225 -33 208 -33 c 2,34,-1
 42 -33 l 1,35,-1
 0 -33 l 1,36,-1
 0 175 l 2,37,38
 0 192 0 192 12.5 204.5 c 128,-1,39
 25 217 25 217 42 217 c 128,-1,40
 59 217 59 217 71 204.5 c 128,-1,41
 83 192 83 192 83 175 c 2,42,-1
 83 109 l 1,43,-1
 221 246 l 2,22,23
125 300 m 128,-1,45
 108 300 108 300 95.5 312.5 c 128,-1,46
 83 325 83 325 83 342 c 2,47,-1
 83 550 l 1,48,-1
 292 550 l 2,49,50
 309 550 309 550 321 537.5 c 128,-1,51
 333 525 333 525 333 508 c 128,-1,52
 333 491 333 491 321 479 c 128,-1,53
 309 467 309 467 292 467 c 2,54,-1
 167 467 l 1,55,-1
 167 342 l 2,56,57
 167 325 167 325 154.5 312.5 c 128,-1,44
 142 300 142 300 125 300 c 128,-1,45
542 300 m 128,-1,59
 559 300 559 300 571 287.5 c 128,-1,60
 583 275 583 275 583 258 c 2,61,-1
 583 50 l 1,62,-1
 375 50 l 2,63,64
 358 50 358 50 345.5 62.5 c 128,-1,65
 333 75 333 75 333 92 c 128,-1,66
 333 109 333 109 345.5 121 c 128,-1,67
 358 133 358 133 375 133 c 2,68,-1
 500 133 l 1,69,-1
 500 258 l 2,70,71
 500 275 500 275 512.5 287.5 c 128,-1,58
 525 300 525 300 542 300 c 128,-1,59
EndSplineSet
Validated: 1
EndChar

StartChar: glyph19
Encoding: 19 57363 20
Width: 792
GlyphClass: 1
Flags: W
LayerCount: 2
Fore
SplineSet
667 675 m 0,0,1
 718 675 718 675 755 638 c 128,-1,2
 792 601 792 601 792 550 c 128,-1,3
 792 499 792 499 755 462 c 2,4,-1
 718 425 l 1,5,6
 750 390 750 390 750 342 c 0,7,8
 750 285 750 285 705 247 c 1,9,10
 708 234 708 234 708 219 c 2,11,-1
 708 -33 l 1,12,-1
 461 -33 l 2,13,14
 443 -33 443 -33 430 -29 c 1,15,16
 392 -75 392 -75 333 -75 c 0,17,18
 283 -75 283 -75 248 -42 c 1,19,-1
 211 -80 l 2,20,21
 174 -117 174 -117 125 -117 c 0,22,23
 74 -117 74 -117 37 -80 c 128,-1,24
 0 -43 0 -43 0 8 c 0,25,26
 0 60 0 60 37 97 c 2,27,-1
 76 136 l 1,28,29
 47 171 47 171 47 217 c 0,30,31
 47 270 47 270 88 308 c 1,32,33
 83 333 83 333 83 339 c 2,34,-1
 83 592 l 1,35,-1
 336 592 l 2,36,37
 345 592 345 592 363 588 c 1,38,39
 401 633 401 633 458 633 c 0,40,41
 508 633 508 633 542 602 c 1,42,-1
 578 638 l 2,43,44
 615 675 615 675 667 675 c 0,0,1
167 508 m 1,45,-1
 167 342 l 2,46,47
 167 325 167 325 179 312.5 c 128,-1,48
 191 300 191 300 208 300 c 128,-1,49
 225 300 225 300 237.5 312.5 c 128,-1,50
 250 325 250 325 250 342 c 2,51,-1
 250 425 l 1,52,-1
 333 425 l 2,53,54
 350 425 350 425 362.5 437.5 c 128,-1,55
 375 450 375 450 375 467 c 128,-1,56
 375 484 375 484 362.5 496 c 128,-1,57
 350 508 350 508 333 508 c 2,58,-1
 167 508 l 1,45,-1
696 521 m 2,59,60
 708 533 708 533 708 550 c 128,-1,61
 708 567 708 567 696 579 c 0,62,63
 683 592 683 592 667 592 c 0,64,65
 650 592 650 592 637 579 c 2,66,-1
 500 442 l 1,67,-1
 500 508 l 2,68,69
 500 525 500 525 487.5 537.5 c 128,-1,70
 475 550 475 550 458 550 c 128,-1,71
 441 550 441 550 429 537.5 c 128,-1,72
 417 525 417 525 417 508 c 2,73,-1
 417 300 l 1,74,-1
 625 300 l 2,75,76
 642 300 642 300 654.5 312.5 c 128,-1,77
 667 325 667 325 667 342 c 128,-1,78
 667 359 667 359 654.5 371 c 128,-1,79
 642 383 642 383 625 383 c 2,80,-1
 559 383 l 1,81,-1
 696 521 l 2,59,60
375 50 m 2,82,-1
 375 258 l 1,83,-1
 172 258 l 2,84,85
 155 258 155 258 142.5 246 c 128,-1,86
 130 234 130 234 130 217 c 128,-1,87
 130 200 130 200 142.5 187.5 c 128,-1,88
 155 175 155 175 172 175 c 2,89,-1
 233 175 l 1,90,-1
 96 38 l 2,91,92
 84 26 84 26 84 8.5 c 128,-1,93
 84 -9 84 -9 96 -21 c 128,-1,94
 108 -33 108 -33 125 -33 c 0,95,96
 140 -33 140 -33 152 -21 c 2,97,-1
 292 121 l 1,98,-1
 292 50 l 2,99,100
 292 33 292 33 304 20.5 c 128,-1,101
 316 8 316 8 333 8 c 128,-1,102
 350 8 350 8 362.5 20.5 c 128,-1,103
 375 33 375 33 375 50 c 2,82,-1
375 300 m 1,104,-1
 375 394 l 1,105,106
 353 383 353 383 336 383 c 2,107,-1
 292 383 l 1,108,-1
 292 342 l 2,109,110
 292 321 292 321 280 300 c 1,111,-1
 375 300 l 1,104,-1
417 258 m 1,112,-1
 417 162 l 1,113,114
 438 175 438 175 461 175 c 2,115,-1
 500 175 l 1,116,-1
 500 219 l 2,117,118
 500 251 500 251 530 258 c 1,119,-1
 417 258 l 1,112,-1
419 92 m 128,-1,121
 419 75 419 75 431.5 62.5 c 128,-1,122
 444 50 444 50 461 50 c 2,123,-1
 625 50 l 1,124,-1
 625 217 l 2,125,126
 625 234 625 234 612.5 246 c 128,-1,127
 600 258 600 258 583 258 c 128,-1,128
 566 258 566 258 554 246 c 128,-1,129
 542 234 542 234 542 217 c 2,130,-1
 542 133 l 1,131,-1
 461 133 l 2,132,133
 444 133 444 133 431.5 121 c 128,-1,120
 419 109 419 109 419 92 c 128,-1,121
EndSplineSet
Validated: 1
EndChar

StartChar: glyph20
Encoding: 20 57364 21
Width: 667
GlyphClass: 1
Flags: W
LayerCount: 2
Fore
SplineSet
88 258 m 2,0,-1
 292 258 l 1,1,-1
 292 50 l 2,2,3
 292 32 292 32 282 20 c 128,-1,4
 272 8 272 8 255 8 c 128,-1,5
 238 8 238 8 225.5 20.5 c 128,-1,6
 213 33 213 33 213 50 c 2,7,-1
 213 121 l 1,8,-1
 71 -21 l 2,9,10
 59 -33 59 -33 42 -33 c 0,11,12
 24 -33 24 -33 12 -21 c 128,-1,13
 0 -9 0 -9 0 8.5 c 128,-1,14
 0 26 0 26 12 38 c 2,15,-1
 149 175 l 1,16,-1
 88 175 l 2,17,18
 71 175 71 175 59 187.5 c 128,-1,19
 47 200 47 200 47 217 c 128,-1,20
 47 234 47 234 59 246 c 128,-1,21
 71 258 71 258 88 258 c 2,0,-1
125 342 m 128,-1,23
 108 342 108 342 95.5 354 c 128,-1,24
 83 366 83 366 83 383 c 2,25,-1
 83 550 l 1,26,-1
 250 550 l 2,27,28
 267 550 267 550 279.5 537.5 c 128,-1,29
 292 525 292 525 292 508 c 128,-1,30
 292 491 292 491 279.5 479 c 128,-1,31
 267 467 267 467 250 467 c 2,32,-1
 167 467 l 1,33,-1
 167 383 l 2,34,35
 167 366 167 366 154.5 354 c 128,-1,22
 142 342 142 342 125 342 c 128,-1,23
542 258 m 128,-1,37
 559 258 559 258 571 246 c 128,-1,38
 583 234 583 234 583 217 c 2,39,-1
 583 50 l 1,40,-1
 417 50 l 2,41,42
 400 50 400 50 387.5 62.5 c 128,-1,43
 375 75 375 75 375 92 c 128,-1,44
 375 109 375 109 387.5 121 c 128,-1,45
 400 133 400 133 417 133 c 2,46,-1
 500 133 l 1,47,-1
 500 217 l 2,48,49
 500 234 500 234 512.5 246 c 128,-1,36
 525 258 525 258 542 258 c 128,-1,37
596 621 m 2,50,51
 608 633 608 633 625 633 c 128,-1,52
 642 633 642 633 654 621 c 128,-1,53
 666 609 666 609 666 591.5 c 128,-1,54
 666 574 666 574 654 562 c 2,55,-1
 517 425 l 1,56,-1
 583 425 l 2,57,58
 600 425 600 425 612.5 412.5 c 128,-1,59
 625 400 625 400 625 383 c 128,-1,60
 625 366 625 366 612.5 354 c 128,-1,61
 600 342 600 342 583 342 c 2,62,-1
 375 342 l 1,63,-1
 375 550 l 2,64,65
 375 567 375 567 387.5 579.5 c 128,-1,66
 400 592 400 592 417 592 c 128,-1,67
 434 592 434 592 446 579.5 c 128,-1,68
 458 567 458 567 458 550 c 2,69,-1
 458 484 l 1,70,-1
 596 621 l 2,50,51
EndSplineSet
Validated: 1
EndChar

StartChar: glyph21
Encoding: 21 57365 22
Width: 951
GlyphClass: 1
Flags: W
LayerCount: 2
Fore
SplineSet
927 359 m 2,0,1
 952 335 952 335 952 300.5 c 128,-1,2
 952 266 952 266 927 241 c 2,3,-1
 534 -151 l 2,4,5
 509 -176 509 -176 476 -176 c 0,6,7
 442 -176 442 -176 417 -151 c 2,8,-1
 24 241 l 2,9,10
 -1 266 -1 266 -1 300.5 c 128,-1,11
 -1 335 -1 335 24 359 c 2,12,-1
 417 751 l 2,13,14
 442 776 442 776 476 776 c 0,15,16
 509 776 509 776 534 751 c 2,17,-1
 927 359 l 2,0,1
684 133 m 0,18,19
 700 133 700 133 713 146 c 2,20,-1
 868 300 l 1,21,-1
 713 454 l 2,22,23
 700 467 700 467 684 467 c 0,24,25
 667 467 667 467 654 454 c 0,26,27
 642 442 642 442 642 425 c 128,-1,28
 642 408 642 408 654 396 c 2,29,-1
 708 342 l 1,30,-1
 517 342 l 1,31,-1
 517 533 l 1,32,-1
 571 479 l 2,33,34
 583 467 583 467 601 467 c 0,35,36
 618 467 618 467 630 479 c 128,-1,37
 642 491 642 491 642 508.5 c 128,-1,38
 642 526 642 526 630 538 c 2,39,-1
 476 692 l 1,40,-1
 321 538 l 2,41,42
 309 526 309 526 309 508.5 c 128,-1,43
 309 491 309 491 321 479 c 128,-1,44
 333 467 333 467 351 467 c 0,45,46
 368 467 368 467 380 479 c 2,47,-1
 434 533 l 1,48,-1
 434 342 l 1,49,-1
 243 342 l 1,50,-1
 297 396 l 2,51,52
 309 408 309 408 309 425 c 128,-1,53
 309 442 309 442 297 454 c 0,54,55
 284 467 284 467 267 467 c 0,56,57
 251 467 251 467 238 454 c 2,58,-1
 83 300 l 1,59,-1
 238 146 l 2,60,61
 251 133 251 133 267 133 c 0,62,63
 284 133 284 133 297 146 c 0,64,65
 309 158 309 158 309 175 c 128,-1,66
 309 192 309 192 297 204 c 2,67,-1
 243 258 l 1,68,-1
 434 258 l 1,69,-1
 434 67 l 1,70,-1
 380 121 l 2,71,72
 368 133 368 133 351 133 c 0,73,74
 333 133 333 133 321 121 c 128,-1,75
 309 109 309 109 309 91.5 c 128,-1,76
 309 74 309 74 321 62 c 2,77,-1
 476 -92 l 1,78,-1
 630 62 l 2,79,80
 642 74 642 74 642 91.5 c 128,-1,81
 642 109 642 109 630 121 c 128,-1,82
 618 133 618 133 601 133 c 0,83,84
 583 133 583 133 571 121 c 2,85,-1
 517 67 l 1,86,-1
 517 258 l 1,87,-1
 708 258 l 1,88,-1
 654 204 l 2,89,90
 642 192 642 192 642 175 c 128,-1,91
 642 158 642 158 654 146 c 0,92,93
 667 133 667 133 684 133 c 0,18,19
612 217 m 1,94,-1
 559 217 l 1,95,-1
 559 164 l 1,96,97
 579 175 579 175 601 175 c 1,98,99
 601 197 601 197 612 217 c 1,94,-1
339 217 m 1,100,101
 351 195 351 195 351 175 c 1,102,103
 372 175 372 175 392 164 c 1,104,-1
 392 217 l 1,105,-1
 339 217 l 1,100,101
339 383 m 1,106,-1
 392 383 l 1,107,-1
 392 436 l 1,108,109
 372 425 372 425 351 425 c 1,110,111
 351 405 351 405 339 383 c 1,106,-1
612 383 m 1,112,113
 601 403 601 403 601 425 c 1,114,115
 579 425 579 425 559 436 c 1,116,-1
 559 383 l 1,117,-1
 612 383 l 1,112,113
EndSplineSet
Validated: 1
EndChar

StartChar: glyph22
Encoding: 22 57366 23
Width: 784
GlyphClass: 1
Flags: W
LayerCount: 2
Fore
SplineSet
630 454 m 2,0,-1
 784 300 l 1,1,-1
 630 146 l 2,2,3
 617 133 617 133 601 133 c 0,4,5
 584 133 584 133 571 146 c 0,6,7
 559 158 559 158 559 175 c 128,-1,8
 559 192 559 192 571 204 c 2,9,-1
 625 258 l 1,10,-1
 434 258 l 1,11,-1
 434 67 l 1,12,-1
 488 121 l 2,13,14
 500 133 500 133 517.5 133 c 128,-1,15
 535 133 535 133 547 121 c 128,-1,16
 559 109 559 109 559 91.5 c 128,-1,17
 559 74 559 74 547 62 c 2,18,-1
 392 -92 l 1,19,-1
 238 62 l 2,20,21
 226 74 226 74 226 91.5 c 128,-1,22
 226 109 226 109 238 121 c 128,-1,23
 250 133 250 133 267.5 133 c 128,-1,24
 285 133 285 133 297 121 c 2,25,-1
 351 67 l 1,26,-1
 351 258 l 1,27,-1
 160 258 l 1,28,-1
 213 204 l 2,29,30
 225 192 225 192 225 175 c 128,-1,31
 225 158 225 158 213 146 c 0,32,33
 200 133 200 133 184 133 c 0,34,35
 167 133 167 133 154 146 c 2,36,-1
 0 300 l 1,37,-1
 154 454 l 2,38,39
 166 466 166 466 183.5 466 c 128,-1,40
 201 466 201 466 213 454 c 128,-1,41
 225 442 225 442 225 425 c 128,-1,42
 225 408 225 408 213 396 c 2,43,-1
 160 342 l 1,44,-1
 351 342 l 1,45,-1
 351 533 l 1,46,-1
 297 479 l 2,47,48
 285 467 285 467 267.5 467 c 128,-1,49
 250 467 250 467 238 479 c 128,-1,50
 226 491 226 491 226 508.5 c 128,-1,51
 226 526 226 526 238 538 c 2,52,-1
 392 692 l 1,53,-1
 547 538 l 2,54,55
 559 526 559 526 559 508.5 c 128,-1,56
 559 491 559 491 547 479 c 128,-1,57
 535 467 535 467 517 467 c 0,58,59
 500 467 500 467 488 479 c 2,60,-1
 434 533 l 1,61,-1
 434 342 l 1,62,-1
 625 342 l 1,63,-1
 571 396 l 2,64,65
 559 408 559 408 559 425 c 128,-1,66
 559 442 559 442 571 454 c 128,-1,67
 583 466 583 466 600.5 466 c 128,-1,68
 618 466 618 466 630 454 c 2,0,-1
EndSplineSet
Validated: 1
EndChar

StartChar: glyph23
Encoding: 23 57367 24
Width: 958
GlyphClass: 1
Flags: W
LayerCount: 2
Fore
SplineSet
625 633 m 0,0,1
 676 633 676 633 713 596 c 128,-1,2
 750 559 750 559 750 508 c 2,3,-1
 750 501 l 1,4,5
 840 478 840 478 899 399 c 128,-1,6
 958 320 958 320 958 217 c 0,7,8
 958 96 958 96 873 10.5 c 128,-1,9
 788 -75 788 -75 667 -75 c 2,10,-1
 625 -75 l 2,11,12
 577 -75 577 -75 542 -43 c 1,13,-1
 422 -163 l 2,14,15
 385 -200 385 -200 333 -200 c 0,16,17
 282 -200 282 -200 245 -163 c 128,-1,18
 208 -126 208 -126 208 -75 c 1,19,-1
 209 -67 l 1,20,21
 119 -44 119 -44 59.5 35.5 c 128,-1,22
 0 115 0 115 0 217 c 0,23,24
 0 338 0 338 85.5 423 c 128,-1,25
 171 508 171 508 292 508 c 2,26,-1
 333 508 l 2,27,28
 381 508 381 508 416 476 c 1,29,-1
 537 597 l 2,30,31
 573 633 573 633 625 633 c 0,0,1
667 8 m 2,32,33
 753 8 753 8 814 69.5 c 128,-1,34
 875 131 875 131 875 217 c 128,-1,35
 875 303 875 303 820 364 c 128,-1,36
 765 425 765 425 688 425 c 2,37,-1
 601 425 l 1,38,-1
 654 479 l 2,39,40
 666 491 666 491 666 508.5 c 128,-1,41
 666 526 666 526 654 538 c 128,-1,42
 642 550 642 550 625 550 c 128,-1,43
 608 550 608 550 596 538 c 2,44,-1
 441 383 l 1,45,-1
 596 229 l 2,46,47
 608 217 608 217 625 217 c 128,-1,48
 642 217 642 217 654 229 c 128,-1,49
 666 241 666 241 666 258.5 c 128,-1,50
 666 276 666 276 654 288 c 2,51,-1
 601 342 l 1,52,-1
 688 342 l 2,53,54
 731 342 731 342 761.5 305.5 c 128,-1,55
 792 269 792 269 792 217 c 128,-1,56
 792 165 792 165 755.5 128.5 c 128,-1,57
 719 92 719 92 667 92 c 2,58,-1
 625 92 l 2,59,60
 608 92 608 92 595.5 79.5 c 128,-1,61
 583 67 583 67 583 50 c 128,-1,62
 583 33 583 33 595.5 20.5 c 128,-1,63
 608 8 608 8 625 8 c 2,64,-1
 667 8 l 2,32,33
250 175 m 0,65,66
 250 209 250 209 274.5 233.5 c 128,-1,67
 299 258 299 258 333 258 c 0,68,69
 368 258 368 258 392 234 c 2,70,-1
 547 79 l 1,71,72
 556 103 556 103 577 118 c 128,-1,73
 598 133 598 133 625 133 c 2,74,-1
 667 133 l 2,75,76
 701 133 701 133 725.5 157.5 c 128,-1,77
 750 182 750 182 750 217 c 0,78,79
 750 247 750 247 735 270.5 c 128,-1,80
 720 294 720 294 698 299 c 1,81,82
 708 282 708 282 708 258 c 0,83,84
 708 224 708 224 683.5 199.5 c 128,-1,85
 659 175 659 175 625 175 c 0,86,87
 590 175 590 175 566 199 c 2,88,-1
 411 354 l 1,89,90
 402 330 402 330 381 315 c 128,-1,91
 360 300 360 300 333 300 c 2,92,-1
 292 300 l 2,93,94
 257 300 257 300 232.5 275.5 c 128,-1,95
 208 251 208 251 208 217 c 0,96,97
 208 187 208 187 223 163.5 c 128,-1,98
 238 140 238 140 260 135 c 1,99,100
 250 152 250 152 250 175 c 0,65,66
375 383 m 128,-1,102
 375 400 375 400 362.5 412.5 c 128,-1,103
 350 425 350 425 333 425 c 2,104,-1
 292 425 l 2,105,106
 206 425 206 425 144.5 364 c 128,-1,107
 83 303 83 303 83 217 c 128,-1,108
 83 131 83 131 138.5 69.5 c 128,-1,109
 194 8 194 8 271 8 c 2,110,-1
 358 8 l 1,111,-1
 304 -46 l 2,112,113
 292 -58 292 -58 292 -75 c 128,-1,114
 292 -92 292 -92 304 -104 c 0,115,116
 317 -117 317 -117 333 -117 c 0,117,118
 350 -117 350 -117 363 -104 c 2,119,-1
 517 50 l 1,120,-1
 363 204 l 2,121,122
 350 217 350 217 333 217 c 0,123,124
 317 217 317 217 304 204 c 0,125,126
 292 192 292 192 292 175 c 128,-1,127
 292 158 292 158 304 146 c 2,128,-1
 358 92 l 1,129,-1
 271 92 l 2,130,131
 228 92 228 92 197.5 128.5 c 128,-1,132
 167 165 167 165 167 217 c 128,-1,133
 167 269 167 269 203.5 305.5 c 128,-1,134
 240 342 240 342 292 342 c 2,135,-1
 333 342 l 2,136,137
 350 342 350 342 362.5 354 c 128,-1,101
 375 366 375 366 375 383 c 128,-1,102
EndSplineSet
Validated: 1
EndChar

StartChar: glyph24
Encoding: 24 57368 25
Width: 750
GlyphClass: 1
Flags: W
LayerCount: 2
Fore
SplineSet
562 508 m 2,0,1
 639 508 639 508 694.5 447 c 128,-1,2
 750 386 750 386 750 300 c 128,-1,3
 750 214 750 214 689 153 c 128,-1,4
 628 92 628 92 542 92 c 0,5,6
 525 92 525 92 512.5 104 c 128,-1,7
 500 116 500 116 500 133 c 128,-1,8
 500 150 500 150 512.5 162.5 c 128,-1,9
 525 175 525 175 542 175 c 0,10,11
 594 175 594 175 630.5 211.5 c 128,-1,12
 667 248 667 248 667 300 c 128,-1,13
 667 352 667 352 636 388.5 c 128,-1,14
 605 425 605 425 562 425 c 2,15,-1
 476 425 l 1,16,-1
 529 371 l 2,17,18
 541 359 541 359 541 341.5 c 128,-1,19
 541 324 541 324 529 312 c 128,-1,20
 517 300 517 300 500 300 c 128,-1,21
 483 300 483 300 471 312 c 2,22,-1
 316 467 l 1,23,-1
 471 621 l 2,24,25
 483 633 483 633 500 633 c 128,-1,26
 517 633 517 633 529 621 c 128,-1,27
 541 609 541 609 541 591.5 c 128,-1,28
 541 574 541 574 529 562 c 2,29,-1
 476 508 l 1,30,-1
 562 508 l 2,0,1
221 288 m 128,-1,32
 233 300 233 300 250 300 c 128,-1,33
 267 300 267 300 279 288 c 2,34,-1
 434 133 l 1,35,-1
 279 -21 l 2,36,37
 267 -33 267 -33 250 -33 c 128,-1,38
 233 -33 233 -33 221 -21 c 128,-1,39
 209 -9 209 -9 209 8.5 c 128,-1,40
 209 26 209 26 221 38 c 2,41,-1
 274 92 l 1,42,-1
 188 92 l 2,43,44
 111 92 111 92 55.5 153 c 128,-1,45
 0 214 0 214 0 300 c 128,-1,46
 0 386 0 386 61 447 c 128,-1,47
 122 508 122 508 208 508 c 0,48,49
 225 508 225 508 237.5 496 c 128,-1,50
 250 484 250 484 250 467 c 128,-1,51
 250 450 250 450 237.5 437.5 c 128,-1,52
 225 425 225 425 208 425 c 0,53,54
 156 425 156 425 119.5 388.5 c 128,-1,55
 83 352 83 352 83 300 c 128,-1,56
 83 248 83 248 114 211.5 c 128,-1,57
 145 175 145 175 188 175 c 2,58,-1
 274 175 l 1,59,-1
 221 229 l 2,60,61
 209 241 209 241 209 258.5 c 128,-1,31
 209 276 209 276 221 288 c 128,-1,32
EndSplineSet
Validated: 1
EndChar

StartChar: glyph25
Encoding: 25 57369 26
Width: 805
GlyphClass: 1
Flags: W
LayerCount: 2
Fore
SplineSet
420 -75 m 128,-1,1
 369 -75 369 -75 332 -38 c 128,-1,2
 295 -1 295 -1 295 50 c 0,3,4
 295 59 295 59 296 66 c 128,-1,5
 297 73 297 73 300 81 c 128,-1,6
 303 89 303 89 305.5 94 c 128,-1,7
 308 99 308 99 314.5 111.5 c 128,-1,8
 321 124 321 124 326 133 c 1,9,-1
 125 133 l 2,10,11
 73 133 73 133 36.5 169.5 c 128,-1,12
 0 206 0 206 0 258 c 128,-1,13
 0 310 0 310 36.5 346.5 c 128,-1,14
 73 383 73 383 125 383 c 2,15,-1
 326 383 l 1,16,17
 322 392 322 392 315 404.5 c 128,-1,18
 308 417 308 417 305.5 422 c 128,-1,19
 303 427 303 427 300 435.5 c 128,-1,20
 297 444 297 444 296 451 c 128,-1,21
 295 458 295 458 295 467 c 0,22,23
 295 519 295 519 331 555 c 0,24,25
 366 590 366 590 419.5 590 c 128,-1,26
 473 590 473 590 508 555 c 2,27,-1
 805 258 l 1,28,-1
 508 -38 l 2,29,0
 471 -75 471 -75 420 -75 c 128,-1,1
125 300 m 2,30,31
 108 300 108 300 95.5 287.5 c 128,-1,32
 83 275 83 275 83 258 c 128,-1,33
 83 241 83 241 95.5 229 c 128,-1,34
 108 217 108 217 125 217 c 2,35,-1
 527 217 l 1,36,-1
 390 79 l 2,37,38
 378 67 378 67 378 50 c 128,-1,39
 378 33 378 33 390 21 c 128,-1,40
 402 9 402 9 419.5 9 c 128,-1,41
 437 9 437 9 449 21 c 2,42,-1
 687 258 l 1,43,-1
 449 496 l 2,44,45
 437 508 437 508 419.5 508 c 128,-1,46
 402 508 402 508 390 496 c 128,-1,47
 378 484 378 484 378 467 c 0,48,49
 378 449 378 449 390 437 c 2,50,-1
 527 300 l 1,51,-1
 125 300 l 2,30,31
EndSplineSet
Validated: 1
EndChar

StartChar: glyph26
Encoding: 26 57370 27
Width: 704
GlyphClass: 1
Flags: W
LayerCount: 2
Fore
SplineSet
319 526 m 0,0,1
 344 551 344 551 378 551 c 128,-1,2
 412 551 412 551 437 526 c 2,3,-1
 704 258 l 1,4,-1
 437 -9 l 2,5,6
 413 -33 413 -33 378 -33 c 128,-1,7
 343 -33 343 -33 319 -9 c 0,8,9
 294 16 294 16 294 50.5 c 128,-1,10
 294 85 294 85 319 109 c 2,11,-1
 385 175 l 1,12,-1
 83 175 l 2,13,14
 48 175 48 175 24 199.5 c 128,-1,15
 0 224 0 224 0 258 c 0,16,17
 0 293 0 293 24.5 317.5 c 128,-1,18
 49 342 49 342 83 342 c 2,19,-1
 385 342 l 1,20,-1
 319 408 l 2,21,22
 294 433 294 433 294 467.5 c 128,-1,23
 294 502 294 502 319 526 c 0,0,1
EndSplineSet
Validated: 1
EndChar

StartChar: glyph27
Encoding: 27 57371 28
Width: 517
GlyphClass: 1
Flags: W
LayerCount: 2
Fore
SplineSet
262 496 m 128,-1,1
 274 508 274 508 291.5 508 c 128,-1,2
 309 508 309 508 321 496 c 2,3,-1
 517 300 l 1,4,-1
 321 104 l 2,5,6
 309 92 309 92 292 92 c 0,7,8
 274 92 274 92 262 104 c 128,-1,9
 250 116 250 116 250 133.5 c 128,-1,10
 250 151 250 151 262 163 c 2,11,-1
 358 258 l 1,12,-1
 42 258 l 2,13,14
 25 258 25 258 12.5 270.5 c 128,-1,15
 0 283 0 283 0 300 c 128,-1,16
 0 317 0 317 12.5 329.5 c 128,-1,17
 25 342 25 342 42 342 c 2,18,-1
 358 342 l 1,19,-1
 262 437 l 2,20,21
 250 449 250 449 250 466.5 c 128,-1,0
 250 484 250 484 262 496 c 128,-1,1
EndSplineSet
Validated: 1
EndChar

StartChar: glyph28
Encoding: 28 57372 29
Width: 750
GlyphClass: 1
Flags: W
LayerCount: 2
Fore
SplineSet
42 425 m 2,0,1
 25 425 25 425 12.5 437.5 c 128,-1,2
 0 450 0 450 0 467 c 128,-1,3
 0 484 0 484 12.5 496 c 128,-1,4
 25 508 25 508 42 508 c 2,5,-1
 188 508 l 2,6,7
 261 508 261 508 314 453 c 1,8,9
 288 425 288 425 265 383 c 1,10,11
 233 425 233 425 188 425 c 2,12,-1
 42 425 l 2,0,1
362 295 m 2,13,-1
 342 237 l 2,14,15
 316 157 316 157 260 103.5 c 128,-1,16
 204 50 204 50 146 50 c 2,17,-1
 42 50 l 2,18,19
 25 50 25 50 12.5 62.5 c 128,-1,20
 0 75 0 75 0 92 c 128,-1,21
 0 109 0 109 12.5 121 c 128,-1,22
 25 133 25 133 42 133 c 2,23,-1
 146 133 l 2,24,25
 172 133 172 133 208 170 c 128,-1,26
 244 207 244 207 263 263 c 2,27,-1
 283 322 l 2,28,29
 309 401 309 401 376 454.5 c 128,-1,30
 443 508 443 508 514 508 c 2,31,-1
 590 508 l 1,32,-1
 537 562 l 2,33,34
 525 574 525 574 525 591.5 c 128,-1,35
 525 609 525 609 537 621 c 128,-1,36
 549 633 549 633 566.5 633 c 128,-1,37
 584 633 584 633 596 621 c 2,38,-1
 750 467 l 1,39,-1
 596 312 l 2,40,41
 584 300 584 300 566 300 c 0,42,43
 549 300 549 300 537 312 c 128,-1,44
 525 324 525 324 525 341.5 c 128,-1,45
 525 359 525 359 537 371 c 2,46,-1
 590 425 l 1,47,-1
 514 425 l 2,48,49
 471 425 471 425 425 386 c 128,-1,50
 379 347 379 347 362 295 c 2,13,-1
537 246 m 128,-1,52
 549 258 549 258 566.5 258 c 128,-1,53
 584 258 584 258 596 246 c 2,54,-1
 750 92 l 1,55,-1
 596 -63 l 2,56,57
 584 -75 584 -75 566 -75 c 0,58,59
 549 -75 549 -75 537 -63 c 128,-1,60
 525 -51 525 -51 525 -33.5 c 128,-1,61
 525 -16 525 -16 537 -4 c 2,62,-1
 590 50 l 1,63,-1
 493 50 l 2,64,65
 398 50 398 50 336 130 c 1,66,67
 364 172 364 172 381 221 c 1,68,69
 392 182 392 182 423 157.5 c 128,-1,70
 454 133 454 133 493 133 c 2,71,-1
 590 133 l 1,72,-1
 537 187 l 2,73,74
 525 199 525 199 525 216.5 c 128,-1,51
 525 234 525 234 537 246 c 128,-1,52
EndSplineSet
Validated: 1
EndChar

StartChar: glyph29
Encoding: 29 57373 30
Width: 542
GlyphClass: 1
Flags: W
LayerCount: 2
Fore
SplineSet
500 467 m 6,0,1
 517 467 517 467 529.5 454 c 132,-1,2
 542 441 542 441 542 425 c 132,-1,3
 542 409 542 409 529 396 c 6,4,-1
 271 133 l 5,5,-1
 12 396 l 6,6,7
 0 408 0 408 0 425 c 132,-1,8
 0 442 0 442 12.5 454.5 c 132,-1,9
 25 467 25 467 42 467 c 6,10,-1
 500 467 l 6,0,1
EndSplineSet
Validated: 1
EndChar

StartChar: glyph30
Encoding: 30 57374 31
Width: 542
GlyphClass: 1
Flags: W
LayerCount: 2
Fore
SplineSet
42 175 m 2,0,1
 25 175 25 175 12.5 188 c 128,-1,2
 0 201 0 201 0 217 c 0,3,4
 0 234 0 234 12 246 c 2,5,-1
 271 508 l 1,6,-1
 529 246 l 2,7,8
 542 233 542 233 542 217 c 128,-1,9
 542 201 542 201 529.5 188 c 128,-1,10
 517 175 517 175 500 175 c 2,11,-1
 42 175 l 2,0,1
EndSplineSet
Validated: 1
EndChar

StartChar: glyph31
Encoding: 31 57375 32
Width: 792
GlyphClass: 1
Flags: W
LayerCount: 2
Fore
SplineSet
229 675 m 0,0,1
 229 726 229 726 266 763 c 128,-1,2
 303 800 303 800 354 800 c 0,3,4
 406 800 406 800 443 763 c 2,5,-1
 636 570 l 1,6,7
 661 561 661 561 681 541 c 0,8,9
 792 430 792 430 792 280 c 0,10,11
 792 116 792 116 676 0 c 0,12,13
 622 -53 622 -53 558 -82 c 1,14,15
 562 -97 562 -97 562 -117 c 0,16,17
 562 -168 562 -168 525.5 -205 c 128,-1,18
 489 -242 489 -242 438 -242 c 0,19,20
 386 -242 386 -242 349 -205 c 2,21,-1
 154 -10 l 1,22,23
 130 -1 130 -1 111 18 c 0,24,25
 0 129 0 129 0 279 c 0,26,27
 0 443 0 443 116 559 c 0,28,29
 170 613 170 613 234 641 c 1,30,31
 229 659 229 659 229 675 c 0,0,1
411 -32 m 1,32,33
 530 -28 530 -28 617 59 c 0,34,35
 708 150 708 150 708 280 c 0,36,37
 708 396 708 396 622 482 c 0,38,39
 610 494 610 494 593 494 c 0,40,41
 575 494 575 494 563 482 c 128,-1,42
 551 470 551 470 551 452.5 c 128,-1,43
 551 435 551 435 563 423 c 0,44,45
 597 389 597 389 611 356.5 c 128,-1,46
 625 324 625 324 625 280 c 0,47,48
 625 185 625 185 558 118 c 0,49,50
 498 58 498 58 415 52 c 1,51,-1
 467 104 l 2,52,53
 479 116 479 116 479 133.5 c 128,-1,54
 479 151 479 151 467 163 c 128,-1,55
 455 175 455 175 438 175 c 0,56,57
 420 175 420 175 408 163 c 2,58,-1
 254 8 l 1,59,-1
 408 -146 l 2,60,61
 420 -158 420 -158 438 -158 c 0,62,63
 455 -158 455 -158 467 -146 c 128,-1,64
 479 -134 479 -134 479 -116.5 c 128,-1,65
 479 -99 479 -99 467 -87 c 2,66,-1
 411 -32 l 1,32,33
379 591 m 1,67,68
 260 585 260 585 175 500 c 0,69,70
 83 408 83 408 83 279 c 0,71,72
 83 163 83 163 169 77 c 0,73,74
 181 65 181 65 199 65 c 0,75,76
 216 65 216 65 228 77 c 128,-1,77
 240 89 240 89 240 106.5 c 128,-1,78
 240 124 240 124 228 136 c 0,79,80
 194 170 194 170 180.5 202 c 128,-1,81
 167 234 167 234 167 279 c 0,82,83
 167 374 167 374 234 441 c 0,84,85
 295 502 295 502 378 508 c 1,86,-1
 325 454 l 2,87,88
 313 442 313 442 313 425 c 128,-1,89
 313 408 313 408 325 396 c 0,90,91
 338 383 338 383 354 383 c 0,92,93
 371 383 371 383 384 396 c 2,94,-1
 538 550 l 1,95,-1
 384 704 l 2,96,97
 371 717 371 717 354 717 c 0,98,99
 338 717 338 717 325 704 c 0,100,101
 313 692 313 692 313 675 c 128,-1,102
 313 658 313 658 325 646 c 2,103,-1
 379 591 l 1,67,68
354 342 m 0,104,105
 321 342 321 342 297 364.5 c 128,-1,106
 273 387 273 387 271 419 c 1,107,-1
 263 412 l 1,108,109
 208 357 208 357 208 279 c 0,110,111
 208 243 208 243 219 218.5 c 128,-1,112
 230 194 230 194 258 166 c 0,113,114
 288 136 288 136 281 95 c 1,115,-1
 379 192 l 2,116,117
 404 217 404 217 438 217 c 0,118,119
 471 217 471 217 495 194.5 c 128,-1,120
 519 172 519 172 521 140 c 1,121,-1
 528 148 l 1,122,123
 583 203 583 203 583 280 c 0,124,125
 583 316 583 316 572.5 341 c 128,-1,126
 562 366 562 366 534 394 c 128,-1,127
 506 422 506 422 511 464 c 1,128,-1
 413 366 l 2,129,130
 389 342 389 342 354 342 c 0,104,105
EndSplineSet
Validated: 33
EndChar

StartChar: glyph32
Encoding: 32 57376 33
Width: 625
GlyphClass: 1
Flags: W
LayerCount: 2
Fore
SplineSet
625 280 m 0,0,1
 625 151 625 151 533 59 c 0,2,3
 446 -28 446 -28 328 -32 c 1,4,-1
 384 -87 l 2,5,6
 396 -99 396 -99 396 -116.5 c 128,-1,7
 396 -134 396 -134 384 -146 c 128,-1,8
 372 -158 372 -158 354 -158 c 0,9,10
 337 -158 337 -158 325 -146 c 2,11,-1
 170 8 l 1,12,-1
 325 163 l 2,13,14
 337 175 337 175 354.5 175 c 128,-1,15
 372 175 372 175 384 163 c 128,-1,16
 396 151 396 151 396 133.5 c 128,-1,17
 396 116 396 116 384 104 c 2,18,-1
 332 52 l 1,19,20
 415 58 415 58 475 118 c 0,21,22
 542 185 542 185 542 280 c 0,23,24
 542 324 542 324 528 356.5 c 128,-1,25
 514 389 514 389 480 423 c 0,26,27
 468 435 468 435 468 452.5 c 128,-1,28
 468 470 468 470 480 482 c 128,-1,29
 492 494 492 494 509.5 494 c 128,-1,30
 527 494 527 494 539 482 c 0,31,32
 625 396 625 396 625 280 c 0,0,1
83 279 m 0,33,34
 83 235 83 235 97 202.5 c 128,-1,35
 111 170 111 170 145 136 c 0,36,37
 157 124 157 124 157 106.5 c 128,-1,38
 157 89 157 89 145 77 c 128,-1,39
 133 65 133 65 116 65 c 0,40,41
 98 65 98 65 86 77 c 0,42,43
 0 163 0 163 0 279 c 0,44,45
 0 408 0 408 92 500 c 0,46,47
 177 585 177 585 296 591 c 1,48,-1
 241 646 l 2,49,50
 229 658 229 658 229 675 c 128,-1,51
 229 692 229 692 241 704 c 128,-1,52
 253 716 253 716 270.5 716 c 128,-1,53
 288 716 288 716 300 704 c 2,54,-1
 455 550 l 1,55,-1
 300 396 l 2,56,57
 287 383 287 383 271 383 c 0,58,59
 254 383 254 383 241 396 c 0,60,61
 229 408 229 408 229 425 c 128,-1,62
 229 442 229 442 241 454 c 2,63,-1
 294 508 l 1,64,65
 211 502 211 502 150 441 c 0,66,67
 83 374 83 374 83 279 c 0,33,34
EndSplineSet
Validated: 1
EndChar

StartChar: glyph33
Encoding: 33 57377 34
Width: 542
GlyphClass: 1
Flags: W
LayerCount: 2
Fore
SplineSet
42 342 m 2,0,1
 25 342 25 342 12.5 354 c 128,-1,2
 0 366 0 366 0 383 c 128,-1,3
 0 400 0 400 12 412 c 2,4,-1
 271 675 l 1,5,-1
 529 412 l 2,6,7
 542 399 542 399 542 383 c 128,-1,8
 542 367 542 367 529.5 354.5 c 128,-1,9
 517 342 517 342 500 342 c 2,10,-1
 42 342 l 2,0,1
500 258 m 2,11,12
 517 258 517 258 529.5 245.5 c 128,-1,13
 542 233 542 233 542 217 c 128,-1,14
 542 201 542 201 529 188 c 2,15,-1
 271 -75 l 1,16,-1
 12 188 l 2,17,18
 0 200 0 200 0 217 c 0,19,20
 0 233 0 233 12.5 245.5 c 128,-1,21
 25 258 25 258 42 258 c 2,22,-1
 500 258 l 2,11,12
EndSplineSet
Validated: 1
EndChar

StartChar: glyph34
Encoding: 34 57378 35
Width: 667
GlyphClass: 1
Flags: W
LayerCount: 2
Fore
SplineSet
333 -75 m 128,-1,1
 281 -75 281 -75 244.5 -38.5 c 128,-1,2
 208 -2 208 -2 208 50 c 2,3,-1
 208 248 l 1,4,5
 172 216 172 216 121.5 217.5 c 128,-1,6
 71 219 71 219 37 253 c 0,7,8
 0 290 0 290 0 341.5 c 128,-1,9
 0 393 0 393 37 430 c 2,10,-1
 333 727 l 1,11,-1
 630 430 l 2,12,13
 667 393 667 393 667 341.5 c 128,-1,14
 667 290 667 290 630 253 c 0,15,16
 596 219 596 219 545 217.5 c 128,-1,17
 494 216 494 216 458 248 c 1,18,-1
 458 50 l 2,19,20
 458 -2 458 -2 421.5 -38.5 c 128,-1,0
 385 -75 385 -75 333 -75 c 128,-1,1
292 449 m 1,21,-1
 292 50 l 2,22,23
 292 33 292 33 304 20.5 c 128,-1,24
 316 8 316 8 333 8 c 128,-1,25
 350 8 350 8 362.5 20.5 c 128,-1,26
 375 33 375 33 375 50 c 2,27,-1
 375 449 l 1,28,-1
 512 312 l 2,29,30
 524 300 524 300 541.5 300 c 128,-1,31
 559 300 559 300 571 312 c 128,-1,32
 583 324 583 324 583 341.5 c 128,-1,33
 583 359 583 359 571 371 c 2,34,-1
 333 609 l 1,35,-1
 95 371 l 2,36,37
 83 359 83 359 83 341.5 c 128,-1,38
 83 324 83 324 95 312 c 128,-1,39
 107 300 107 300 124.5 300 c 128,-1,40
 142 300 142 300 154 312 c 2,41,-1
 292 449 l 1,21,-1
EndSplineSet
Validated: 33
EndChar

StartChar: glyph35
Encoding: 35 57379 36
Width: 583
GlyphClass: 1
Flags: W
LayerCount: 2
Fore
SplineSet
292 668 m 1,0,-1
 559 401 l 2,1,2
 584 376 584 376 584 342 c 128,-1,3
 584 308 584 308 559 283 c 128,-1,4
 534 258 534 258 500 258 c 128,-1,5
 466 258 466 258 441 283 c 2,6,-1
 375 349 l 1,7,-1
 375 47 l 2,8,9
 375 12 375 12 350.5 -12 c 128,-1,10
 326 -36 326 -36 292 -36 c 0,11,12
 257 -36 257 -36 232.5 -11.5 c 128,-1,13
 208 13 208 13 208 47 c 2,14,-1
 208 349 l 1,15,-1
 142 283 l 2,16,17
 117 258 117 258 83 258 c 128,-1,18
 49 258 49 258 24 283 c 128,-1,19
 -1 308 -1 308 -1 342 c 128,-1,20
 -1 376 -1 376 24 401 c 2,21,-1
 292 668 l 1,0,-1
EndSplineSet
Validated: 1
EndChar

StartChar: glyph36
Encoding: 36 57380 37
Width: 417
GlyphClass: 1
Flags: W
LayerCount: 2
Fore
SplineSet
208 567 m 1,0,-1
 404 371 l 2,1,2
 416 359 416 359 416 341.5 c 128,-1,3
 416 324 416 324 404 312 c 128,-1,4
 392 300 392 300 375 300 c 128,-1,5
 358 300 358 300 346 312 c 2,6,-1
 250 408 l 1,7,-1
 250 92 l 2,8,9
 250 75 250 75 237.5 62.5 c 128,-1,10
 225 50 225 50 208 50 c 128,-1,11
 191 50 191 50 179 62.5 c 128,-1,12
 167 75 167 75 167 92 c 2,13,-1
 167 408 l 1,14,-1
 71 312 l 2,15,16
 59 300 59 300 41.5 300 c 128,-1,17
 24 300 24 300 12 312 c 128,-1,18
 0 324 0 324 0 341.5 c 128,-1,19
 0 359 0 359 12 371 c 2,20,-1
 208 567 l 1,0,-1
EndSplineSet
Validated: 1
EndChar

StartChar: glyph37
Encoding: 37 57381 38
Width: 667
GlyphClass: 1
Flags: W
LayerCount: 2
Fore
SplineSet
333 633 m 128,-1,1
 471 633 471 633 569 535.5 c 128,-1,2
 667 438 667 438 667 300 c 2,3,-1
 667 279 l 2,4,5
 667 227 667 227 630.5 190.5 c 128,-1,6
 594 154 594 154 542 154 c 0,7,8
 480 154 480 154 442 204 c 1,9,10
 397 154 397 154 333 154 c 0,11,12
 273 154 273 154 230.5 197 c 128,-1,13
 188 240 188 240 188 300 c 128,-1,14
 188 360 188 360 230.5 403 c 128,-1,15
 273 446 273 446 333 446 c 0,16,17
 380 446 380 446 419 417 c 1,18,19
 429 446 429 446 458 446 c 0,20,21
 475 446 475 446 487.5 433.5 c 128,-1,22
 500 421 500 421 500 404 c 2,23,-1
 500 279 l 2,24,25
 500 262 500 262 512.5 250 c 128,-1,26
 525 238 525 238 542 238 c 128,-1,27
 559 238 559 238 571 250 c 128,-1,28
 583 262 583 262 583 279 c 2,29,-1
 583 300 l 2,30,31
 583 404 583 404 509.5 477 c 128,-1,32
 436 550 436 550 333 550 c 128,-1,33
 230 550 230 550 156.5 477 c 128,-1,34
 83 404 83 404 83 300 c 128,-1,35
 83 196 83 196 156.5 123 c 128,-1,36
 230 50 230 50 333 50 c 0,37,38
 411 50 411 50 474 93 c 0,39,40
 488 103 488 103 505 99.5 c 128,-1,41
 522 96 522 96 532 82 c 128,-1,42
 542 68 542 68 538.5 51 c 128,-1,43
 535 34 535 34 521 24 c 0,44,45
 438 -33 438 -33 333 -33 c 0,46,47
 195 -33 195 -33 97.5 64.5 c 128,-1,48
 0 162 0 162 0 300 c 128,-1,49
 0 438 0 438 97.5 535.5 c 128,-1,0
 195 633 195 633 333 633 c 128,-1,1
333 238 m 0,50,51
 359 238 359 238 377.5 256.5 c 128,-1,52
 396 275 396 275 396 300 c 128,-1,53
 396 325 396 325 377.5 343.5 c 128,-1,54
 359 362 359 362 333 362 c 0,55,56
 308 362 308 362 289.5 344 c 128,-1,57
 271 326 271 326 271 300 c 128,-1,58
 271 274 271 274 289.5 256 c 128,-1,59
 308 238 308 238 333 238 c 0,50,51
EndSplineSet
Validated: 33
EndChar

StartChar: glyph38
Encoding: 38 57382 39
Width: 794
GlyphClass: 1
Flags: W
LayerCount: 2
Fore
SplineSet
311 282 m 128,-1,1
 302 282 302 282 296.5 288.5 c 128,-1,2
 291 295 291 295 291 302 c 0,3,4
 291 311 291 311 297 317 c 2,5,-1
 486 506 l 2,6,7
 511 531 511 531 544 531 c 0,8,9
 579 531 579 531 604 506 c 0,10,11
 628 482 628 482 628 447 c 128,-1,12
 628 412 628 412 604 388 c 0,13,14
 555 339 555 339 456.5 241 c 128,-1,15
 358 143 358 143 309 94 c 0,16,17
 284 69 284 69 250 69 c 128,-1,18
 216 69 216 69 191 94 c 0,19,20
 167 118 167 118 167 153 c 128,-1,21
 167 188 167 188 191 212 c 2,22,-1
 195 216 l 1,23,24
 166 254 166 254 166 304 c 1,25,-1
 132 271 l 2,26,27
 83 222 83 222 83 153 c 128,-1,28
 83 84 83 84 132 35 c 128,-1,29
 181 -14 181 -14 250 -14 c 128,-1,30
 319 -14 319 -14 368 35 c 2,31,-1
 662 330 l 2,32,33
 711 379 711 379 711 447.5 c 128,-1,34
 711 516 711 516 662 565 c 128,-1,35
 613 614 613 614 544 614 c 0,36,37
 476 614 476 614 427 565 c 2,38,-1
 238 376 l 2,39,40
 207 345 207 345 207 303 c 0,41,42
 207 260 207 260 238 229 c 128,-1,43
 269 198 269 198 311 198 c 0,44,45
 354 198 354 198 385 229 c 2,46,-1
 474 317 l 2,47,48
 498 341 498 341 498 376 c 0,49,50
 498 410 498 410 473 435 c 1,51,-1
 326 288 l 2,52,0
 320 282 320 282 311 282 c 128,-1,1
544 697 m 0,53,54
 648 697 648 697 721 624 c 128,-1,55
 794 551 794 551 794 447 c 0,56,57
 794 344 794 344 721 271 c 2,58,-1
 427 -24 l 2,59,60
 354 -97 354 -97 250 -97 c 128,-1,61
 146 -97 146 -97 73 -24 c 128,-1,62
 0 49 0 49 0 153 c 0,63,64
 0 256 0 256 73 329 c 2,65,-1
 368 624 l 2,66,67
 441 697 441 697 544 697 c 0,53,54
EndSplineSet
Validated: 1
EndChar

StartChar: glyph39
Encoding: 39 57383 40
Width: 628
GlyphClass: 1
Flags: W
LayerCount: 2
Fore
SplineSet
228 157 m 0,0,1
 186 157 186 157 155 187.5 c 128,-1,2
 124 218 124 218 124 261 c 0,3,4
 124 305 124 305 154 335 c 2,5,-1
 343 524 l 2,6,7
 392 573 392 573 461 573 c 128,-1,8
 530 573 530 573 579 524 c 128,-1,9
 628 475 628 475 628 406 c 128,-1,10
 628 337 628 337 579 288 c 2,11,-1
 284 -7 l 2,12,13
 235 -56 235 -56 167 -56 c 0,14,15
 98 -56 98 -56 49 -7 c 128,-1,16
 0 42 0 42 0 111 c 128,-1,17
 0 180 0 180 49 229 c 2,18,-1
 82 262 l 1,19,20
 82 213 82 213 112 174 c 1,21,-1
 108 170 l 2,22,23
 84 146 84 146 84 111 c 128,-1,24
 84 76 84 76 108 52 c 128,-1,25
 132 28 132 28 167 28 c 128,-1,26
 202 28 202 28 226 52 c 0,27,28
 275 101 275 101 373 199.5 c 128,-1,29
 471 298 471 298 520 347 c 0,30,31
 544 371 544 371 544 406 c 128,-1,32
 544 441 544 441 520 465 c 0,33,34
 495 489 495 489 460.5 489 c 128,-1,35
 426 489 426 489 402 465 c 2,36,-1
 213 276 l 2,37,38
 207 270 207 270 207 261 c 128,-1,39
 207 252 207 252 213 246 c 128,-1,40
 219 240 219 240 228 240 c 128,-1,41
 237 240 237 240 243 246 c 2,42,-1
 390 393 l 1,43,44
 415 368 415 368 415 334 c 0,45,46
 415 301 415 301 390 276 c 2,47,-1
 302 187 l 2,48,49
 272 157 272 157 228 157 c 0,0,1
EndSplineSet
Validated: 1
EndChar

StartChar: glyph40
Encoding: 40 57384 41
Width: 874
GlyphClass: 1
Flags: W
LayerCount: 2
Fore
SplineSet
749 -75 m 2,0,-1
 332 -75 l 2,1,2
 287 -75 287 -75 239.5 -51 c 128,-1,3
 192 -27 192 -27 166 10 c 0,4,5
 139 47 139 47 86.5 121 c 128,-1,6
 34 195 34 195 8 232 c 0,7,8
 0 243 0 243 0 258 c 128,-1,9
 0 273 0 273 7 284 c 2,10,-1
 166 506 l 2,11,12
 192 543 192 543 239.5 567.5 c 128,-1,13
 287 592 287 592 332 592 c 2,14,-1
 749 592 l 2,15,16
 801 592 801 592 837.5 555.5 c 128,-1,17
 874 519 874 519 874 467 c 2,18,-1
 874 50 l 2,19,20
 874 -2 874 -2 837.5 -38.5 c 128,-1,21
 801 -75 801 -75 749 -75 c 2,0,-1
92 258 m 1,22,23
 120 220 120 220 169.5 150 c 128,-1,24
 219 80 219 80 234 59 c 0,25,26
 248 39 248 39 278 23.5 c 128,-1,27
 308 8 308 8 332 8 c 2,28,-1
 749 8 l 2,29,30
 766 8 766 8 778 20.5 c 128,-1,31
 790 33 790 33 790 50 c 2,32,-1
 790 467 l 2,33,34
 790 484 790 484 778 496 c 128,-1,35
 766 508 766 508 749 508 c 2,36,-1
 332 508 l 2,37,38
 308 508 308 508 278 493 c 128,-1,39
 248 478 248 478 234 458 c 0,40,41
 210 424 210 424 163 358 c 128,-1,42
 116 292 116 292 92 258 c 1,22,23
528 258 m 1,43,-1
 639 148 l 2,44,45
 649 138 649 138 643 125 c 128,-1,46
 637 112 637 112 624 112 c 0,47,48
 616 112 616 112 609 119 c 2,49,-1
 499 229 l 1,50,-1
 389 119 l 2,51,52
 382 112 382 112 374 112 c 0,53,54
 361 112 361 112 355 125 c 128,-1,55
 349 138 349 138 359 148 c 2,56,-1
 469 258 l 1,57,-1
 359 369 l 2,58,59
 350 378 350 378 354 389 c 128,-1,60
 358 400 358 400 368.5 403 c 128,-1,61
 379 406 379 406 389 398 c 2,62,-1
 499 288 l 1,63,-1
 609 398 l 2,64,65
 623 412 623 412 637.5 397.5 c 128,-1,66
 652 383 652 383 638 369 c 2,67,-1
 528 258 l 1,43,-1
EndSplineSet
Validated: 1
EndChar

StartChar: glyph41
Encoding: 41 57385 42
Width: 832
GlyphClass: 1
Flags: W
LayerCount: 2
Fore
SplineSet
728 592 m 2,0,1
 771 592 771 592 801.5 561.5 c 128,-1,2
 832 531 832 531 832 488 c 2,3,-1
 832 71 l 2,4,5
 832 28 832 28 801.5 -2.5 c 128,-1,6
 771 -33 771 -33 728 -33 c 2,7,-1
 311 -33 l 2,8,9
 271 -33 271 -33 228.5 -11 c 128,-1,10
 186 11 186 11 163 43 c 2,11,-1
 4 265 l 2,12,13
 -6 279 -6 279 4 293 c 0,14,15
 31 330 31 330 83.5 404 c 128,-1,16
 136 478 136 478 162 515 c 0,17,18
 185 547 185 547 228 569.5 c 128,-1,19
 271 592 271 592 311 592 c 2,20,-1
 728 592 l 2,0,1
632 184 m 2,21,-1
 537 279 l 1,22,-1
 632 375 l 2,23,24
 644 387 644 387 644 404.5 c 128,-1,25
 644 422 644 422 632 434 c 128,-1,26
 620 446 620 446 602.5 446 c 128,-1,27
 585 446 585 446 573 434 c 2,28,-1
 478 338 l 1,29,-1
 382 434 l 2,30,31
 370 446 370 446 352.5 446 c 128,-1,32
 335 446 335 446 323 434 c 128,-1,33
 311 422 311 422 311 404.5 c 128,-1,34
 311 387 311 387 323 375 c 2,35,-1
 419 279 l 1,36,-1
 323 184 l 2,37,38
 311 172 311 172 311 154.5 c 128,-1,39
 311 137 311 137 323 125 c 0,40,41
 336 112 336 112 353 112 c 0,42,43
 369 112 369 112 382 125 c 2,44,-1
 478 220 l 1,45,-1
 573 125 l 2,46,47
 586 112 586 112 603 112 c 0,48,49
 619 112 619 112 632 125 c 0,50,51
 644 137 644 137 644 154.5 c 128,-1,52
 644 172 644 172 632 184 c 2,21,-1
EndSplineSet
Validated: 1
EndChar

StartChar: glyph42
Encoding: 42 57386 43
Width: 792
GlyphClass: 1
Flags: W
LayerCount: 2
Fore
SplineSet
125 383 m 1,0,-1
 583 383 l 1,1,-1
 583 133 l 1,2,-1
 125 133 l 1,3,-1
 125 383 l 1,0,-1
368 179 m 1,4,-1
 500 276 l 1,5,-1
 392 258 l 1,6,-1
 343 337 l 1,7,-1
 208 240 l 1,8,-1
 318 258 l 1,9,-1
 368 179 l 1,4,-1
708 383 m 1,10,11
 743 383 743 383 767.5 358.5 c 128,-1,12
 792 334 792 334 792 300 c 2,13,-1
 792 217 l 2,14,15
 792 182 792 182 767 157.5 c 128,-1,16
 742 133 742 133 708 133 c 1,17,18
 708 81 708 81 671.5 44.5 c 128,-1,19
 635 8 635 8 583 8 c 2,20,-1
 125 8 l 2,21,22
 73 8 73 8 36.5 44.5 c 128,-1,23
 0 81 0 81 0 133 c 2,24,-1
 0 383 l 2,25,26
 0 435 0 435 36.5 471.5 c 128,-1,27
 73 508 73 508 125 508 c 2,28,-1
 583 508 l 2,29,30
 635 508 635 508 671.5 471.5 c 128,-1,31
 708 435 708 435 708 383 c 1,10,11
625 133 m 2,32,-1
 625 383 l 2,33,34
 625 400 625 400 612.5 412.5 c 128,-1,35
 600 425 600 425 583 425 c 2,36,-1
 125 425 l 2,37,38
 108 425 108 425 95.5 412.5 c 128,-1,39
 83 400 83 400 83 383 c 2,40,-1
 83 133 l 2,41,42
 83 116 83 116 95.5 104 c 128,-1,43
 108 92 108 92 125 92 c 2,44,-1
 583 92 l 2,45,46
 600 92 600 92 612.5 104 c 128,-1,47
 625 116 625 116 625 133 c 2,32,-1
EndSplineSet
Validated: 1
EndChar

StartChar: glyph43
Encoding: 43 57387 44
Width: 792
GlyphClass: 1
Flags: W
LayerCount: 2
Fore
SplineSet
292 133 m 128,-1,1
 275 133 275 133 262.5 145.5 c 128,-1,2
 250 158 250 158 250 175 c 2,3,-1
 250 342 l 2,4,5
 250 359 250 359 262.5 371 c 128,-1,6
 275 383 275 383 292 383 c 128,-1,7
 309 383 309 383 321 371 c 128,-1,8
 333 359 333 359 333 342 c 2,9,-1
 333 175 l 2,10,11
 333 158 333 158 321 145.5 c 128,-1,0
 309 133 309 133 292 133 c 128,-1,1
167 133 m 128,-1,13
 150 133 150 133 137.5 145.5 c 128,-1,14
 125 158 125 158 125 175 c 2,15,-1
 125 342 l 2,16,17
 125 359 125 359 137.5 371 c 128,-1,18
 150 383 150 383 167 383 c 128,-1,19
 184 383 184 383 196 371 c 128,-1,20
 208 359 208 359 208 342 c 2,21,-1
 208 175 l 2,22,23
 208 158 208 158 196 145.5 c 128,-1,12
 184 133 184 133 167 133 c 128,-1,13
542 133 m 128,-1,25
 525 133 525 133 512.5 145.5 c 128,-1,26
 500 158 500 158 500 175 c 2,27,-1
 500 342 l 2,28,29
 500 359 500 359 512.5 371 c 128,-1,30
 525 383 525 383 542 383 c 128,-1,31
 559 383 559 383 571 371 c 128,-1,32
 583 359 583 359 583 342 c 2,33,-1
 583 175 l 2,34,35
 583 158 583 158 571 145.5 c 128,-1,24
 559 133 559 133 542 133 c 128,-1,25
417 133 m 128,-1,37
 400 133 400 133 387.5 145.5 c 128,-1,38
 375 158 375 158 375 175 c 2,39,-1
 375 342 l 2,40,41
 375 359 375 359 387.5 371 c 128,-1,42
 400 383 400 383 417 383 c 128,-1,43
 434 383 434 383 446 371 c 128,-1,44
 458 359 458 359 458 342 c 2,45,-1
 458 175 l 2,46,47
 458 158 458 158 446 145.5 c 128,-1,36
 434 133 434 133 417 133 c 128,-1,37
708 383 m 1,48,49
 743 383 743 383 767.5 358.5 c 128,-1,50
 792 334 792 334 792 300 c 2,51,-1
 792 217 l 2,52,53
 792 182 792 182 767 157.5 c 128,-1,54
 742 133 742 133 708 133 c 1,55,56
 708 81 708 81 671.5 44.5 c 128,-1,57
 635 8 635 8 583 8 c 2,58,-1
 125 8 l 2,59,60
 73 8 73 8 36.5 44.5 c 128,-1,61
 0 81 0 81 0 133 c 2,62,-1
 0 383 l 2,63,64
 0 435 0 435 36.5 471.5 c 128,-1,65
 73 508 73 508 125 508 c 2,66,-1
 583 508 l 2,67,68
 635 508 635 508 671.5 471.5 c 128,-1,69
 708 435 708 435 708 383 c 1,48,49
625 133 m 2,70,-1
 625 383 l 2,71,72
 625 400 625 400 612.5 412.5 c 128,-1,73
 600 425 600 425 583 425 c 2,74,-1
 125 425 l 2,75,76
 108 425 108 425 95.5 412.5 c 128,-1,77
 83 400 83 400 83 383 c 2,78,-1
 83 133 l 2,79,80
 83 116 83 116 95.5 104 c 128,-1,81
 108 92 108 92 125 92 c 2,82,-1
 583 92 l 2,83,84
 600 92 600 92 612.5 104 c 128,-1,85
 625 116 625 116 625 133 c 2,70,-1
EndSplineSet
Validated: 1
EndChar

StartChar: glyph44
Encoding: 44 57388 45
Width: 792
GlyphClass: 1
Flags: W
LayerCount: 2
Fore
SplineSet
292 133 m 128,-1,1
 275 133 275 133 262.5 145.5 c 128,-1,2
 250 158 250 158 250 175 c 2,3,-1
 250 342 l 2,4,5
 250 359 250 359 262.5 371 c 128,-1,6
 275 383 275 383 292 383 c 128,-1,7
 309 383 309 383 321 371 c 128,-1,8
 333 359 333 359 333 342 c 2,9,-1
 333 175 l 2,10,11
 333 158 333 158 321 145.5 c 128,-1,0
 309 133 309 133 292 133 c 128,-1,1
167 133 m 128,-1,13
 150 133 150 133 137.5 145.5 c 128,-1,14
 125 158 125 158 125 175 c 2,15,-1
 125 342 l 2,16,17
 125 359 125 359 137.5 371 c 128,-1,18
 150 383 150 383 167 383 c 128,-1,19
 184 383 184 383 196 371 c 128,-1,20
 208 359 208 359 208 342 c 2,21,-1
 208 175 l 2,22,23
 208 158 208 158 196 145.5 c 128,-1,12
 184 133 184 133 167 133 c 128,-1,13
417 133 m 128,-1,25
 400 133 400 133 387.5 145.5 c 128,-1,26
 375 158 375 158 375 175 c 2,27,-1
 375 342 l 2,28,29
 375 359 375 359 387.5 371 c 128,-1,30
 400 383 400 383 417 383 c 128,-1,31
 434 383 434 383 446 371 c 128,-1,32
 458 359 458 359 458 342 c 2,33,-1
 458 175 l 2,34,35
 458 158 458 158 446 145.5 c 128,-1,24
 434 133 434 133 417 133 c 128,-1,25
708 383 m 1,36,37
 743 383 743 383 767.5 358.5 c 128,-1,38
 792 334 792 334 792 300 c 2,39,-1
 792 217 l 2,40,41
 792 182 792 182 767 157.5 c 128,-1,42
 742 133 742 133 708 133 c 1,43,44
 708 81 708 81 671.5 44.5 c 128,-1,45
 635 8 635 8 583 8 c 2,46,-1
 125 8 l 2,47,48
 73 8 73 8 36.5 44.5 c 128,-1,49
 0 81 0 81 0 133 c 2,50,-1
 0 383 l 2,51,52
 0 435 0 435 36.5 471.5 c 128,-1,53
 73 508 73 508 125 508 c 2,54,-1
 583 508 l 2,55,56
 635 508 635 508 671.5 471.5 c 128,-1,57
 708 435 708 435 708 383 c 1,36,37
625 133 m 2,58,-1
 625 383 l 2,59,60
 625 400 625 400 612.5 412.5 c 128,-1,61
 600 425 600 425 583 425 c 2,62,-1
 125 425 l 2,63,64
 108 425 108 425 95.5 412.5 c 128,-1,65
 83 400 83 400 83 383 c 2,66,-1
 83 133 l 2,67,68
 83 116 83 116 95.5 104 c 128,-1,69
 108 92 108 92 125 92 c 2,70,-1
 583 92 l 2,71,72
 600 92 600 92 612.5 104 c 128,-1,73
 625 116 625 116 625 133 c 2,58,-1
EndSplineSet
Validated: 1
EndChar

StartChar: glyph45
Encoding: 45 57389 46
Width: 792
GlyphClass: 1
Flags: W
LayerCount: 2
Fore
SplineSet
167 133 m 128,-1,1
 150 133 150 133 137.5 145.5 c 128,-1,2
 125 158 125 158 125 175 c 2,3,-1
 125 342 l 2,4,5
 125 359 125 359 137.5 371 c 128,-1,6
 150 383 150 383 167 383 c 128,-1,7
 184 383 184 383 196 371 c 128,-1,8
 208 359 208 359 208 342 c 2,9,-1
 208 175 l 2,10,11
 208 158 208 158 196 145.5 c 128,-1,0
 184 133 184 133 167 133 c 128,-1,1
708 383 m 1,12,13
 743 383 743 383 767.5 358.5 c 128,-1,14
 792 334 792 334 792 300 c 2,15,-1
 792 217 l 2,16,17
 792 182 792 182 767 157.5 c 128,-1,18
 742 133 742 133 708 133 c 1,19,20
 708 81 708 81 671.5 44.5 c 128,-1,21
 635 8 635 8 583 8 c 2,22,-1
 125 8 l 2,23,24
 73 8 73 8 36.5 44.5 c 128,-1,25
 0 81 0 81 0 133 c 2,26,-1
 0 383 l 2,27,28
 0 435 0 435 36.5 471.5 c 128,-1,29
 73 508 73 508 125 508 c 2,30,-1
 583 508 l 2,31,32
 635 508 635 508 671.5 471.5 c 128,-1,33
 708 435 708 435 708 383 c 1,12,13
625 133 m 2,34,-1
 625 383 l 2,35,36
 625 400 625 400 612.5 412.5 c 128,-1,37
 600 425 600 425 583 425 c 2,38,-1
 125 425 l 2,39,40
 108 425 108 425 95.5 412.5 c 128,-1,41
 83 400 83 400 83 383 c 2,42,-1
 83 133 l 2,43,44
 83 116 83 116 95.5 104 c 128,-1,45
 108 92 108 92 125 92 c 2,46,-1
 583 92 l 2,47,48
 600 92 600 92 612.5 104 c 128,-1,49
 625 116 625 116 625 133 c 2,34,-1
EndSplineSet
Validated: 1
EndChar

StartChar: glyph46
Encoding: 46 57390 47
Width: 792
GlyphClass: 1
Flags: W
LayerCount: 2
Fore
SplineSet
292 133 m 128,-1,1
 275 133 275 133 262.5 145.5 c 128,-1,2
 250 158 250 158 250 175 c 2,3,-1
 250 342 l 2,4,5
 250 359 250 359 262.5 371 c 128,-1,6
 275 383 275 383 292 383 c 128,-1,7
 309 383 309 383 321 371 c 128,-1,8
 333 359 333 359 333 342 c 2,9,-1
 333 175 l 2,10,11
 333 158 333 158 321 145.5 c 128,-1,0
 309 133 309 133 292 133 c 128,-1,1
167 133 m 128,-1,13
 150 133 150 133 137.5 145.5 c 128,-1,14
 125 158 125 158 125 175 c 2,15,-1
 125 342 l 2,16,17
 125 359 125 359 137.5 371 c 128,-1,18
 150 383 150 383 167 383 c 128,-1,19
 184 383 184 383 196 371 c 128,-1,20
 208 359 208 359 208 342 c 2,21,-1
 208 175 l 2,22,23
 208 158 208 158 196 145.5 c 128,-1,12
 184 133 184 133 167 133 c 128,-1,13
708 383 m 1,24,25
 743 383 743 383 767.5 358.5 c 128,-1,26
 792 334 792 334 792 300 c 2,27,-1
 792 217 l 2,28,29
 792 182 792 182 767 157.5 c 128,-1,30
 742 133 742 133 708 133 c 1,31,32
 708 81 708 81 671.5 44.5 c 128,-1,33
 635 8 635 8 583 8 c 2,34,-1
 125 8 l 2,35,36
 73 8 73 8 36.5 44.5 c 128,-1,37
 0 81 0 81 0 133 c 2,38,-1
 0 383 l 2,39,40
 0 435 0 435 36.5 471.5 c 128,-1,41
 73 508 73 508 125 508 c 2,42,-1
 583 508 l 2,43,44
 635 508 635 508 671.5 471.5 c 128,-1,45
 708 435 708 435 708 383 c 1,24,25
625 133 m 2,46,-1
 625 383 l 2,47,48
 625 400 625 400 612.5 412.5 c 128,-1,49
 600 425 600 425 583 425 c 2,50,-1
 125 425 l 2,51,52
 108 425 108 425 95.5 412.5 c 128,-1,53
 83 400 83 400 83 383 c 2,54,-1
 83 133 l 2,55,56
 83 116 83 116 95.5 104 c 128,-1,57
 108 92 108 92 125 92 c 2,58,-1
 583 92 l 2,59,60
 600 92 600 92 612.5 104 c 128,-1,61
 625 116 625 116 625 133 c 2,46,-1
EndSplineSet
Validated: 1
EndChar

StartChar: glyph47
Encoding: 47 57391 48
Width: 629
GlyphClass: 1
Flags: W
LayerCount: 2
Fore
SplineSet
625 100 m 2,0,1
 640 46 640 46 608 6.5 c 128,-1,2
 576 -33 576 -33 523 -33 c 2,3,-1
 106 -33 l 2,4,5
 53 -33 53 -33 21 6.5 c 128,-1,6
 -11 46 -11 46 4 100 c 2,7,-1
 107 480 l 2,8,9
 109 488 109 488 112 508 c 1,10,-1
 64 508 l 2,11,12
 47 508 47 508 35 520.5 c 128,-1,13
 23 533 23 533 23 550 c 128,-1,14
 23 567 23 567 35 579.5 c 128,-1,15
 47 592 47 592 64 592 c 2,16,-1
 564 592 l 2,17,18
 581 592 581 592 593.5 579.5 c 128,-1,19
 606 567 606 567 606 550 c 128,-1,20
 606 533 606 533 593.5 520.5 c 128,-1,21
 581 508 581 508 564 508 c 2,22,-1
 515 508 l 1,23,-1
 625 100 l 2,0,1
428 508 m 1,24,-1
 195 508 l 1,25,26
 194 480 194 480 187 459 c 2,27,-1
 144 299 l 1,28,-1
 148 300 l 1,29,-1
 481 300 l 1,30,-1
 485 299 l 1,31,-1
 428 508 l 1,24,-1
523 50 m 2,32,33
 551 50 551 50 544 78 c 2,34,-1
 494 263 l 1,35,36
 487 258 487 258 481 258 c 2,37,-1
 148 258 l 2,38,39
 141 258 141 258 134 263 c 1,40,-1
 85 78 l 2,41,42
 78 50 78 50 106 50 c 2,43,-1
 523 50 l 2,32,33
EndSplineSet
Validated: 33
EndChar

StartChar: glyph48
Encoding: 48 57392 49
Width: 708
GlyphClass: 1
Flags: W
LayerCount: 2
Fore
SplineSet
208 112 m 2,0,1
 208 104 208 104 202 98 c 128,-1,2
 196 92 196 92 188 92 c 128,-1,3
 180 92 180 92 173.5 98 c 128,-1,4
 167 104 167 104 167 112 c 2,5,-1
 167 362 l 2,6,7
 167 370 167 370 173.5 376.5 c 128,-1,8
 180 383 180 383 188 383 c 128,-1,9
 196 383 196 383 202 376.5 c 128,-1,10
 208 370 208 370 208 362 c 2,11,-1
 208 112 l 2,0,1
292 112 m 2,12,13
 292 104 292 104 285.5 98 c 128,-1,14
 279 92 279 92 271 92 c 128,-1,15
 263 92 263 92 256.5 98 c 128,-1,16
 250 104 250 104 250 112 c 2,17,-1
 250 362 l 2,18,19
 250 370 250 370 256.5 376.5 c 128,-1,20
 263 383 263 383 271 383 c 128,-1,21
 279 383 279 383 285.5 376.5 c 128,-1,22
 292 370 292 370 292 362 c 2,23,-1
 292 112 l 2,12,13
375 112 m 2,24,25
 375 104 375 104 368.5 98 c 128,-1,26
 362 92 362 92 354 92 c 128,-1,27
 346 92 346 92 339.5 98 c 128,-1,28
 333 104 333 104 333 112 c 2,29,-1
 333 362 l 2,30,31
 333 370 333 370 339.5 376.5 c 128,-1,32
 346 383 346 383 354 383 c 128,-1,33
 362 383 362 383 368.5 376.5 c 128,-1,34
 375 370 375 370 375 362 c 2,35,-1
 375 112 l 2,24,25
562 550 m 2,36,37
 622 550 622 550 665 507 c 128,-1,38
 708 464 708 464 708 404 c 2,39,-1
 708 196 l 2,40,41
 708 136 708 136 665 93 c 128,-1,42
 622 50 622 50 562 50 c 2,43,-1
 542 50 l 1,44,45
 542 -2 542 -2 505.5 -38.5 c 128,-1,46
 469 -75 469 -75 417 -75 c 2,47,-1
 125 -75 l 2,48,49
 73 -75 73 -75 36.5 -38.5 c 128,-1,50
 0 -2 0 -2 0 50 c 2,51,-1
 0 592 l 2,52,53
 0 626 0 626 24 650.5 c 128,-1,54
 48 675 48 675 83 675 c 2,55,-1
 458 675 l 2,56,57
 493 675 493 675 517.5 650.5 c 128,-1,58
 542 626 542 626 542 592 c 2,59,-1
 542 550 l 1,60,-1
 562 550 l 2,36,37
83 592 m 1,61,-1
 83 529 l 2,62,63
 83 504 83 504 101.5 485.5 c 128,-1,64
 120 467 120 467 146 467 c 0,65,66
 182 467 182 467 200 499 c 2,67,-1
 207 512 l 1,68,-1
 222 509 l 2,69,70
 236 507 236 507 249.5 514.5 c 128,-1,71
 263 522 263 522 268 536 c 2,72,-1
 273 550 l 1,73,-1
 458 550 l 1,74,-1
 458 592 l 1,75,-1
 83 592 l 1,61,-1
458 50 m 2,76,-1
 458 508 l 1,77,-1
 301 508 l 1,78,79
 276 467 276 467 229 467 c 1,80,81
 197 425 197 425 146 425 c 0,82,83
 110 425 110 425 83 446 c 1,84,-1
 83 50 l 2,85,86
 83 33 83 33 95.5 20.5 c 128,-1,87
 108 8 108 8 125 8 c 2,88,-1
 417 8 l 2,89,90
 434 8 434 8 446 20.5 c 128,-1,91
 458 33 458 33 458 50 c 2,76,-1
625 196 m 2,92,-1
 625 404 l 2,93,94
 625 430 625 430 606.5 448.5 c 128,-1,95
 588 467 588 467 562 467 c 2,96,-1
 500 467 l 1,97,-1
 500 133 l 1,98,-1
 562 133 l 2,99,100
 588 133 588 133 606.5 151.5 c 128,-1,101
 625 170 625 170 625 196 c 2,92,-1
EndSplineSet
Validated: 1
EndChar

StartChar: glyph49
Encoding: 49 57393 50
Width: 666
GlyphClass: 1
Flags: W
LayerCount: 2
Fore
SplineSet
655 79 m 0,0,1
 674 58 674 58 662.5 33 c 128,-1,2
 651 8 651 8 625 8 c 2,3,-1
 494 8 l 1,4,5
 480 -47 480 -47 435 -82 c 128,-1,6
 390 -117 390 -117 333 -117 c 128,-1,7
 276 -117 276 -117 231.5 -82 c 128,-1,8
 187 -47 187 -47 173 8 c 1,9,-1
 42 8 l 2,10,11
 16 8 16 8 4 34 c 128,-1,12
 -8 60 -8 60 12 80 c 0,13,14
 15 83 15 83 20 89.5 c 128,-1,15
 25 96 25 96 37 119 c 128,-1,16
 49 142 49 142 58.5 169.5 c 128,-1,17
 68 197 68 197 76 243.5 c 128,-1,18
 84 290 84 290 84 342 c 0,19,20
 84 423 84 423 130.5 487.5 c 128,-1,21
 177 552 177 552 251 578 c 1,22,-1
 250 592 l 2,23,24
 250 626 250 626 274 650.5 c 128,-1,25
 298 675 298 675 333 675 c 128,-1,26
 368 675 368 675 392.5 650.5 c 128,-1,27
 417 626 417 626 417 592 c 1,28,-1
 415 578 l 1,29,30
 489 552 489 552 536 487.5 c 128,-1,31
 583 423 583 423 583 342 c 0,32,33
 583 290 583 290 591 243.5 c 128,-1,34
 599 197 599 197 608.5 169 c 128,-1,35
 618 141 618 141 630 118.5 c 128,-1,36
 642 96 642 96 647 89 c 128,-1,37
 652 82 652 82 655 79 c 0,0,1
333 508 m 0,38,39
 264 508 264 508 215.5 459.5 c 128,-1,40
 167 411 167 411 167 342 c 0,41,42
 167 293 167 293 163 258 c 1,43,-1
 504 258 l 1,44,45
 499 301 499 301 499 342 c 0,46,47
 499 411 499 411 450 459.5 c 128,-1,48
 401 508 401 508 333 508 c 0,38,39
333 -33 m 0,49,50
 382 -33 382 -33 405 8 c 1,51,-1
 262 8 l 1,52,53
 285 -33 285 -33 333 -33 c 0,49,50
117 92 m 1,54,-1
 550 92 l 1,55,56
 525 144 525 144 511 217 c 1,57,-1
 156 217 l 1,58,59
 142 144 142 144 117 92 c 1,54,-1
EndSplineSet
Validated: 33
EndChar

StartChar: glyph50
Encoding: 50 57394 51
Width: 750
GlyphClass: 1
Flags: W
LayerCount: 2
Fore
SplineSet
625 675 m 2,0,1
 677 675 677 675 713.5 638.5 c 128,-1,2
 750 602 750 602 750 550 c 2,3,-1
 750 133 l 2,4,5
 750 81 750 81 720 44.5 c 128,-1,6
 690 8 690 8 646 8 c 2,7,-1
 618 8 l 1,8,9
 605 -28 605 -28 572.5 -51.5 c 128,-1,10
 540 -75 540 -75 500 -75 c 2,11,-1
 125 -75 l 2,12,13
 73 -75 73 -75 36.5 -38.5 c 128,-1,14
 0 -2 0 -2 0 50 c 2,15,-1
 0 508 l 2,16,17
 0 524 0 524 12 538 c 2,18,-1
 137 663 l 2,19,20
 149 675 149 675 167 675 c 2,21,-1
 625 675 l 2,0,1
125 8 m 2,22,-1
 167 8 l 1,23,-1
 167 467 l 1,24,-1
 83 467 l 1,25,-1
 83 50 l 2,26,27
 83 33 83 33 95.5 20.5 c 128,-1,28
 108 8 108 8 125 8 c 2,22,-1
542 50 m 2,29,-1
 542 425 l 2,30,31
 542 442 542 442 529.5 454.5 c 128,-1,32
 517 467 517 467 500 467 c 2,33,-1
 208 467 l 1,34,-1
 208 8 l 1,35,-1
 500 8 l 2,36,37
 517 8 517 8 529.5 20.5 c 128,-1,38
 542 33 542 33 542 50 c 2,29,-1
667 133 m 2,39,-1
 667 550 l 2,40,41
 667 567 667 567 654.5 579.5 c 128,-1,42
 642 592 642 592 625 592 c 2,43,-1
 184 592 l 1,44,-1
 142 550 l 1,45,-1
 500 550 l 2,46,47
 552 550 552 550 588.5 513.5 c 128,-1,48
 625 477 625 477 625 425 c 2,49,-1
 625 92 l 1,50,-1
 646 92 l 2,51,52
 652 92 652 92 659.5 103.5 c 128,-1,53
 667 115 667 115 667 133 c 2,39,-1
EndSplineSet
Validated: 1
EndChar

StartChar: glyph51
Encoding: 51 57395 52
Width: 583
GlyphClass: 1
Flags: W
LayerCount: 2
Fore
SplineSet
458 717 m 2,0,1
 510 717 510 717 546.5 680.5 c 128,-1,2
 583 644 583 644 583 592 c 2,3,-1
 583 8 l 2,4,5
 583 -33 583 -33 563.5 -54.5 c 128,-1,6
 544 -76 544 -76 517 -76 c 0,7,8
 483 -76 483 -76 453 -46 c 2,9,-1
 321 87 l 2,10,11
 309 99 309 99 291.5 99 c 128,-1,12
 274 99 274 99 262 87 c 2,13,-1
 130 -46 l 2,14,15
 98 -77 98 -77 64.5 -76 c 128,-1,16
 31 -75 31 -75 13 -45 c 0,17,18
 0 -22 0 -22 0 8 c 2,19,-1
 0 592 l 2,20,21
 0 644 0 644 36.5 680.5 c 128,-1,22
 73 717 73 717 125 717 c 2,23,-1
 458 717 l 2,0,1
125 633 m 2,24,25
 108 633 108 633 95.5 621 c 128,-1,26
 83 609 83 609 83 592 c 2,27,-1
 83 179 l 1,28,-1
 185 273 l 2,29,30
 229 314 229 314 291.5 314 c 128,-1,31
 354 314 354 314 398 273 c 2,32,-1
 500 179 l 1,33,-1
 500 592 l 2,34,35
 500 609 500 609 487.5 621 c 128,-1,36
 475 633 475 633 458 633 c 2,37,-1
 125 633 l 2,24,25
380 146 m 2,38,-1
 500 26 l 1,39,-1
 500 122 l 1,40,-1
 370 242 l 2,41,42
 338 271 338 271 292 271 c 128,-1,43
 246 271 246 271 214 242 c 2,44,-1
 83 122 l 1,45,-1
 83 26 l 1,46,-1
 203 146 l 2,47,48
 239 182 239 182 292 182 c 0,49,50
 344 182 344 182 380 146 c 2,38,-1
EndSplineSet
Validated: 33
EndChar

StartChar: glyph52
Encoding: 52 57396 53
Width: 750
GlyphClass: 1
Flags: W
LayerCount: 2
Fore
SplineSet
625 508 m 1,0,1
 677 508 677 508 713.5 471.5 c 128,-1,2
 750 435 750 435 750 383 c 2,3,-1
 750 92 l 2,4,5
 750 40 750 40 713.5 3.5 c 128,-1,6
 677 -33 677 -33 625 -33 c 2,7,-1
 125 -33 l 2,8,9
 73 -33 73 -33 36.5 3.5 c 128,-1,10
 0 40 0 40 0 92 c 2,11,-1
 0 383 l 2,12,13
 0 435 0 435 36.5 471.5 c 128,-1,14
 73 508 73 508 125 508 c 1,15,16
 125 560 125 560 161.5 596.5 c 128,-1,17
 198 633 198 633 250 633 c 2,18,-1
 500 633 l 2,19,20
 552 633 552 633 588.5 596.5 c 128,-1,21
 625 560 625 560 625 508 c 1,0,1
250 550 m 2,22,23
 233 550 233 550 220.5 537.5 c 128,-1,24
 208 525 208 525 208 508 c 1,25,-1
 542 508 l 1,26,27
 542 525 542 525 529.5 537.5 c 128,-1,28
 517 550 517 550 500 550 c 2,29,-1
 250 550 l 2,22,23
667 92 m 2,30,-1
 667 133 l 1,31,-1
 83 133 l 1,32,-1
 83 92 l 2,33,34
 83 75 83 75 95.5 62.5 c 128,-1,35
 108 50 108 50 125 50 c 2,36,-1
 625 50 l 2,37,38
 642 50 642 50 654.5 62.5 c 128,-1,39
 667 75 667 75 667 92 c 2,30,-1
83 175 m 1,40,-1
 667 175 l 1,41,-1
 667 383 l 2,42,43
 667 400 667 400 654.5 412.5 c 128,-1,44
 642 425 642 425 625 425 c 2,45,-1
 125 425 l 2,46,47
 108 425 108 425 95.5 412.5 c 128,-1,48
 83 400 83 400 83 383 c 2,49,-1
 83 175 l 1,40,-1
417 300 m 2,50,51
 434 300 434 300 446 287.5 c 128,-1,52
 458 275 458 275 458 258 c 128,-1,53
 458 241 458 241 446 229 c 128,-1,54
 434 217 434 217 417 217 c 2,55,-1
 333 217 l 2,56,57
 316 217 316 217 304 229 c 128,-1,58
 292 241 292 241 292 258 c 128,-1,59
 292 275 292 275 304 287.5 c 128,-1,60
 316 300 316 300 333 300 c 2,61,-1
 417 300 l 2,50,51
EndSplineSet
Validated: 1
EndChar

StartChar: glyph53
Encoding: 53 57397 54
Width: 752
GlyphClass: 1
Flags: W
LayerCount: 2
Fore
SplineSet
727 641 m 0,0,1
 766 602 766 602 746 551 c 0,2,3
 638 280 638 280 356 113 c 0,4,5
 343 105 343 105 333 103 c 1,6,7
 320 20 320 20 257.5 -33.5 c 128,-1,8
 195 -87 195 -87 110 -87 c 0,9,10
 91 -87 91 -87 73 -84 c 2,11,-1
 12 -75 l 1,12,-1
 3 -14 l 2,13,14
 -13 87 -13 87 47 164 c 0,15,16
 101 233 101 233 191 247 c 1,17,18
 195 261 195 261 199 269 c 0,19,20
 366 551 366 551 637 659 c 0,21,22
 652 665 652 665 668 665 c 0,23,24
 703 665 703 665 727 641 c 0,0,1
110 -3 m 0,25,26
 167 -3 167 -3 207 32.5 c 128,-1,27
 247 68 247 68 253 123 c 1,28,-1
 210 166 l 1,29,30
 148 159 148 159 111.5 111 c 128,-1,31
 75 63 75 63 85 -2 c 1,32,33
 93 -3 93 -3 110 -3 c 0,25,26
314 184 m 1,34,35
 344 201 344 201 388 233 c 1,36,37
 321 300 321 300 320 302 c 1,38,39
 292 263 292 263 271 227 c 1,40,-1
 314 184 l 1,34,35
422 258 m 1,41,42
 592 390 592 390 669 582 c 1,43,44
 475 505 475 505 344 334 c 1,45,-1
 422 258 l 1,41,42
EndSplineSet
Validated: 33
EndChar

StartChar: glyph54
Encoding: 54 57398 55
Width: 917
GlyphClass: 1
Flags: W
LayerCount: 2
Fore
SplineSet
792 -33 m 2,0,-1
 125 -33 l 2,1,2
 73 -33 73 -33 36.5 3.5 c 128,-1,3
 0 40 0 40 0 92 c 2,4,-1
 0 508 l 2,5,6
 0 560 0 560 36.5 596.5 c 128,-1,7
 73 633 73 633 125 633 c 2,8,-1
 792 633 l 2,9,10
 844 633 844 633 880.5 596.5 c 128,-1,11
 917 560 917 560 917 508 c 2,12,-1
 917 92 l 2,13,14
 917 40 917 40 880.5 3.5 c 128,-1,15
 844 -33 844 -33 792 -33 c 2,0,-1
125 550 m 2,16,17
 108 550 108 550 95.5 537.5 c 128,-1,18
 83 525 83 525 83 508 c 2,19,-1
 83 92 l 2,20,21
 83 75 83 75 95.5 62.5 c 128,-1,22
 108 50 108 50 125 50 c 2,23,-1
 792 50 l 2,24,25
 809 50 809 50 821 62.5 c 128,-1,26
 833 75 833 75 833 92 c 2,27,-1
 833 508 l 2,28,29
 833 525 833 525 821 537.5 c 128,-1,30
 809 550 809 550 792 550 c 2,31,-1
 125 550 l 2,16,17
375 175 m 2,32,-1
 208 175 l 2,33,34
 191 175 191 175 179 187.5 c 128,-1,35
 167 200 167 200 167 217 c 128,-1,36
 167 234 167 234 179 246 c 128,-1,37
 191 258 191 258 208 258 c 2,38,-1
 375 258 l 2,39,40
 392 258 392 258 404.5 246 c 128,-1,41
 417 234 417 234 417 217 c 128,-1,42
 417 200 417 200 404.5 187.5 c 128,-1,43
 392 175 392 175 375 175 c 2,32,-1
375 342 m 2,44,-1
 208 342 l 2,45,46
 191 342 191 342 179 354 c 128,-1,47
 167 366 167 366 167 383 c 128,-1,48
 167 400 167 400 179 412.5 c 128,-1,49
 191 425 191 425 208 425 c 2,50,-1
 375 425 l 2,51,52
 392 425 392 425 404.5 412.5 c 128,-1,53
 417 400 417 400 417 383 c 128,-1,54
 417 366 417 366 404.5 354 c 128,-1,55
 392 342 392 342 375 342 c 2,44,-1
542 362 m 0,56,57
 542 446 542 446 625 446 c 128,-1,58
 708 446 708 446 708 362 c 0,59,60
 708 279 708 279 625 279 c 128,-1,61
 542 279 542 279 542 362 c 0,56,57
625 244 m 0,62,63
 670 244 670 244 699.5 226 c 128,-1,64
 729 208 729 208 729 184 c 0,65,66
 729 172 729 172 699 163 c 128,-1,67
 669 154 669 154 625 154 c 0,68,69
 578 154 578 154 549.5 163 c 128,-1,70
 521 172 521 172 521 184 c 0,71,72
 521 208 521 208 549.5 226 c 128,-1,73
 578 244 578 244 625 244 c 0,62,63
EndSplineSet
Validated: 1
EndChar

StartChar: glyph55
Encoding: 55 57399 56
Width: 583
GlyphClass: 1
Flags: W
LayerCount: 2
Fore
SplineSet
458 -75 m 2,0,-1
 125 -75 l 2,1,2
 72 -75 72 -75 36 -39 c 128,-1,3
 0 -3 0 -3 0 50 c 2,4,-1
 0 550 l 2,5,6
 0 603 0 603 36 639 c 128,-1,7
 72 675 72 675 125 675 c 2,8,-1
 458 675 l 2,9,10
 511 675 511 675 547 639 c 128,-1,11
 583 603 583 603 583 550 c 2,12,-1
 583 50 l 2,13,14
 583 -3 583 -3 547 -39 c 128,-1,15
 511 -75 511 -75 458 -75 c 2,0,-1
125 592 m 2,16,17
 106 592 106 592 94.5 580.5 c 128,-1,18
 83 569 83 569 83 550 c 2,19,-1
 83 50 l 2,20,21
 83 31 83 31 94.5 19.5 c 128,-1,22
 106 8 106 8 125 8 c 2,23,-1
 458 8 l 2,24,25
 477 8 477 8 488.5 19.5 c 128,-1,26
 500 31 500 31 500 50 c 2,27,-1
 500 550 l 2,28,29
 500 569 500 569 488.5 580.5 c 128,-1,30
 477 592 477 592 458 592 c 2,31,-1
 125 592 l 2,16,17
125 342 m 0,32,33
 125 383 125 383 167 383 c 0,34,35
 208 383 208 383 208 342 c 0,36,37
 208 300 208 300 167 300 c 0,38,39
 125 300 125 300 125 342 c 0,32,33
250 342 m 0,40,41
 250 383 250 383 292 383 c 0,42,43
 333 383 333 383 333 342 c 0,44,45
 333 300 333 300 292 300 c 0,46,47
 250 300 250 300 250 342 c 0,40,41
375 342 m 0,48,49
 375 383 375 383 417 383 c 0,50,51
 458 383 458 383 458 342 c 0,52,53
 458 300 458 300 417 300 c 0,54,55
 375 300 375 300 375 342 c 0,48,49
125 217 m 0,56,57
 125 258 125 258 167 258 c 0,58,59
 208 258 208 258 208 217 c 0,60,61
 208 175 208 175 167 175 c 0,62,63
 125 175 125 175 125 217 c 0,56,57
250 217 m 0,64,65
 250 258 250 258 292 258 c 0,66,67
 333 258 333 258 333 217 c 0,68,69
 333 175 333 175 292 175 c 0,70,71
 250 175 250 175 250 217 c 0,64,65
375 217 m 0,72,73
 375 258 375 258 417 258 c 0,74,75
 458 258 458 258 458 217 c 0,76,77
 458 175 458 175 417 175 c 0,78,79
 375 175 375 175 375 217 c 0,72,73
125 92 m 0,80,81
 125 133 125 133 167 133 c 0,82,83
 208 133 208 133 208 92 c 0,84,85
 208 50 208 50 167 50 c 0,86,87
 125 50 125 50 125 92 c 0,80,81
250 92 m 0,88,89
 250 133 250 133 292 133 c 0,90,91
 333 133 333 133 333 92 c 0,92,93
 333 50 333 50 292 50 c 0,94,95
 250 50 250 50 250 92 c 0,88,89
375 92 m 0,96,97
 375 133 375 133 417 133 c 0,98,99
 458 133 458 133 458 92 c 0,100,101
 458 50 458 50 417 50 c 0,102,103
 375 50 375 50 375 92 c 0,96,97
417 508 m 1,104,-1
 167 508 l 1,105,-1
 167 467 l 1,106,-1
 417 467 l 1,107,-1
 417 508 l 1,104,-1
458 550 m 1,108,-1
 458 425 l 1,109,-1
 125 425 l 1,110,-1
 125 550 l 1,111,-1
 458 550 l 1,108,-1
EndSplineSet
Validated: 1
EndChar

StartChar: glyph56
Encoding: 56 57400 57
Width: 750
GlyphClass: 1
Flags: W
LayerCount: 2
Fore
SplineSet
667 542 m 1,0,1
 704 529 704 529 727 497 c 128,-1,2
 750 465 750 465 750 425 c 2,3,-1
 750 50 l 2,4,5
 750 -2 750 -2 713.5 -38.5 c 128,-1,6
 677 -75 677 -75 625 -75 c 2,7,-1
 125 -75 l 2,8,9
 73 -75 73 -75 36.5 -38.5 c 128,-1,10
 0 -2 0 -2 0 50 c 2,11,-1
 0 425 l 2,12,13
 0 465 0 465 23 497 c 128,-1,14
 46 529 46 529 83 542 c 1,15,-1
 83 550 l 2,16,17
 83 602 83 602 119.5 638.5 c 128,-1,18
 156 675 156 675 208 675 c 128,-1,19
 260 675 260 675 296.5 638.5 c 128,-1,20
 333 602 333 602 333 550 c 1,21,-1
 417 550 l 1,22,23
 417 602 417 602 453.5 638.5 c 128,-1,24
 490 675 490 675 542 675 c 128,-1,25
 594 675 594 675 630.5 638.5 c 128,-1,26
 667 602 667 602 667 550 c 2,27,-1
 667 542 l 1,0,1
500 550 m 2,28,-1
 500 467 l 2,29,30
 500 450 500 450 512.5 437.5 c 128,-1,31
 525 425 525 425 542 425 c 128,-1,32
 559 425 559 425 571 437.5 c 128,-1,33
 583 450 583 450 583 467 c 2,34,-1
 583 550 l 2,35,36
 583 567 583 567 571 579.5 c 128,-1,37
 559 592 559 592 542 592 c 128,-1,38
 525 592 525 592 512.5 579.5 c 128,-1,39
 500 567 500 567 500 550 c 2,28,-1
167 550 m 2,40,-1
 167 467 l 2,41,42
 167 450 167 450 179 437.5 c 128,-1,43
 191 425 191 425 208 425 c 128,-1,44
 225 425 225 425 237.5 437.5 c 128,-1,45
 250 450 250 450 250 467 c 2,46,-1
 250 550 l 2,47,48
 250 567 250 567 237.5 579.5 c 128,-1,49
 225 592 225 592 208 592 c 128,-1,50
 191 592 191 592 179 579.5 c 128,-1,51
 167 567 167 567 167 550 c 2,40,-1
667 50 m 2,52,-1
 667 300 l 1,53,-1
 83 300 l 1,54,-1
 83 50 l 2,55,56
 83 33 83 33 95.5 20.5 c 128,-1,57
 108 8 108 8 125 8 c 2,58,-1
 625 8 l 2,59,60
 642 8 642 8 654.5 20.5 c 128,-1,61
 667 33 667 33 667 50 c 2,52,-1
667 342 m 1,62,-1
 667 425 l 2,63,64
 667 442 667 442 654.5 454.5 c 128,-1,65
 642 467 642 467 625 467 c 1,66,67
 625 432 625 432 600.5 407.5 c 128,-1,68
 576 383 576 383 542 383 c 128,-1,69
 508 383 508 383 483 407.5 c 128,-1,70
 458 432 458 432 458 467 c 1,71,-1
 292 467 l 1,72,73
 292 432 292 432 267 407.5 c 128,-1,74
 242 383 242 383 208 383 c 128,-1,75
 174 383 174 383 149.5 407.5 c 128,-1,76
 125 432 125 432 125 467 c 1,77,78
 108 467 108 467 95.5 454.5 c 128,-1,79
 83 442 83 442 83 425 c 2,80,-1
 83 342 l 1,81,-1
 667 342 l 1,62,-1
EndSplineSet
Validated: 1
EndChar

StartChar: glyph57
Encoding: 57 57401 58
Width: 750
GlyphClass: 1
Flags: W
LayerCount: 2
Fore
SplineSet
667 542 m 1,0,1
 704 529 704 529 727 497 c 128,-1,2
 750 465 750 465 750 425 c 2,3,-1
 750 50 l 2,4,5
 750 -2 750 -2 713.5 -38.5 c 128,-1,6
 677 -75 677 -75 625 -75 c 2,7,-1
 125 -75 l 2,8,9
 73 -75 73 -75 36.5 -38.5 c 128,-1,10
 0 -2 0 -2 0 50 c 2,11,-1
 0 425 l 2,12,13
 0 465 0 465 23 497 c 128,-1,14
 46 529 46 529 83 542 c 1,15,-1
 83 550 l 2,16,17
 83 602 83 602 119.5 638.5 c 128,-1,18
 156 675 156 675 208 675 c 128,-1,19
 260 675 260 675 296.5 638.5 c 128,-1,20
 333 602 333 602 333 550 c 1,21,-1
 417 550 l 1,22,23
 417 602 417 602 453.5 638.5 c 128,-1,24
 490 675 490 675 542 675 c 128,-1,25
 594 675 594 675 630.5 638.5 c 128,-1,26
 667 602 667 602 667 550 c 2,27,-1
 667 542 l 1,0,1
500 550 m 2,28,-1
 500 467 l 2,29,30
 500 450 500 450 512.5 437.5 c 128,-1,31
 525 425 525 425 542 425 c 128,-1,32
 559 425 559 425 571 437.5 c 128,-1,33
 583 450 583 450 583 467 c 2,34,-1
 583 550 l 2,35,36
 583 567 583 567 571 579.5 c 128,-1,37
 559 592 559 592 542 592 c 128,-1,38
 525 592 525 592 512.5 579.5 c 128,-1,39
 500 567 500 567 500 550 c 2,28,-1
167 550 m 2,40,-1
 167 467 l 2,41,42
 167 450 167 450 179 437.5 c 128,-1,43
 191 425 191 425 208 425 c 128,-1,44
 225 425 225 425 237.5 437.5 c 128,-1,45
 250 450 250 450 250 467 c 2,46,-1
 250 550 l 2,47,48
 250 567 250 567 237.5 579.5 c 128,-1,49
 225 592 225 592 208 592 c 128,-1,50
 191 592 191 592 179 579.5 c 128,-1,51
 167 567 167 567 167 550 c 2,40,-1
667 50 m 2,52,-1
 667 300 l 1,53,-1
 83 300 l 1,54,-1
 83 50 l 2,55,56
 83 33 83 33 95.5 20.5 c 128,-1,57
 108 8 108 8 125 8 c 2,58,-1
 625 8 l 2,59,60
 642 8 642 8 654.5 20.5 c 128,-1,61
 667 33 667 33 667 50 c 2,52,-1
EndSplineSet
Validated: 1
EndChar

StartChar: glyph58
Encoding: 58 57402 59
Width: 833
GlyphClass: 1
Flags: W
LayerCount: 2
Fore
SplineSet
708 -33 m 2,0,-1
 125 -33 l 2,1,2
 73 -33 73 -33 36.5 3.5 c 128,-1,3
 0 40 0 40 0 92 c 2,4,-1
 0 425 l 2,5,6
 0 477 0 477 36.5 513.5 c 128,-1,7
 73 550 73 550 125 550 c 2,8,-1
 191 550 l 1,9,-1
 233 592 l 2,10,11
 251 610 251 610 279 621.5 c 128,-1,12
 307 633 307 633 333 633 c 2,13,-1
 500 633 l 2,14,15
 526 633 526 633 554.5 621.5 c 128,-1,16
 583 610 583 610 601 592 c 2,17,-1
 642 550 l 1,18,-1
 708 550 l 2,19,20
 760 550 760 550 796.5 513.5 c 128,-1,21
 833 477 833 477 833 425 c 2,22,-1
 833 92 l 2,23,24
 833 40 833 40 796.5 3.5 c 128,-1,25
 760 -33 760 -33 708 -33 c 2,0,-1
125 467 m 2,26,27
 108 467 108 467 95.5 454.5 c 128,-1,28
 83 442 83 442 83 425 c 2,29,-1
 83 92 l 2,30,31
 83 75 83 75 95.5 62.5 c 128,-1,32
 108 50 108 50 125 50 c 2,33,-1
 708 50 l 2,34,35
 725 50 725 50 737.5 62.5 c 128,-1,36
 750 75 750 75 750 92 c 2,37,-1
 750 425 l 2,38,39
 750 442 750 442 737.5 454.5 c 128,-1,40
 725 467 725 467 708 467 c 2,41,-1
 625 467 l 2,42,43
 608 467 608 467 596 479 c 2,44,-1
 542 533 l 2,45,46
 525 550 525 550 500 550 c 2,47,-1
 333 550 l 2,48,49
 309 550 309 550 292 533 c 2,50,-1
 238 479 l 2,51,52
 226 467 226 467 208 467 c 2,53,-1
 125 467 l 2,26,27
417 383 m 128,-1,55
 374 383 374 383 343 352.5 c 128,-1,56
 312 322 312 322 312 279 c 128,-1,57
 312 236 312 236 343 205.5 c 128,-1,58
 374 175 374 175 417 175 c 128,-1,59
 460 175 460 175 490.5 205.5 c 128,-1,60
 521 236 521 236 521 279 c 128,-1,61
 521 322 521 322 490.5 352.5 c 128,-1,54
 460 383 460 383 417 383 c 128,-1,55
417 425 m 128,-1,63
 478 425 478 425 520 382.5 c 128,-1,64
 562 340 562 340 562 279 c 0,65,66
 562 219 562 219 519.5 176 c 128,-1,67
 477 133 477 133 417 133 c 0,68,69
 356 133 356 133 313.5 176 c 128,-1,70
 271 219 271 219 271 279 c 0,71,72
 271 340 271 340 313.5 382.5 c 128,-1,62
 356 425 356 425 417 425 c 128,-1,63
667 438 m 0,73,74
 689 438 689 438 705 422 c 128,-1,75
 721 406 721 406 721 383 c 128,-1,76
 721 360 721 360 705.5 344.5 c 128,-1,77
 690 329 690 329 667 329 c 128,-1,78
 644 329 644 329 628 345 c 128,-1,79
 612 361 612 361 612 383 c 0,80,81
 612 406 612 406 628 422 c 128,-1,82
 644 438 644 438 667 438 c 0,73,74
EndSplineSet
Validated: 1
EndChar

StartChar: glyph59
Encoding: 59 57403 60
Width: 833
GlyphClass: 1
Flags: W
LayerCount: 2
Fore
SplineSet
708 550 m 2,0,1
 760 550 760 550 796.5 513.5 c 128,-1,2
 833 477 833 477 833 425 c 2,3,-1
 833 92 l 2,4,5
 833 40 833 40 796.5 3.5 c 128,-1,6
 760 -33 760 -33 708 -33 c 2,7,-1
 125 -33 l 2,8,9
 73 -33 73 -33 36.5 3.5 c 128,-1,10
 0 40 0 40 0 92 c 2,11,-1
 0 425 l 2,12,13
 0 477 0 477 36.5 513.5 c 128,-1,14
 73 550 73 550 125 550 c 2,15,-1
 191 550 l 1,16,-1
 233 592 l 2,17,18
 251 610 251 610 279 621.5 c 128,-1,19
 307 633 307 633 333 633 c 2,20,-1
 500 633 l 2,21,22
 526 633 526 633 554.5 621.5 c 128,-1,23
 583 610 583 610 601 592 c 2,24,-1
 642 550 l 1,25,-1
 708 550 l 2,0,1
417 133 m 0,26,27
 477 133 477 133 519.5 176 c 128,-1,28
 562 219 562 219 562 279 c 0,29,30
 562 340 562 340 520 382.5 c 128,-1,31
 478 425 478 425 417 425 c 128,-1,32
 356 425 356 425 313.5 382.5 c 128,-1,33
 271 340 271 340 271 279 c 0,34,35
 271 219 271 219 313.5 176 c 128,-1,36
 356 133 356 133 417 133 c 0,26,27
667 329 m 128,-1,38
 690 329 690 329 705.5 344.5 c 128,-1,39
 721 360 721 360 721 383 c 128,-1,40
 721 406 721 406 705 422 c 128,-1,41
 689 438 689 438 667 438 c 0,42,43
 644 438 644 438 628 422 c 128,-1,44
 612 406 612 406 612 383 c 0,45,46
 612 361 612 361 628 345 c 128,-1,37
 644 329 644 329 667 329 c 128,-1,38
EndSplineSet
Validated: 1
EndChar

StartChar: glyph60
Encoding: 60 57404 61
Width: 708
GlyphClass: 1
Flags: W
LayerCount: 2
Fore
SplineSet
354 -54 m 128,-1,1
 208 -54 208 -54 104 50 c 128,-1,2
 0 154 0 154 0 300 c 128,-1,3
 0 446 0 446 104 550 c 128,-1,4
 208 654 208 654 354 654 c 128,-1,5
 500 654 500 654 604 550 c 128,-1,6
 708 446 708 446 708 300 c 128,-1,7
 708 154 708 154 604 50 c 128,-1,0
 500 -54 500 -54 354 -54 c 128,-1,1
354 571 m 128,-1,9
 242 571 242 571 162.5 491.5 c 128,-1,10
 83 412 83 412 83 300 c 128,-1,11
 83 188 83 188 162.5 108.5 c 128,-1,12
 242 29 242 29 354 29 c 128,-1,13
 466 29 466 29 545.5 108.5 c 128,-1,14
 625 188 625 188 625 300 c 128,-1,15
 625 412 625 412 545.5 491.5 c 128,-1,8
 466 571 466 571 354 571 c 128,-1,9
354 446 m 0,16,17
 337 446 337 446 329 444 c 1,18,-1
 498 274 l 1,19,20
 500 282 500 282 500 300 c 0,21,22
 500 360 500 360 457 403 c 128,-1,23
 414 446 414 446 354 446 c 0,16,17
354 488 m 0,24,25
 431 488 431 488 486.5 432.5 c 128,-1,26
 542 377 542 377 542 300 c 0,27,28
 542 248 542 248 513 201 c 1,29,-1
 255 458 l 1,30,31
 303 488 303 488 354 488 c 0,24,25
211 326 m 1,32,33
 208 314 208 314 208 300 c 0,34,35
 208 240 208 240 251 197 c 128,-1,36
 294 154 294 154 354 154 c 0,37,38
 372 154 372 154 380 156 c 1,39,-1
 211 326 l 1,32,33
196 400 m 1,40,-1
 454 142 l 1,41,42
 406 112 406 112 354 112 c 0,43,44
 276 112 276 112 221.5 167 c 128,-1,45
 167 222 167 222 167 300 c 0,46,47
 167 353 167 353 196 400 c 1,40,-1
EndSplineSet
Validated: 1
EndChar

StartChar: glyph61
Encoding: 61 57405 62
Width: 667
GlyphClass: 1
Flags: W
LayerCount: 2
Fore
SplineSet
333 633 m 128,-1,1
 471 633 471 633 569 535.5 c 128,-1,2
 667 438 667 438 667 300 c 128,-1,3
 667 162 667 162 569 64.5 c 128,-1,4
 471 -33 471 -33 333 -33 c 128,-1,5
 195 -33 195 -33 97.5 64.5 c 128,-1,6
 0 162 0 162 0 300 c 128,-1,7
 0 438 0 438 97.5 535.5 c 128,-1,0
 195 633 195 633 333 633 c 128,-1,1
125 300 m 0,8,9
 125 214 125 214 186 153 c 128,-1,10
 247 92 247 92 333 92 c 0,11,12
 383 92 383 92 429 116 c 1,13,-1
 149 396 l 1,14,15
 125 350 125 350 125 300 c 0,8,9
517 204 m 1,16,17
 542 252 542 252 542 300 c 0,18,19
 542 386 542 386 480.5 447 c 128,-1,20
 419 508 419 508 333 508 c 0,21,22
 284 508 284 508 238 484 c 1,23,-1
 517 204 l 1,16,17
EndSplineSet
Validated: 1
EndChar

StartChar: glyph62
Encoding: 62 57406 63
Width: 750
GlyphClass: 1
Flags: W
LayerCount: 2
Fore
SplineSet
625 675 m 0,0,1
 677 675 677 675 713.5 637.5 c 128,-1,2
 750 600 750 600 750 550 c 2,3,-1
 750 133 l 2,4,5
 750 116 750 116 737.5 104 c 128,-1,6
 725 92 725 92 708 92 c 2,7,-1
 42 92 l 2,8,9
 25 92 25 92 12.5 104 c 128,-1,10
 0 116 0 116 0 133 c 2,11,-1
 0 258 l 2,12,13
 0 303 0 303 27 336 c 2,14,-1
 194 545 l 2,15,16
 225 583 225 583 276.5 589.5 c 128,-1,17
 328 596 328 596 367 567 c 2,18,-1
 436 514 l 1,19,-1
 528 628 l 2,20,21
 566 675 566 675 625 675 c 0,0,1
667 550 m 2,22,23
 667 566 667 566 654 579 c 128,-1,24
 641 592 641 592 625 592 c 0,25,26
 605 592 605 592 592 576 c 2,27,-1
 476 431 l 2,28,29
 465 417 465 417 449 415 c 128,-1,30
 433 413 433 413 419 423 c 2,31,-1
 317 500 l 2,32,33
 304 510 304 510 286.5 508 c 128,-1,34
 269 506 269 506 259 493 c 2,35,-1
 92 284 l 2,36,37
 83 273 83 273 83 258 c 2,38,-1
 83 175 l 1,39,-1
 667 175 l 1,40,-1
 667 550 l 2,22,23
708 -75 m 2,41,-1
 42 -75 l 2,42,43
 25 -75 25 -75 12.5 -62.5 c 128,-1,44
 0 -50 0 -50 0 -33 c 128,-1,45
 0 -16 0 -16 12.5 -4 c 128,-1,46
 25 8 25 8 42 8 c 2,47,-1
 708 8 l 2,48,49
 725 8 725 8 737.5 -4 c 128,-1,50
 750 -16 750 -16 750 -33 c 128,-1,51
 750 -50 750 -50 737.5 -62.5 c 128,-1,52
 725 -75 725 -75 708 -75 c 2,41,-1
EndSplineSet
Validated: 33
EndChar

StartChar: glyph63
Encoding: 63 57407 64
Width: 750
GlyphClass: 1
Flags: W
LayerCount: 2
Fore
SplineSet
708 550 m 2,0,-1
 708 133 l 1,1,-1
 42 133 l 1,2,-1
 42 258 l 2,3,4
 42 288 42 288 60 310 c 2,5,-1
 227 519 l 2,6,7
 248 545 248 545 281.5 549 c 128,-1,8
 315 553 315 553 342 533 c 2,9,-1
 444 457 l 1,10,-1
 560 602 l 2,11,12
 582 629 582 629 616 633 c 128,-1,13
 650 637 650 637 677 615 c 0,14,15
 708 591 708 591 708 550 c 2,0,-1
708 8 m 2,16,17
 725 8 725 8 737.5 -4 c 128,-1,18
 750 -16 750 -16 750 -33 c 128,-1,19
 750 -50 750 -50 737.5 -62.5 c 128,-1,20
 725 -75 725 -75 708 -75 c 2,21,-1
 42 -75 l 2,22,23
 25 -75 25 -75 12.5 -62.5 c 128,-1,24
 0 -50 0 -50 0 -33 c 128,-1,25
 0 -16 0 -16 12.5 -4 c 128,-1,26
 25 8 25 8 42 8 c 2,27,-1
 708 8 l 2,16,17
EndSplineSet
Validated: 33
EndChar

StartChar: glyph64
Encoding: 64 57408 65
Width: 667
GlyphClass: 1
Flags: W
LayerCount: 2
Fore
SplineSet
542 592 m 0,0,1
 594 592 594 592 630.5 555.5 c 128,-1,2
 667 519 667 519 667 467 c 2,3,-1
 667 92 l 1,4,-1
 0 92 l 1,5,-1
 0 342 l 2,6,7
 0 394 0 394 36.5 430.5 c 128,-1,8
 73 467 73 467 125 467 c 0,9,10
 172 467 172 467 208 434 c 1,11,-1
 208 633 l 2,12,13
 208 685 208 685 244.5 721.5 c 128,-1,14
 281 758 281 758 333 758 c 128,-1,15
 385 758 385 758 421.5 721.5 c 128,-1,16
 458 685 458 685 458 633 c 2,17,-1
 458 559 l 1,18,19
 494 592 494 592 542 592 c 0,0,1
333 675 m 128,-1,21
 316 675 316 675 304 662.5 c 128,-1,22
 292 650 292 650 292 633 c 2,23,-1
 292 175 l 1,24,-1
 375 175 l 1,25,-1
 375 633 l 2,26,27
 375 650 375 650 362.5 662.5 c 128,-1,20
 350 675 350 675 333 675 c 128,-1,21
167 175 m 1,28,-1
 167 342 l 2,29,30
 167 359 167 359 154.5 371 c 128,-1,31
 142 383 142 383 125 383 c 128,-1,32
 108 383 108 383 95.5 371 c 128,-1,33
 83 359 83 359 83 342 c 2,34,-1
 83 175 l 1,35,-1
 167 175 l 1,28,-1
583 175 m 1,36,-1
 583 467 l 2,37,38
 583 484 583 484 571 496 c 128,-1,39
 559 508 559 508 542 508 c 128,-1,40
 525 508 525 508 512.5 496 c 128,-1,41
 500 484 500 484 500 467 c 2,42,-1
 500 175 l 1,43,-1
 583 175 l 1,36,-1
625 -75 m 2,44,-1
 42 -75 l 2,45,46
 25 -75 25 -75 12.5 -62.5 c 128,-1,47
 0 -50 0 -50 0 -33 c 128,-1,48
 0 -16 0 -16 12.5 -4 c 128,-1,49
 25 8 25 8 42 8 c 2,50,-1
 625 8 l 2,51,52
 642 8 642 8 654.5 -4 c 128,-1,53
 667 -16 667 -16 667 -33 c 128,-1,54
 667 -50 667 -50 654.5 -62.5 c 128,-1,55
 642 -75 642 -75 625 -75 c 2,44,-1
EndSplineSet
Validated: 1
EndChar

StartChar: glyph65
Encoding: 65 57409 66
Width: 667
GlyphClass: 1
Flags: W
LayerCount: 2
Fore
SplineSet
417 633 m 2,0,-1
 417 133 l 1,1,-1
 250 133 l 1,2,-1
 250 633 l 2,3,4
 250 668 250 668 274.5 692.5 c 128,-1,5
 299 717 299 717 333 717 c 0,6,7
 368 717 368 717 392.5 692.5 c 128,-1,8
 417 668 417 668 417 633 c 2,0,-1
625 467 m 2,9,-1
 625 133 l 1,10,-1
 458 133 l 1,11,-1
 458 467 l 2,12,13
 458 501 458 501 482.5 525.5 c 128,-1,14
 507 550 507 550 542 550 c 0,15,16
 576 550 576 550 600.5 526 c 128,-1,17
 625 502 625 502 625 467 c 2,9,-1
208 342 m 2,18,-1
 208 133 l 1,19,-1
 42 133 l 1,20,-1
 42 342 l 2,21,22
 42 376 42 376 66 400.5 c 128,-1,23
 90 425 90 425 125 425 c 128,-1,24
 160 425 160 425 184 400.5 c 128,-1,25
 208 376 208 376 208 342 c 2,18,-1
625 8 m 2,26,27
 642 8 642 8 654.5 -4 c 128,-1,28
 667 -16 667 -16 667 -33 c 128,-1,29
 667 -50 667 -50 654.5 -62.5 c 128,-1,30
 642 -75 642 -75 625 -75 c 2,31,-1
 42 -75 l 2,32,33
 25 -75 25 -75 12.5 -62.5 c 128,-1,34
 0 -50 0 -50 0 -33 c 128,-1,35
 0 -16 0 -16 12.5 -4 c 128,-1,36
 25 8 25 8 42 8 c 2,37,-1
 625 8 l 2,26,27
EndSplineSet
Validated: 1
EndChar

StartChar: glyph66
Encoding: 66 57410 67
Width: 750
GlyphClass: 1
Flags: W
LayerCount: 2
Fore
SplineSet
125 92 m 0,0,1
 88 92 88 92 57.5 112.5 c 128,-1,2
 27 133 27 133 12.5 162.5 c 128,-1,3
 -2 192 -2 192 0.5 228.5 c 128,-1,4
 3 265 3 265 27 295 c 2,5,-1
 194 503 l 2,6,7
 225 541 225 541 276.5 548 c 128,-1,8
 328 555 328 555 367 525 c 2,9,-1
 436 473 l 1,10,-1
 527 586 l 2,11,12
 565 633 565 633 625 633 c 0,13,14
 675 633 675 633 711 598.5 c 128,-1,15
 747 564 747 564 750 519 c 128,-1,16
 753 474 753 474 723 430 c 1,17,-1
 556 222 l 2,18,19
 525 184 525 184 474 177.5 c 128,-1,20
 423 171 423 171 383 200 c 2,21,-1
 313 252 l 1,22,-1
 222 139 l 2,23,24
 184 92 184 92 125 92 c 0,0,1
292 467 m 0,25,26
 272 467 272 467 259 451 c 2,27,-1
 92 243 l 2,28,29
 76 221 76 221 88.5 198 c 128,-1,30
 101 175 101 175 125 175 c 0,31,32
 145 175 145 175 158 191 c 2,33,-1
 299 368 l 1,34,-1
 433 267 l 2,35,36
 446 257 446 257 463.5 259 c 128,-1,37
 481 261 481 261 491 274 c 2,38,-1
 658 482 l 2,39,40
 674 504 674 504 661.5 527 c 128,-1,41
 649 550 649 550 625 550 c 0,42,43
 605 550 605 550 592 534 c 2,44,-1
 451 358 l 1,45,-1
 317 458 l 2,46,47
 307 467 307 467 292 467 c 0,25,26
667 -75 m 2,48,-1
 83 -75 l 2,49,50
 66 -75 66 -75 54 -62.5 c 128,-1,51
 42 -50 42 -50 42 -33 c 128,-1,52
 42 -16 42 -16 54 -4 c 128,-1,53
 66 8 66 8 83 8 c 2,54,-1
 667 8 l 2,55,56
 684 8 684 8 696 -4 c 128,-1,57
 708 -16 708 -16 708 -33 c 128,-1,58
 708 -50 708 -50 696 -62.5 c 128,-1,59
 684 -75 684 -75 667 -75 c 2,48,-1
EndSplineSet
Validated: 33
EndChar

StartChar: glyph67
Encoding: 67 57411 68
Width: 667
GlyphClass: 1
Flags: W
LayerCount: 2
Fore
SplineSet
31 152 m 0,0,1
 4 174 4 174 0 208 c 128,-1,2
 -4 242 -4 242 18 269 c 2,3,-1
 185 477 l 2,4,5
 206 503 206 503 239.5 507.5 c 128,-1,6
 273 512 273 512 300 492 c 2,7,-1
 402 415 l 1,8,-1
 518 560 l 2,9,10
 540 587 540 587 574 591 c 128,-1,11
 608 595 608 595 635 573 c 128,-1,12
 662 551 662 551 666 517 c 128,-1,13
 670 483 670 483 648 456 c 2,14,-1
 482 248 l 2,15,16
 461 222 461 222 427.5 217.5 c 128,-1,17
 394 213 394 213 367 233 c 2,18,-1
 265 310 l 1,19,-1
 148 165 l 2,20,21
 124 133 124 133 83 133 c 0,22,23
 55 133 55 133 31 152 c 0,0,1
42 -75 m 2,24,25
 25 -75 25 -75 12.5 -62.5 c 128,-1,26
 0 -50 0 -50 0 -33 c 128,-1,27
 0 -16 0 -16 12.5 -4 c 128,-1,28
 25 8 25 8 42 8 c 2,29,-1
 625 8 l 2,30,31
 642 8 642 8 654.5 -4 c 128,-1,32
 667 -16 667 -16 667 -33 c 128,-1,33
 667 -50 667 -50 654.5 -62.5 c 128,-1,34
 642 -75 642 -75 625 -75 c 2,35,-1
 42 -75 l 2,24,25
EndSplineSet
Validated: 33
EndChar

StartChar: glyph68
Encoding: 68 57412 69
Width: 722
GlyphClass: 1
Flags: W
LayerCount: 2
Fore
SplineSet
264 675 m 2,0,1
 264 709 264 709 288.5 733.5 c 128,-1,2
 313 758 313 758 347 758 c 2,3,-1
 355 758 l 1,4,5
 529 743 529 743 666 629 c 0,6,7
 693 606 693 606 695.5 569.5 c 128,-1,8
 698 533 698 533 672 506 c 2,9,-1
 648 483 l 1,10,11
 722 375 722 375 722 245 c 0,12,13
 722 98 722 98 630 -17 c 0,14,15
 606 -46 606 -46 565 -48 c 0,16,17
 546 -48 546 -48 528 -39 c 1,18,19
 442 -95 442 -95 343 -95 c 0,20,21
 201 -95 201 -95 100.5 6 c 128,-1,22
 0 107 0 107 0 249 c 0,23,24
 0 368 0 368 74.5 461.5 c 128,-1,25
 149 555 149 555 264 582 c 1,26,-1
 264 675 l 2,0,1
343 -12 m 0,27,28
 428 -12 428 -12 498 40 c 1,29,-1
 306 238 l 1,30,-1
 306 505 l 1,31,32
 211 491 211 491 147 418.5 c 128,-1,33
 83 346 83 346 83 249 c 0,34,35
 83 141 83 141 159.5 64.5 c 128,-1,36
 236 -12 236 -12 343 -12 c 0,27,28
347 299 m 1,37,-1
 612 565 l 1,38,39
 496 662 496 662 347 675 c 1,40,-1
 347 299 l 1,37,-1
356 246 m 1,41,-1
 565 35 l 1,42,43
 639 128 639 128 639 245 c 0,44,45
 639 363 639 363 565 456 c 1,46,-1
 356 246 l 1,41,-1
EndSplineSet
Validated: 33
EndChar

StartChar: glyph69
Encoding: 69 57413 70
Width: 675
GlyphClass: 1
Flags: W
LayerCount: 2
Fore
SplineSet
359 218 m 1,0,-1
 593 452 l 1,1,2
 675 349 675 349 675 217 c 0,3,4
 675 108 675 108 617 17 c 0,5,6
 608 3 608 3 591.5 1.5 c 128,-1,7
 575 0 575 0 563 12 c 2,8,-1
 359 218 l 1,0,-1
250 200 m 1,9,-1
 466 -17 l 1,10,11
 389 -75 389 -75 292 -75 c 0,12,13
 171 -75 171 -75 85.5 11 c 128,-1,14
 0 97 0 97 0 218 c 0,15,16
 0 328 0 328 72 410 c 128,-1,17
 144 492 144 492 250 507 c 1,18,-1
 250 200 l 1,9,-1
555 541 m 2,19,-1
 333 318 l 1,20,-1
 333 633 l 2,21,22
 333 650 333 650 345.5 661 c 128,-1,23
 358 672 358 672 375 669 c 0,24,25
 473 651 473 651 552 596 c 0,26,27
 566 586 566 586 566.5 569.5 c 128,-1,28
 567 553 567 553 555 541 c 2,19,-1
EndSplineSet
Validated: 1
EndChar

StartChar: glyph70
Encoding: 70 57414 71
Width: 510
GlyphClass: 1
Flags: W
LayerCount: 2
Fore
SplineSet
510 92 m 0,0,1
 510 41 510 41 473 4 c 128,-1,2
 436 -33 436 -33 385 -33 c 0,3,4
 333 -33 333 -33 297 3 c 2,5,-1
 0 300 l 1,6,-1
 297 597 l 2,7,8
 332 632 332 632 385.5 632 c 128,-1,9
 439 632 439 632 474 597 c 0,10,11
 510 561 510 561 510 508 c 0,12,13
 510 456 510 456 474 420 c 2,14,-1
 354 300 l 1,15,-1
 474 180 l 2,16,17
 510 144 510 144 510 92 c 0,0,1
118 300 m 1,18,-1
 356 62 l 2,19,20
 368 50 368 50 385.5 50 c 128,-1,21
 403 50 403 50 415 62 c 128,-1,22
 427 74 427 74 427 92 c 0,23,24
 427 109 427 109 415 121 c 2,25,-1
 236 300 l 1,26,-1
 415 479 l 2,27,28
 427 491 427 491 427 508 c 0,29,30
 427 526 427 526 415 538 c 128,-1,31
 403 550 403 550 385.5 550 c 128,-1,32
 368 550 368 550 356 538 c 2,33,-1
 118 300 l 1,18,-1
EndSplineSet
Validated: 1
EndChar

StartChar: glyph71
Encoding: 71 57415 72
Width: 410
GlyphClass: 1
Flags: W
LayerCount: 2
Fore
SplineSet
385 567 m 0,0,1
 410 542 410 542 410 508 c 128,-1,2
 410 474 410 474 385 449 c 2,3,-1
 236 300 l 1,4,-1
 385 151 l 2,5,6
 410 126 410 126 410 92 c 128,-1,7
 410 58 410 58 385 33 c 128,-1,8
 360 8 360 8 326 8 c 128,-1,9
 292 8 292 8 267 33 c 2,10,-1
 0 300 l 1,11,-1
 267 567 l 2,12,13
 291 592 291 592 326 592 c 128,-1,14
 361 592 361 592 385 567 c 0,0,1
EndSplineSet
Validated: 1
EndChar

StartChar: glyph72
Encoding: 72 57416 73
Width: 510
GlyphClass: 1
Flags: W
LayerCount: 2
Fore
SplineSet
125 -33 m 0,0,1
 74 -33 74 -33 37 4 c 128,-1,2
 0 41 0 41 0 92 c 128,-1,3
 0 143 0 143 37 180 c 2,4,-1
 157 300 l 1,5,-1
 37 420 l 2,6,7
 0 457 0 457 0 508 c 0,8,9
 0 560 0 560 37 597 c 0,10,11
 72 632 72 632 125 632 c 128,-1,12
 178 632 178 632 213 597 c 2,13,-1
 510 300 l 1,14,-1
 213 3 l 2,15,16
 177 -33 177 -33 125 -33 c 0,0,1
125 550 m 128,-1,18
 108 550 108 550 95.5 537.5 c 128,-1,19
 83 525 83 525 83 508 c 0,20,21
 83 492 83 492 96 479 c 2,22,-1
 274 300 l 1,23,-1
 96 121 l 2,24,25
 83 108 83 108 83 92 c 0,26,27
 83 75 83 75 96 62 c 0,28,29
 108 50 108 50 125 50 c 128,-1,30
 142 50 142 50 154 62 c 2,31,-1
 392 300 l 1,32,-1
 154 538 l 2,33,17
 142 550 142 550 125 550 c 128,-1,18
EndSplineSet
Validated: 1
EndChar

StartChar: glyph73
Encoding: 73 57417 74
Width: 410
GlyphClass: 1
Flags: W
LayerCount: 2
Fore
SplineSet
24 567 m 0,0,1
 48 592 48 592 83 592 c 128,-1,2
 118 592 118 592 142 567 c 2,3,-1
 410 300 l 1,4,-1
 142 33 l 2,5,6
 117 8 117 8 83 8 c 128,-1,7
 49 8 49 8 24 33 c 128,-1,8
 -1 58 -1 58 -1 92 c 128,-1,9
 -1 126 -1 126 24 151 c 2,10,-1
 174 300 l 1,11,-1
 24 449 l 2,12,13
 -1 474 -1 474 -1 508 c 128,-1,14
 -1 542 -1 542 24 567 c 0,0,1
EndSplineSet
Validated: 1
EndChar

StartChar: glyph74
Encoding: 74 57418 75
Width: 667
GlyphClass: 1
Flags: W
LayerCount: 2
Fore
SplineSet
542 675 m 2,0,1
 594 675 594 675 630.5 638.5 c 128,-1,2
 667 602 667 602 667 550 c 2,3,-1
 667 50 l 2,4,5
 667 -2 667 -2 630.5 -38.5 c 128,-1,6
 594 -75 594 -75 542 -75 c 2,7,-1
 125 -75 l 2,8,9
 73 -75 73 -75 36.5 -38.5 c 128,-1,10
 0 -2 0 -2 0 50 c 2,11,-1
 0 550 l 2,12,13
 0 602 0 602 36.5 638.5 c 128,-1,14
 73 675 73 675 125 675 c 2,15,-1
 542 675 l 2,0,1
208 592 m 1,16,-1
 208 550 l 2,17,18
 208 533 208 533 220.5 520.5 c 128,-1,19
 233 508 233 508 250 508 c 2,20,-1
 417 508 l 2,21,22
 434 508 434 508 446 520.5 c 128,-1,23
 458 533 458 533 458 550 c 2,24,-1
 458 592 l 1,25,-1
 208 592 l 1,16,-1
583 50 m 2,26,-1
 583 550 l 2,27,28
 583 567 583 567 571 579.5 c 128,-1,29
 559 592 559 592 542 592 c 2,30,-1
 500 592 l 1,31,-1
 500 550 l 2,32,33
 500 516 500 516 476 491.5 c 128,-1,34
 452 467 452 467 417 467 c 2,35,-1
 250 467 l 2,36,37
 216 467 216 467 191.5 491.5 c 128,-1,38
 167 516 167 516 167 550 c 2,39,-1
 167 592 l 1,40,-1
 125 592 l 2,41,42
 108 592 108 592 95.5 579.5 c 128,-1,43
 83 567 83 567 83 550 c 2,44,-1
 83 50 l 2,45,46
 83 33 83 33 95.5 20.5 c 128,-1,47
 108 8 108 8 125 8 c 2,48,-1
 542 8 l 2,49,50
 559 8 559 8 571 20.5 c 128,-1,51
 583 33 583 33 583 50 c 2,26,-1
500 92 m 2,52,-1
 167 92 l 2,53,54
 146 92 146 92 146 112 c 0,55,56
 146 121 146 121 152 127 c 128,-1,57
 158 133 158 133 167 133 c 2,58,-1
 500 133 l 2,59,60
 509 133 509 133 515 127 c 128,-1,61
 521 121 521 121 521 112 c 0,62,63
 521 92 521 92 500 92 c 2,52,-1
500 217 m 2,64,-1
 167 217 l 2,65,66
 158 217 158 217 152 223 c 128,-1,67
 146 229 146 229 146 238 c 0,68,69
 146 258 146 258 167 258 c 2,70,-1
 500 258 l 2,71,72
 521 258 521 258 521 238 c 0,73,74
 521 229 521 229 515 223 c 128,-1,75
 509 217 509 217 500 217 c 2,64,-1
500 342 m 2,76,-1
 167 342 l 2,77,78
 146 342 146 342 146 362 c 0,79,80
 146 371 146 371 152 377 c 128,-1,81
 158 383 158 383 167 383 c 2,82,-1
 500 383 l 2,83,84
 509 383 509 383 515 377 c 128,-1,85
 521 371 521 371 521 362 c 0,86,87
 521 342 521 342 500 342 c 2,76,-1
EndSplineSet
Validated: 1
EndChar

StartChar: glyph75
Encoding: 75 57419 76
Width: 833
GlyphClass: 1
Flags: W
LayerCount: 2
Fore
SplineSet
625 425 m 1,0,1
 711 425 711 425 772 364 c 128,-1,2
 833 303 833 303 833 217 c 128,-1,3
 833 131 833 131 772 69.5 c 128,-1,4
 711 8 711 8 625 8 c 2,5,-1
 458 8 l 1,6,-1
 458 199 l 1,7,-1
 512 146 l 2,8,9
 525 133 525 133 542 133 c 0,10,11
 558 133 558 133 571 146 c 0,12,13
 583 158 583 158 583 175 c 128,-1,14
 583 192 583 192 571 204 c 2,15,-1
 446 329 l 2,16,17
 435 340 435 340 417 340.5 c 128,-1,18
 399 341 399 341 387 329 c 2,19,-1
 262 204 l 2,20,21
 250 192 250 192 250 175 c 128,-1,22
 250 158 250 158 262 146 c 0,23,24
 275 133 275 133 292 133 c 0,25,26
 308 133 308 133 321 146 c 2,27,-1
 375 199 l 1,28,-1
 375 8 l 1,29,-1
 167 8 l 2,30,31
 98 8 98 8 49 57 c 128,-1,32
 0 106 0 106 0 175 c 0,33,34
 0 233 0 233 35 277.5 c 128,-1,35
 70 322 70 322 125 336 c 1,36,-1
 125 342 l 2,37,38
 125 446 125 446 198.5 519 c 128,-1,39
 272 592 272 592 375 592 c 0,40,41
 455 592 455 592 519.5 545.5 c 128,-1,42
 584 499 584 499 610 424 c 1,43,-1
 625 425 l 1,0,1
EndSplineSet
Validated: 33
EndChar

StartChar: glyph76
Encoding: 84 57428 77
Width: 844
GlyphClass: 1
Flags: W
LayerCount: 2
Fore
SplineSet
635 425 m 1,0,1
 721 425 721 425 782.5 364 c 128,-1,2
 844 303 844 303 844 217 c 128,-1,3
 844 131 844 131 782.5 69.5 c 128,-1,4
 721 8 721 8 635 8 c 2,5,-1
 177 8 l 2,6,7
 107 8 107 8 53.5 57.5 c 128,-1,8
 0 107 0 107 0 175 c 0,9,10
 0 228 0 228 38 273 c 128,-1,11
 76 318 76 318 115 336 c 1,12,-1
 115 342 l 2,13,14
 115 445 115 445 193 518.5 c 128,-1,15
 271 592 271 592 375 592 c 0,16,17
 457 592 457 592 526.5 545 c 128,-1,18
 596 498 596 498 621 424 c 1,19,-1
 635 425 l 1,0,1
635 92 m 2,20,21
 687 92 687 92 723.5 128.5 c 128,-1,22
 760 165 760 165 760 217 c 128,-1,23
 760 269 760 269 724 305.5 c 128,-1,24
 688 342 688 342 636 342 c 0,25,26
 622 342 622 342 602 336 c 2,27,-1
 557 324 l 1,28,-1
 549 369 l 2,29,30
 538 429 538 429 492 468.5 c 128,-1,31
 446 508 446 508 385 508 c 0,32,33
 316 508 316 508 267.5 459.5 c 128,-1,34
 219 411 219 411 219 342 c 0,35,36
 219 324 219 324 222 308 c 2,37,-1
 232 258 l 1,38,-1
 173 259 l 2,39,40
 141 259 141 259 117.5 234 c 128,-1,41
 94 209 94 209 94 175 c 0,42,43
 94 140 94 140 118 116 c 128,-1,44
 142 92 142 92 177 92 c 2,45,-1
 406 92 l 1,46,-1
 406 250 l 1,47,-1
 317 160 l 2,48,49
 311 154 311 154 302 154 c 0,50,51
 289 154 289 154 283 167 c 128,-1,52
 277 180 277 180 287 190 c 2,53,-1
 412 315 l 1,54,55
 427 324 427 324 442 315 c 1,56,-1
 567 190 l 2,57,58
 577 180 577 180 571 167 c 128,-1,59
 565 154 565 154 552 154 c 0,60,61
 543 154 543 154 537 160 c 2,62,-1
 448 250 l 1,63,-1
 448 92 l 1,64,-1
 635 92 l 2,20,21
EndSplineSet
Validated: 1
EndChar

StartChar: glyph77
Encoding: 76 57420 78
Width: 951
GlyphClass: 1
Flags: W
LayerCount: 2
Fore
SplineSet
302 8 m 0,0,1
 250 8 250 8 213 45 c 2,2,-1
 0 258 l 1,3,-1
 213 472 l 2,4,5
 248 507 248 507 301.5 507 c 128,-1,6
 355 507 355 507 390 472 c 0,7,8
 427 435 427 435 427 383.5 c 128,-1,9
 427 332 427 332 390 295 c 2,10,-1
 354 258 l 1,11,-1
 390 222 l 2,12,13
 427 185 427 185 427 133.5 c 128,-1,14
 427 82 427 82 390 45 c 128,-1,15
 353 8 353 8 302 8 c 0,0,1
118 258 m 1,16,-1
 272 104 l 2,17,18
 284 92 284 92 301.5 92 c 128,-1,19
 319 92 319 92 331 104 c 128,-1,20
 343 116 343 116 343 133.5 c 128,-1,21
 343 151 343 151 331 163 c 2,22,-1
 236 258 l 1,23,-1
 331 354 l 2,24,25
 343 366 343 366 343 383.5 c 128,-1,26
 343 401 343 401 331 413 c 128,-1,27
 319 425 319 425 301.5 425 c 128,-1,28
 284 425 284 425 272 413 c 2,29,-1
 118 258 l 1,16,-1
649 8 m 0,30,31
 598 8 598 8 561 45 c 128,-1,32
 524 82 524 82 524 133.5 c 128,-1,33
 524 185 524 185 561 222 c 2,34,-1
 598 258 l 1,35,-1
 561 295 l 2,36,37
 524 332 524 332 524 383.5 c 128,-1,38
 524 435 524 435 561 472 c 0,39,40
 596 507 596 507 649.5 507 c 128,-1,41
 703 507 703 507 738 472 c 2,42,-1
 951 258 l 1,43,-1
 738 45 l 2,44,45
 701 8 701 8 649 8 c 0,30,31
649 425 m 0,46,47
 632 425 632 425 620 413 c 128,-1,48
 608 401 608 401 608 383.5 c 128,-1,49
 608 366 608 366 620 354 c 2,50,-1
 715 258 l 1,51,-1
 620 163 l 2,52,53
 608 151 608 151 608 133.5 c 128,-1,54
 608 116 608 116 620 104 c 128,-1,55
 632 92 632 92 649.5 92 c 128,-1,56
 667 92 667 92 679 104 c 2,57,-1
 833 258 l 1,58,-1
 679 413 l 2,59,60
 667 425 667 425 649 425 c 0,46,47
EndSplineSet
Validated: 1
EndChar

StartChar: glyph78
Encoding: 77 57421 79
Width: 805
GlyphClass: 1
Flags: W
LayerCount: 2
Fore
SplineSet
243 50 m 128,-1,1
 208 50 208 50 184 74 c 2,2,-1
 0 258 l 1,3,-1
 184 442 l 2,4,5
 209 467 209 467 243.5 467 c 128,-1,6
 278 467 278 467 302 442 c 0,7,8
 327 417 327 417 327 383 c 128,-1,9
 327 349 327 349 302 324 c 2,10,-1
 236 258 l 1,11,-1
 302 192 l 2,12,13
 327 167 327 167 327 133 c 128,-1,14
 327 99 327 99 302 74 c 0,15,0
 278 50 278 50 243 50 c 128,-1,1
562 50 m 128,-1,17
 527 50 527 50 503 74 c 0,18,19
 478 99 478 99 478 133 c 128,-1,20
 478 167 478 167 503 192 c 2,21,-1
 569 258 l 1,22,-1
 503 324 l 2,23,24
 478 349 478 349 478 383 c 128,-1,25
 478 417 478 417 503 442 c 0,26,27
 527 467 527 467 561.5 467 c 128,-1,28
 596 467 596 467 621 442 c 2,29,-1
 805 258 l 1,30,-1
 621 74 l 2,31,16
 597 50 597 50 562 50 c 128,-1,17
EndSplineSet
Validated: 1
EndChar

StartChar: glyph79
Encoding: 78 57422 80
Width: 708
GlyphClass: 1
Flags: W
LayerCount: 2
Fore
SplineSet
542 8 m 2,0,-1
 42 8 l 2,1,2
 25 8 25 8 12.5 20.5 c 128,-1,3
 0 33 0 33 0 50 c 128,-1,4
 0 67 0 67 12.5 79.5 c 128,-1,5
 25 92 25 92 42 92 c 2,6,-1
 542 92 l 2,7,8
 559 92 559 92 571 79.5 c 128,-1,9
 583 67 583 67 583 50 c 128,-1,10
 583 33 583 33 571 20.5 c 128,-1,11
 559 8 559 8 542 8 c 2,0,-1
562 592 m 2,12,13
 622 592 622 592 665 549 c 128,-1,14
 708 506 708 506 708 446 c 128,-1,15
 708 386 708 386 665 343 c 128,-1,16
 622 300 622 300 562 300 c 2,17,-1
 542 300 l 1,18,-1
 542 217 l 2,19,20
 542 182 542 182 517 157.5 c 128,-1,21
 492 133 492 133 458 133 c 2,22,-1
 125 133 l 2,23,24
 91 133 91 133 66.5 157.5 c 128,-1,25
 42 182 42 182 42 217 c 2,26,-1
 42 592 l 1,27,-1
 562 592 l 2,12,13
458 217 m 1,28,-1
 458 508 l 1,29,-1
 125 508 l 1,30,-1
 125 217 l 1,31,-1
 458 217 l 1,28,-1
562 383 m 2,32,33
 588 383 588 383 606.5 401.5 c 128,-1,34
 625 420 625 420 625 446 c 0,35,36
 625 471 625 471 606.5 489.5 c 128,-1,37
 588 508 588 508 562 508 c 2,38,-1
 500 508 l 1,39,-1
 500 383 l 1,40,-1
 562 383 l 2,32,33
EndSplineSet
Validated: 1
EndChar

StartChar: glyph80
Encoding: 79 57423 81
Width: 770
GlyphClass: 1
Flags: W
LayerCount: 2
Fore
SplineSet
448 592 m 1,0,-1
 323 592 l 1,1,-1
 287 449 l 1,2,-1
 146 490 l 1,3,-1
 83 381 l 1,4,-1
 189 279 l 1,5,-1
 83 177 l 1,6,-1
 146 69 l 1,7,-1
 287 109 l 1,8,-1
 323 -33 l 1,9,-1
 448 -33 l 1,10,-1
 483 109 l 1,11,-1
 625 69 l 1,12,-1
 687 177 l 1,13,-1
 581 279 l 1,14,-1
 687 381 l 1,15,-1
 625 490 l 1,16,-1
 483 449 l 1,17,-1
 448 592 l 1,0,-1
448 675 m 2,18,19
 476 675 476 675 498.5 657.5 c 128,-1,20
 521 640 521 640 528 612 c 2,21,-1
 543 553 l 1,22,-1
 602 570 l 2,23,24
 614 573 614 573 625 573 c 0,25,26
 673 573 673 573 697 531 c 2,27,-1
 759 423 l 2,28,29
 773 398 773 398 769.5 370 c 128,-1,30
 766 342 766 342 745 322 c 2,31,-1
 701 279 l 1,32,-1
 745 237 l 2,33,34
 765 217 765 217 769 189 c 128,-1,35
 773 161 773 161 759 136 c 2,36,-1
 697 27 l 2,37,38
 673 -14 673 -14 625 -14 c 0,39,40
 614 -14 614 -14 602 -11 c 2,41,-1
 543 5 l 1,42,-1
 529 -54 l 2,43,44
 522 -82 522 -82 499.5 -99.5 c 128,-1,45
 477 -117 477 -117 448 -117 c 2,46,-1
 323 -117 l 2,47,48
 294 -117 294 -117 271.5 -99.5 c 128,-1,49
 249 -82 249 -82 242 -54 c 2,50,-1
 227 5 l 1,51,-1
 169 -12 l 2,52,53
 157 -15 157 -15 146 -15 c 0,54,55
 98 -15 98 -15 74 27 c 2,56,-1
 11 135 l 2,57,58
 -3 160 -3 160 0.5 188.5 c 128,-1,59
 4 217 4 217 25 237 c 2,60,-1
 69 279 l 1,61,-1
 25 321 l 2,62,63
 5 341 5 341 1 369.5 c 128,-1,64
 -3 398 -3 398 11 423 c 2,65,-1
 74 531 l 2,66,67
 98 573 98 573 146 573 c 0,68,69
 157 573 157 573 169 570 c 2,70,-1
 227 553 l 1,71,-1
 242 612 l 2,72,73
 249 640 249 640 271.5 657.5 c 128,-1,74
 294 675 294 675 323 675 c 2,75,-1
 448 675 l 2,18,19
385 362 m 128,-1,77
 350 362 350 362 326 338 c 128,-1,78
 302 314 302 314 302 279 c 128,-1,79
 302 244 302 244 326 220 c 128,-1,80
 350 196 350 196 385 196 c 128,-1,81
 420 196 420 196 444.5 220.5 c 128,-1,82
 469 245 469 245 469 279 c 128,-1,83
 469 313 469 313 444.5 337.5 c 128,-1,76
 420 362 420 362 385 362 c 128,-1,77
385 404 m 128,-1,85
 437 404 437 404 473.5 367.5 c 128,-1,86
 510 331 510 331 510 279 c 128,-1,87
 510 227 510 227 473.5 190.5 c 128,-1,88
 437 154 437 154 385 154 c 128,-1,89
 333 154 333 154 296.5 190.5 c 128,-1,90
 260 227 260 227 260 279 c 128,-1,91
 260 331 260 331 296.5 367.5 c 128,-1,84
 333 404 333 404 385 404 c 128,-1,85
EndSplineSet
Validated: 33
EndChar

StartChar: glyph81
Encoding: 80 57424 82
Width: 575
GlyphClass: 1
Flags: W
LayerCount: 2
Fore
SplineSet
200 69 m 2,0,1
 196 85 196 85 181 94 c 128,-1,2
 166 103 166 103 149 98 c 2,3,-1
 88 80 l 2,4,5
 71 75 71 75 53 82.5 c 128,-1,6
 35 90 35 90 27 105 c 2,7,-1
 6 141 l 2,8,9
 -2 156 -2 156 1 175 c 128,-1,10
 4 194 4 194 16 206 c 2,11,-1
 61 250 l 2,12,13
 73 262 73 262 73 279 c 128,-1,14
 73 296 73 296 61 308 c 2,15,-1
 16 352 l 2,16,17
 3 364 3 364 1 383 c 128,-1,18
 -1 402 -1 402 7 417 c 2,19,-1
 27 454 l 2,20,21
 35 469 35 469 53 476 c 128,-1,22
 71 483 71 483 88 478 c 2,23,-1
 149 461 l 2,24,25
 166 456 166 456 181 465 c 128,-1,26
 196 474 196 474 200 490 c 2,27,-1
 215 551 l 2,28,29
 220 568 220 568 235 580 c 128,-1,30
 250 592 250 592 267 592 c 2,31,-1
 308 592 l 2,32,33
 325 592 325 592 340 580 c 128,-1,34
 355 568 355 568 360 551 c 2,35,-1
 376 490 l 2,36,37
 381 473 381 473 395.5 465 c 128,-1,38
 410 457 410 457 426 461 c 2,39,-1
 487 478 l 2,40,41
 504 483 504 483 522 476 c 128,-1,42
 540 469 540 469 548 454 c 2,43,-1
 569 417 l 2,44,45
 577 402 577 402 574 383 c 128,-1,46
 571 364 571 364 559 352 c 2,47,-1
 514 308 l 2,48,49
 501 296 501 296 501.5 279 c 128,-1,50
 502 262 502 262 514 250 c 2,51,-1
 559 206 l 2,52,53
 571 194 571 194 574 175 c 128,-1,54
 577 156 577 156 569 141 c 2,55,-1
 548 105 l 2,56,57
 540 90 540 90 522 82.5 c 128,-1,58
 504 75 504 75 487 80 c 2,59,-1
 426 98 l 2,60,61
 410 102 410 102 395.5 94 c 128,-1,62
 381 86 381 86 376 69 c 2,63,-1
 360 7 l 2,64,65
 355 -10 355 -10 340 -21.5 c 128,-1,66
 325 -33 325 -33 308 -33 c 2,67,-1
 267 -33 l 2,68,69
 250 -33 250 -33 235 -21.5 c 128,-1,70
 220 -10 220 -10 215 7 c 2,71,-1
 200 69 l 2,0,1
288 362 m 0,72,73
 253 362 253 362 228.5 337.5 c 128,-1,74
 204 313 204 313 204 279 c 128,-1,75
 204 245 204 245 228.5 220.5 c 128,-1,76
 253 196 253 196 288 196 c 0,77,78
 322 196 322 196 346.5 220 c 128,-1,79
 371 244 371 244 371 279 c 128,-1,80
 371 314 371 314 346.5 338 c 128,-1,81
 322 362 322 362 288 362 c 0,72,73
EndSplineSet
Validated: 33
EndChar

StartChar: glyph82
Encoding: 81 57425 83
Width: 750
GlyphClass: 1
Flags: W
LayerCount: 2
Fore
SplineSet
375 592 m 128,-1,1
 254 592 254 592 168.5 506.5 c 128,-1,2
 83 421 83 421 83 300 c 128,-1,3
 83 179 83 179 168.5 93.5 c 128,-1,4
 254 8 254 8 375 8 c 128,-1,5
 496 8 496 8 581.5 93.5 c 128,-1,6
 667 179 667 179 667 300 c 128,-1,7
 667 421 667 421 581.5 506.5 c 128,-1,0
 496 592 496 592 375 592 c 128,-1,1
375 675 m 128,-1,9
 530 675 530 675 640 565 c 128,-1,10
 750 455 750 455 750 300 c 128,-1,11
 750 145 750 145 640 35 c 128,-1,12
 530 -75 530 -75 375 -75 c 128,-1,13
 220 -75 220 -75 110 35 c 128,-1,14
 0 145 0 145 0 300 c 128,-1,15
 0 455 0 455 110 565 c 128,-1,8
 220 675 220 675 375 675 c 128,-1,9
529 480 m 2,16,17
 540 483 540 483 549 474 c 128,-1,18
 558 465 558 465 555 454 c 2,19,-1
 483 206 l 2,20,21
 480 195 480 195 469 192 c 2,22,-1
 221 120 l 1,23,-1
 216 120 l 2,24,25
 206 120 206 120 199 128 c 128,-1,26
 192 136 192 136 195 146 c 2,27,-1
 267 394 l 2,28,29
 270 405 270 405 281 408 c 2,30,-1
 529 480 l 2,16,17
246 171 m 1,31,-1
 447 228 l 1,32,-1
 303 372 l 1,33,-1
 246 171 l 1,31,-1
EndSplineSet
Validated: 1
EndChar

StartChar: glyph83
Encoding: 82 57426 84
Width: 792
GlyphClass: 1
Flags: W
LayerCount: 2
Fore
SplineSet
667 675 m 2,0,1
 719 675 719 675 755.5 638.5 c 128,-1,2
 792 602 792 602 792 550 c 2,3,-1
 792 50 l 2,4,5
 792 -2 792 -2 755.5 -38.5 c 128,-1,6
 719 -75 719 -75 667 -75 c 2,7,-1
 208 -75 l 2,8,9
 156 -75 156 -75 119.5 -38.5 c 128,-1,10
 83 -2 83 -2 83 50 c 2,11,-1
 83 92 l 1,12,-1
 42 92 l 2,13,14
 25 92 25 92 12.5 104 c 128,-1,15
 0 116 0 116 0 133 c 128,-1,16
 0 150 0 150 12.5 162.5 c 128,-1,17
 25 175 25 175 42 175 c 2,18,-1
 83 175 l 1,19,-1
 83 258 l 1,20,-1
 42 258 l 2,21,22
 25 258 25 258 12.5 270.5 c 128,-1,23
 0 283 0 283 0 300 c 128,-1,24
 0 317 0 317 12.5 329.5 c 128,-1,25
 25 342 25 342 42 342 c 2,26,-1
 83 342 l 1,27,-1
 83 425 l 1,28,-1
 42 425 l 2,29,30
 25 425 25 425 12.5 437.5 c 128,-1,31
 0 450 0 450 0 467 c 128,-1,32
 0 484 0 484 12.5 496 c 128,-1,33
 25 508 25 508 42 508 c 2,34,-1
 83 508 l 1,35,-1
 83 550 l 2,36,37
 83 602 83 602 119.5 638.5 c 128,-1,38
 156 675 156 675 208 675 c 2,39,-1
 667 675 l 2,0,1
167 550 m 2,40,-1
 167 508 l 1,41,-1
 208 508 l 1,42,-1
 208 592 l 1,43,44
 191 592 191 592 179 579.5 c 128,-1,45
 167 567 167 567 167 550 c 2,40,-1
167 425 m 1,46,-1
 167 342 l 1,47,-1
 208 342 l 1,48,-1
 208 425 l 1,49,-1
 167 425 l 1,46,-1
167 258 m 1,50,-1
 167 175 l 1,51,-1
 208 175 l 1,52,-1
 208 258 l 1,53,-1
 167 258 l 1,50,-1
167 50 m 2,54,55
 167 33 167 33 179 20.5 c 128,-1,56
 191 8 191 8 208 8 c 1,57,-1
 208 92 l 1,58,-1
 167 92 l 1,59,-1
 167 50 l 2,54,55
708 50 m 2,60,-1
 708 550 l 2,61,62
 708 567 708 567 696 579.5 c 128,-1,63
 684 592 684 592 667 592 c 2,64,-1
 250 592 l 1,65,-1
 250 8 l 1,66,-1
 667 8 l 2,67,68
 684 8 684 8 696 20.5 c 128,-1,69
 708 33 708 33 708 50 c 2,60,-1
375 362 m 0,70,71
 375 446 375 446 458 446 c 0,72,73
 542 446 542 446 542 362 c 0,74,75
 542 279 542 279 458 279 c 0,76,77
 375 279 375 279 375 362 c 0,70,71
458 244 m 0,78,79
 503 244 503 244 532.5 226 c 128,-1,80
 562 208 562 208 562 184 c 0,81,82
 562 172 562 172 532 163 c 128,-1,83
 502 154 502 154 458 154 c 0,84,85
 411 154 411 154 382.5 163 c 128,-1,86
 354 172 354 172 354 184 c 0,87,88
 354 208 354 208 382.5 226 c 128,-1,89
 411 244 411 244 458 244 c 0,78,79
EndSplineSet
Validated: 1
EndChar

StartChar: glyph84
Encoding: 83 57427 85
Width: 708
GlyphClass: 1
Flags: W
LayerCount: 2
Fore
SplineSet
583 508 m 2,0,1
 635 508 635 508 671.5 471.5 c 128,-1,2
 708 435 708 435 708 383 c 2,3,-1
 708 92 l 2,4,5
 708 40 708 40 671.5 3.5 c 128,-1,6
 635 -33 635 -33 583 -33 c 2,7,-1
 125 -33 l 2,8,9
 73 -33 73 -33 36.5 3.5 c 128,-1,10
 0 40 0 40 0 92 c 2,11,-1
 0 383 l 2,12,13
 0 435 0 435 36.5 471.5 c 128,-1,14
 73 508 73 508 125 508 c 2,15,-1
 583 508 l 2,0,1
625 92 m 2,16,-1
 625 258 l 1,17,-1
 83 258 l 1,18,-1
 83 92 l 2,19,20
 83 75 83 75 95.5 62.5 c 128,-1,21
 108 50 108 50 125 50 c 2,22,-1
 583 50 l 2,23,24
 600 50 600 50 612.5 62.5 c 128,-1,25
 625 75 625 75 625 92 c 2,16,-1
625 342 m 1,26,-1
 625 383 l 2,27,28
 625 400 625 400 612.5 412.5 c 128,-1,29
 600 425 600 425 583 425 c 2,30,-1
 125 425 l 2,31,32
 108 425 108 425 95.5 412.5 c 128,-1,33
 83 400 83 400 83 383 c 2,34,-1
 83 342 l 1,35,-1
 625 342 l 1,26,-1
458 133 m 2,36,37
 438 133 438 133 438 154 c 128,-1,38
 438 175 438 175 458 175 c 2,39,-1
 542 175 l 2,40,41
 562 175 562 175 562 154 c 128,-1,42
 562 133 562 133 542 133 c 2,43,-1
 458 133 l 2,36,37
EndSplineSet
Validated: 1
EndChar

StartChar: glyph85
Encoding: 85 57429 86
Width: 750
GlyphClass: 1
Flags: W
LayerCount: 2
Fore
SplineSet
112 658 m 1,0,-1
 750 658 l 1,1,-1
 692 354 l 2,2,3
 691 346 691 346 638 62 c 1,4,-1
 296 -58 l 1,5,-1
 0 62 l 1,6,-1
 29 221 l 1,7,-1
 154 221 l 1,8,-1
 142 154 l 1,9,-1
 321 83 l 1,10,-1
 529 154 l 1,11,-1
 558 304 l 1,12,-1
 46 304 l 1,13,-1
 71 438 l 1,14,-1
 583 438 l 1,15,-1
 600 525 l 1,16,-1
 88 525 l 1,17,-1
 112 658 l 1,0,-1
EndSplineSet
Validated: 1
EndChar

StartChar: glyph86
Encoding: 86 57430 87
Width: 583
GlyphClass: 1
Flags: W
LayerCount: 2
Fore
SplineSet
583 434 m 1,0,-1
 583 430 l 1,1,-1
 583 170 l 2,2,3
 583 49 583 49 498 -36.5 c 128,-1,4
 413 -122 413 -122 292 -122 c 128,-1,5
 171 -122 171 -122 85.5 -36.5 c 128,-1,6
 0 49 0 49 0 170 c 2,7,-1
 0 430 l 1,8,-1
 1 434 l 1,9,10
 6 550 6 550 90.5 630.5 c 128,-1,11
 175 711 175 711 292 711 c 128,-1,12
 409 711 409 711 493.5 630.5 c 128,-1,13
 578 550 578 550 583 434 c 1,0,-1
292 66 m 128,-1,15
 360 66 360 66 416.5 103 c 128,-1,16
 473 140 473 140 500 200 c 1,17,-1
 500 216 l 1,18,19
 414 128 414 128 292 128 c 0,20,21
 169 128 169 128 83 216 c 1,22,-1
 83 200 l 1,23,24
 110 140 110 140 167 103 c 128,-1,14
 224 66 224 66 292 66 c 128,-1,15
292 628 m 128,-1,26
 206 628 206 628 144.5 567 c 128,-1,27
 83 506 83 506 83 420 c 128,-1,28
 83 334 83 334 144.5 272.5 c 128,-1,29
 206 211 206 211 292 211 c 128,-1,30
 378 211 378 211 439 272.5 c 128,-1,31
 500 334 500 334 500 420 c 128,-1,32
 500 506 500 506 439 567 c 128,-1,25
 378 628 378 628 292 628 c 128,-1,26
292 -39 m 128,-1,34
 362 -39 362 -39 417 3.5 c 128,-1,35
 472 46 472 46 491 112 c 1,36,37
 410 24 410 24 292 24 c 128,-1,38
 174 24 174 24 93 112 c 1,39,40
 112 46 112 46 167 3.5 c 128,-1,33
 222 -39 222 -39 292 -39 c 128,-1,34
EndSplineSet
Validated: 1
EndChar

StartChar: glyph87
Encoding: 87 57431 88
Width: 750
GlyphClass: 1
Flags: W
LayerCount: 2
Fore
SplineSet
375 675 m 128,-1,1
 530 675 530 675 640 565 c 128,-1,2
 750 455 750 455 750 300 c 128,-1,3
 750 145 750 145 640 35 c 128,-1,4
 530 -75 530 -75 375 -75 c 128,-1,5
 220 -75 220 -75 110 35 c 128,-1,6
 0 145 0 145 0 300 c 128,-1,7
 0 455 0 455 110 565 c 128,-1,0
 220 675 220 675 375 675 c 128,-1,1
375 8 m 128,-1,9
 496 8 496 8 581.5 93.5 c 128,-1,10
 667 179 667 179 667 300 c 128,-1,11
 667 421 667 421 581.5 506.5 c 128,-1,12
 496 592 496 592 375 592 c 128,-1,13
 254 592 254 592 168.5 506.5 c 128,-1,14
 83 421 83 421 83 300 c 128,-1,15
 83 179 83 179 168.5 93.5 c 128,-1,8
 254 8 254 8 375 8 c 128,-1,9
404 300 m 1,16,-1
 515 190 l 2,17,18
 525 180 525 180 519 167 c 128,-1,19
 513 154 513 154 500 154 c 0,20,21
 491 154 491 154 485 160 c 2,22,-1
 375 271 l 1,23,-1
 265 160 l 2,24,25
 259 154 259 154 250 154 c 0,26,27
 237 154 237 154 231 167 c 128,-1,28
 225 180 225 180 235 190 c 2,29,-1
 346 300 l 1,30,-1
 235 410 l 2,31,32
 221 424 221 424 236 439 c 128,-1,33
 251 454 251 454 265 440 c 2,34,-1
 375 329 l 1,35,-1
 485 440 l 2,36,37
 499 454 499 454 514 439 c 128,-1,38
 529 424 529 424 515 410 c 2,39,-1
 404 300 l 1,16,-1
EndSplineSet
Validated: 1
EndChar

StartChar: glyph88
Encoding: 88 57432 89
Width: 667
GlyphClass: 1
Flags: W
LayerCount: 2
Fore
SplineSet
333 633 m 128,-1,1
 471 633 471 633 569 535.5 c 128,-1,2
 667 438 667 438 667 300 c 128,-1,3
 667 162 667 162 569 64.5 c 128,-1,4
 471 -33 471 -33 333 -33 c 128,-1,5
 195 -33 195 -33 97.5 64.5 c 128,-1,6
 0 162 0 162 0 300 c 128,-1,7
 0 438 0 438 97.5 535.5 c 128,-1,0
 195 633 195 633 333 633 c 128,-1,1
488 204 m 2,8,-1
 392 300 l 1,9,-1
 488 396 l 2,10,11
 500 408 500 408 500 425 c 128,-1,12
 500 442 500 442 488 454 c 128,-1,13
 476 466 476 466 458.5 466 c 128,-1,14
 441 466 441 466 429 454 c 2,15,-1
 333 359 l 1,16,-1
 238 454 l 2,17,18
 226 466 226 466 208.5 466 c 128,-1,19
 191 466 191 466 179 454 c 128,-1,20
 167 442 167 442 167 425 c 128,-1,21
 167 408 167 408 179 396 c 2,22,-1
 274 300 l 1,23,-1
 179 204 l 2,24,25
 167 192 167 192 167 175 c 128,-1,26
 167 158 167 158 179 146 c 0,27,28
 192 133 192 133 208 133 c 0,29,30
 225 133 225 133 238 146 c 2,31,-1
 333 241 l 1,32,-1
 429 146 l 2,33,34
 442 133 442 133 458 133 c 0,35,36
 475 133 475 133 488 146 c 0,37,38
 500 158 500 158 500 175 c 128,-1,39
 500 192 500 192 488 204 c 2,8,-1
EndSplineSet
Validated: 1
EndChar

StartChar: glyph89
Encoding: 89 57433 90
Width: 1000
GlyphClass: 1
Flags: W
LayerCount: 2
Fore
SplineSet
875 758 m 2,0,1
 927 758 927 758 963.5 721.5 c 128,-1,2
 1000 685 1000 685 1000 633 c 2,3,-1
 1000 175 l 2,4,5
 1000 123 1000 123 963.5 86.5 c 128,-1,6
 927 50 927 50 875 50 c 2,7,-1
 625 50 l 1,8,-1
 625 -33 l 1,9,-1
 750 -33 l 2,10,11
 767 -33 767 -33 779.5 -45.5 c 128,-1,12
 792 -58 792 -58 792 -75 c 128,-1,13
 792 -92 792 -92 779.5 -104.5 c 128,-1,14
 767 -117 767 -117 750 -117 c 2,15,-1
 250 -117 l 2,16,17
 233 -117 233 -117 220.5 -104.5 c 128,-1,18
 208 -92 208 -92 208 -75 c 128,-1,19
 208 -58 208 -58 220.5 -45.5 c 128,-1,20
 233 -33 233 -33 250 -33 c 2,21,-1
 375 -33 l 1,22,-1
 375 50 l 1,23,-1
 125 50 l 2,24,25
 73 50 73 50 36.5 86.5 c 128,-1,26
 0 123 0 123 0 175 c 2,27,-1
 0 633 l 2,28,29
 0 685 0 685 36.5 721.5 c 128,-1,30
 73 758 73 758 125 758 c 2,31,-1
 875 758 l 2,0,1
583 -33 m 1,32,-1
 583 50 l 1,33,-1
 417 50 l 1,34,-1
 417 -33 l 1,35,-1
 583 -33 l 1,32,-1
917 175 m 2,36,-1
 917 633 l 2,37,38
 917 650 917 650 904.5 662.5 c 128,-1,39
 892 675 892 675 875 675 c 2,40,-1
 125 675 l 2,41,42
 108 675 108 675 95.5 662.5 c 128,-1,43
 83 650 83 650 83 633 c 2,44,-1
 83 175 l 2,45,46
 83 158 83 158 95.5 145.5 c 128,-1,47
 108 133 108 133 125 133 c 2,48,-1
 875 133 l 2,49,50
 892 133 892 133 904.5 145.5 c 128,-1,51
 917 158 917 158 917 175 c 2,36,-1
833 633 m 2,52,53
 850 633 850 633 862.5 621 c 128,-1,54
 875 609 875 609 875 592 c 2,55,-1
 875 258 l 2,56,57
 875 241 875 241 862.5 229 c 128,-1,58
 850 217 850 217 833 217 c 2,59,-1
 167 217 l 2,60,61
 150 217 150 217 137.5 229 c 128,-1,62
 125 241 125 241 125 258 c 2,63,-1
 125 592 l 2,64,65
 125 609 125 609 137.5 621 c 128,-1,66
 150 633 150 633 167 633 c 2,67,-1
 833 633 l 2,52,53
833 258 m 1,68,-1
 833 592 l 1,69,-1
 167 592 l 1,70,-1
 167 258 l 1,71,-1
 833 258 l 1,68,-1
EndSplineSet
Validated: 1
EndChar

StartChar: glyph90
Encoding: 90 57434 91
Width: 1000
GlyphClass: 1
Flags: W
LayerCount: 2
Fore
SplineSet
916 131 m 1,0,1
 952 123 952 123 976 94.5 c 128,-1,2
 1000 66 1000 66 1000 29 c 0,3,4
 1000 -14 1000 -14 969.5 -44.5 c 128,-1,5
 939 -75 939 -75 896 -75 c 2,6,-1
 104 -75 l 2,7,8
 61 -75 61 -75 30.5 -44.5 c 128,-1,9
 0 -14 0 -14 0 29 c 0,10,11
 0 66 0 66 24 94.5 c 128,-1,12
 48 123 48 123 84 131 c 1,13,14
 84 137 84 137 83.5 152 c 128,-1,15
 83 167 83 167 83 175 c 2,16,-1
 83 550 l 2,17,18
 83 602 83 602 119.5 638.5 c 128,-1,19
 156 675 156 675 208 675 c 2,20,-1
 792 675 l 2,21,22
 844 675 844 675 880.5 638.5 c 128,-1,23
 917 602 917 602 917 550 c 2,24,-1
 917 175 l 2,25,26
 917 167 917 167 916.5 152 c 128,-1,27
 916 137 916 137 916 131 c 1,0,1
167 550 m 2,28,-1
 167 175 l 2,29,30
 167 166 167 166 167.5 152 c 128,-1,31
 168 138 168 138 168 133 c 1,32,-1
 208 133 l 1,33,-1
 208 508 l 2,34,35
 208 525 208 525 220.5 537.5 c 128,-1,36
 233 550 233 550 250 550 c 2,37,-1
 750 550 l 2,38,39
 767 550 767 550 779.5 537.5 c 128,-1,40
 792 525 792 525 792 508 c 2,41,-1
 792 133 l 1,42,-1
 833 133 l 1,43,-1
 833 175 l 1,44,-1
 833 550 l 2,45,46
 833 567 833 567 821 579.5 c 128,-1,47
 809 592 809 592 792 592 c 2,48,-1
 208 592 l 2,49,50
 191 592 191 592 179 579.5 c 128,-1,51
 167 567 167 567 167 550 c 2,28,-1
750 133 m 1,52,-1
 750 508 l 1,53,-1
 250 508 l 1,54,-1
 250 133 l 1,55,-1
 750 133 l 1,52,-1
896 8 m 2,56,57
 904 8 904 8 910.5 14.5 c 128,-1,58
 917 21 917 21 917 29 c 128,-1,59
 917 37 917 37 910.5 43.5 c 128,-1,60
 904 50 904 50 896 50 c 2,61,-1
 104 50 l 2,62,63
 96 50 96 50 89.5 43.5 c 128,-1,64
 83 37 83 37 83 29 c 128,-1,65
 83 21 83 21 89.5 14.5 c 128,-1,66
 96 8 96 8 104 8 c 2,67,-1
 896 8 l 2,56,57
EndSplineSet
Validated: 1
EndChar

StartChar: glyph91
Encoding: 91 57435 92
Width: 542
GlyphClass: 1
Flags: W
LayerCount: 2
Fore
SplineSet
417 675 m 2,0,1
 469 675 469 675 505.5 638.5 c 128,-1,2
 542 602 542 602 542 550 c 2,3,-1
 542 50 l 2,4,5
 542 -2 542 -2 505.5 -38.5 c 128,-1,6
 469 -75 469 -75 417 -75 c 2,7,-1
 125 -75 l 2,8,9
 73 -75 73 -75 36.5 -38.5 c 128,-1,10
 0 -2 0 -2 0 50 c 2,11,-1
 0 550 l 2,12,13
 0 602 0 602 36.5 638.5 c 128,-1,14
 73 675 73 675 125 675 c 2,15,-1
 417 675 l 2,0,1
458 50 m 2,16,-1
 458 550 l 2,17,18
 458 567 458 567 446 579.5 c 128,-1,19
 434 592 434 592 417 592 c 2,20,-1
 125 592 l 2,21,22
 108 592 108 592 95.5 579.5 c 128,-1,23
 83 567 83 567 83 550 c 2,24,-1
 83 50 l 2,25,26
 83 33 83 33 95.5 20.5 c 128,-1,27
 108 8 108 8 125 8 c 2,28,-1
 417 8 l 2,29,30
 434 8 434 8 446 20.5 c 128,-1,31
 458 33 458 33 458 50 c 2,16,-1
375 550 m 2,32,33
 392 550 392 550 404.5 537.5 c 128,-1,34
 417 525 417 525 417 508 c 2,35,-1
 417 133 l 2,36,37
 417 116 417 116 404.5 104 c 128,-1,38
 392 92 392 92 375 92 c 2,39,-1
 312 92 l 1,40,41
 312 75 312 75 300 62.5 c 128,-1,42
 288 50 288 50 271 50 c 128,-1,43
 254 50 254 50 241.5 62.5 c 128,-1,44
 229 75 229 75 229 92 c 1,45,-1
 167 92 l 2,46,47
 150 92 150 92 137.5 104 c 128,-1,48
 125 116 125 116 125 133 c 2,49,-1
 125 508 l 2,50,51
 125 525 125 525 137.5 537.5 c 128,-1,52
 150 550 150 550 167 550 c 2,53,-1
 375 550 l 2,32,33
375 133 m 1,54,-1
 375 508 l 1,55,-1
 167 508 l 1,56,-1
 167 133 l 1,57,-1
 375 133 l 1,54,-1
EndSplineSet
Validated: 1
EndChar

StartChar: glyph92
Encoding: 92 57436 93
Width: 708
GlyphClass: 1
Flags: W
LayerCount: 2
Fore
SplineSet
542 633 m 2,0,1
 559 633 559 633 571 621 c 128,-1,2
 583 609 583 609 583 592 c 2,3,-1
 583 92 l 2,4,5
 583 75 583 75 571 62.5 c 128,-1,6
 559 50 559 50 542 50 c 2,7,-1
 396 50 l 1,8,9
 396 33 396 33 383.5 20.5 c 128,-1,10
 371 8 371 8 354 8 c 128,-1,11
 337 8 337 8 324.5 20.5 c 128,-1,12
 312 33 312 33 312 50 c 1,13,-1
 167 50 l 2,14,15
 150 50 150 50 137.5 62.5 c 128,-1,16
 125 75 125 75 125 92 c 2,17,-1
 125 592 l 2,18,19
 125 609 125 609 137.5 621 c 128,-1,20
 150 633 150 633 167 633 c 2,21,-1
 542 633 l 2,0,1
542 92 m 1,22,-1
 542 592 l 1,23,-1
 167 592 l 1,24,-1
 167 92 l 1,25,-1
 542 92 l 1,22,-1
583 758 m 2,26,27
 635 758 635 758 671.5 721.5 c 128,-1,28
 708 685 708 685 708 633 c 2,29,-1
 708 8 l 2,30,31
 708 -44 708 -44 671.5 -80.5 c 128,-1,32
 635 -117 635 -117 583 -117 c 2,33,-1
 125 -117 l 2,34,35
 73 -117 73 -117 36.5 -80.5 c 128,-1,36
 0 -44 0 -44 0 8 c 2,37,-1
 0 633 l 2,38,39
 0 685 0 685 36.5 721.5 c 128,-1,40
 73 758 73 758 125 758 c 2,41,-1
 583 758 l 2,26,27
625 8 m 2,42,-1
 625 633 l 2,43,44
 625 650 625 650 612.5 662.5 c 128,-1,45
 600 675 600 675 583 675 c 2,46,-1
 125 675 l 2,47,48
 108 675 108 675 95.5 662.5 c 128,-1,49
 83 650 83 650 83 633 c 2,50,-1
 83 8 l 2,51,52
 83 -9 83 -9 95.5 -21 c 128,-1,53
 108 -33 108 -33 125 -33 c 2,54,-1
 583 -33 l 2,55,56
 600 -33 600 -33 612.5 -21 c 128,-1,57
 625 -9 625 -9 625 8 c 2,42,-1
EndSplineSet
Validated: 1
EndChar

StartChar: glyph93
Encoding: 93 57437 94
Width: 746
GlyphClass: 1
Flags: W
LayerCount: 2
Fore
SplineSet
746 404 m 1,0,-1
 632 296 l 1,1,-1
 629 293 l 1,2,3
 667 250 667 250 667 196 c 0,4,5
 667 136 667 136 624 93 c 128,-1,6
 581 50 581 50 521 50 c 2,7,-1
 408 50 l 1,8,-1
 375 -117 l 1,9,-1
 333 -117 l 1,10,-1
 300 50 l 1,11,-1
 208 50 l 2,12,13
 153 50 153 50 114 89 c 2,14,-1
 7 196 l 1,15,-1
 84 273 l 1,16,17
 46 290 46 290 23 325.5 c 128,-1,18
 0 361 0 361 0 404 c 0,19,20
 0 464 0 464 43 507 c 128,-1,21
 86 550 86 550 146 550 c 2,22,-1
 292 550 l 1,23,-1
 292 571 l 2,24,25
 292 596 292 596 310 614.5 c 128,-1,26
 328 633 328 633 354 633 c 128,-1,27
 380 633 380 633 398.5 614.5 c 128,-1,28
 417 596 417 596 417 571 c 2,29,-1
 417 550 l 1,30,-1
 538 550 l 2,31,32
 592 550 592 550 631 513 c 2,33,-1
 746 404 l 1,0,-1
521 133 m 2,34,35
 546 133 546 133 564.5 151.5 c 128,-1,36
 583 170 583 170 583 196 c 128,-1,37
 583 222 583 222 564.5 240 c 128,-1,38
 546 258 546 258 521 258 c 2,39,-1
 208 258 l 2,40,41
 187 258 187 258 173 244 c 2,42,-1
 125 196 l 1,43,-1
 173 148 l 2,44,45
 188 133 188 133 208 133 c 2,46,-1
 521 133 l 2,34,35
574 356 m 2,47,-1
 625 404 l 1,48,-1
 574 452 l 2,49,50
 559 467 559 467 538 467 c 2,51,-1
 146 467 l 2,52,53
 120 467 120 467 101.5 448.5 c 128,-1,54
 83 430 83 430 83 404 c 0,55,56
 83 379 83 379 101.5 360.5 c 128,-1,57
 120 342 120 342 146 342 c 2,58,-1
 538 342 l 2,59,60
 560 342 560 342 574 356 c 2,47,-1
EndSplineSet
Validated: 1
EndChar

StartChar: glyph94
Encoding: 94 57438 95
Width: 750
GlyphClass: 1
Flags: W
LayerCount: 2
Fore
SplineSet
375 446 m 128,-1,1
 323 446 323 446 286.5 482.5 c 128,-1,2
 250 519 250 519 250 571 c 128,-1,3
 250 623 250 623 286.5 659.5 c 128,-1,4
 323 696 323 696 375 696 c 128,-1,5
 427 696 427 696 463.5 659.5 c 128,-1,6
 500 623 500 623 500 571 c 128,-1,7
 500 519 500 519 463.5 482.5 c 128,-1,0
 427 446 427 446 375 446 c 128,-1,1
375 612 m 128,-1,9
 358 612 358 612 345.5 600 c 128,-1,10
 333 588 333 588 333 571 c 128,-1,11
 333 554 333 554 345.5 541.5 c 128,-1,12
 358 529 358 529 375 529 c 128,-1,13
 392 529 392 529 404.5 541.5 c 128,-1,14
 417 554 417 554 417 571 c 128,-1,15
 417 588 417 588 404.5 600 c 128,-1,8
 392 612 392 612 375 612 c 128,-1,9
375 -96 m 128,-1,17
 323 -96 323 -96 286.5 -59.5 c 128,-1,18
 250 -23 250 -23 250 29 c 128,-1,19
 250 81 250 81 286.5 117.5 c 128,-1,20
 323 154 323 154 375 154 c 128,-1,21
 427 154 427 154 463.5 117.5 c 128,-1,22
 500 81 500 81 500 29 c 128,-1,23
 500 -23 500 -23 463.5 -59.5 c 128,-1,16
 427 -96 427 -96 375 -96 c 128,-1,17
375 71 m 128,-1,25
 358 71 358 71 345.5 58.5 c 128,-1,26
 333 46 333 46 333 29 c 128,-1,27
 333 12 333 12 345.5 0 c 128,-1,28
 358 -12 358 -12 375 -12 c 128,-1,29
 392 -12 392 -12 404.5 0 c 128,-1,30
 417 12 417 12 417 29 c 128,-1,31
 417 46 417 46 404.5 58.5 c 128,-1,24
 392 71 392 71 375 71 c 128,-1,25
625 175 m 2,32,-1
 125 175 l 2,33,34
 73 175 73 175 36.5 211.5 c 128,-1,35
 0 248 0 248 0 300 c 128,-1,36
 0 352 0 352 36.5 388.5 c 128,-1,37
 73 425 73 425 125 425 c 2,38,-1
 625 425 l 2,39,40
 677 425 677 425 713.5 388.5 c 128,-1,41
 750 352 750 352 750 300 c 128,-1,42
 750 248 750 248 713.5 211.5 c 128,-1,43
 677 175 677 175 625 175 c 2,32,-1
125 342 m 2,44,45
 108 342 108 342 95.5 329.5 c 128,-1,46
 83 317 83 317 83 300 c 128,-1,47
 83 283 83 283 95.5 270.5 c 128,-1,48
 108 258 108 258 125 258 c 2,49,-1
 625 258 l 2,50,51
 642 258 642 258 654.5 270.5 c 128,-1,52
 667 283 667 283 667 300 c 128,-1,53
 667 317 667 317 654.5 329.5 c 128,-1,54
 642 342 642 342 625 342 c 2,55,-1
 125 342 l 2,44,45
EndSplineSet
Validated: 1
EndChar

StartChar: glyph95
Encoding: 95 57439 96
Width: 667
GlyphClass: 1
Flags: W
LayerCount: 2
Fore
SplineSet
240 550 m 128,-1,1
 240 644 240 644 333 644 c 0,2,3
 427 644 427 644 427 550 c 128,-1,4
 427 456 427 456 333 456 c 0,5,0
 240 456 240 456 240 550 c 128,-1,1
240 50 m 128,-1,7
 240 144 240 144 333 144 c 0,8,9
 427 144 427 144 427 50 c 128,-1,10
 427 -44 427 -44 333 -44 c 0,11,6
 240 -44 240 -44 240 50 c 128,-1,7
0 300 m 128,-1,13
 0 334 0 334 24 358.5 c 128,-1,14
 48 383 48 383 83 383 c 2,15,-1
 583 383 l 2,16,17
 618 383 618 383 642.5 358.5 c 128,-1,18
 667 334 667 334 667 300 c 128,-1,19
 667 266 667 266 642.5 241.5 c 128,-1,20
 618 217 618 217 583 217 c 2,21,-1
 83 217 l 2,22,23
 48 217 48 217 24 241.5 c 128,-1,12
 0 266 0 266 0 300 c 128,-1,13
EndSplineSet
Validated: 1
EndChar

StartChar: glyph96
Encoding: 96 57440 97
Width: 667
GlyphClass: 1
Flags: W
LayerCount: 2
Fore
SplineSet
458 300 m 2,0,1
 475 300 475 300 487.5 287.5 c 128,-1,2
 500 275 500 275 500 258 c 128,-1,3
 500 241 500 241 487.5 229 c 128,-1,4
 475 217 475 217 458 217 c 2,5,-1
 375 217 l 1,6,-1
 375 133 l 2,7,8
 375 116 375 116 362.5 104 c 128,-1,9
 350 92 350 92 333 92 c 128,-1,10
 316 92 316 92 304 104 c 128,-1,11
 292 116 292 116 292 133 c 2,12,-1
 292 217 l 1,13,-1
 208 217 l 2,14,15
 191 217 191 217 179 229 c 128,-1,16
 167 241 167 241 167 258 c 128,-1,17
 167 275 167 275 179 287.5 c 128,-1,18
 191 300 191 300 208 300 c 2,19,-1
 292 300 l 1,20,-1
 292 383 l 2,21,22
 292 400 292 400 304 412.5 c 128,-1,23
 316 425 316 425 333 425 c 128,-1,24
 350 425 350 425 362.5 412.5 c 128,-1,25
 375 400 375 400 375 383 c 2,26,-1
 375 300 l 1,27,-1
 458 300 l 2,0,1
654 496 m 2,28,29
 667 483 667 483 667 467 c 2,30,-1
 667 50 l 2,31,32
 667 -2 667 -2 630.5 -38.5 c 128,-1,33
 594 -75 594 -75 542 -75 c 2,34,-1
 125 -75 l 2,35,36
 73 -75 73 -75 36.5 -38.5 c 128,-1,37
 0 -2 0 -2 0 50 c 2,38,-1
 0 550 l 2,39,40
 0 602 0 602 36.5 638.5 c 128,-1,41
 73 675 73 675 125 675 c 2,42,-1
 458 675 l 2,43,44
 476 675 476 675 488 663 c 2,45,-1
 654 496 l 2,28,29
566 467 m 1,46,-1
 458 574 l 1,47,-1
 458 529 l 2,48,49
 458 504 458 504 476.5 485.5 c 128,-1,50
 495 467 495 467 521 467 c 2,51,-1
 566 467 l 1,46,-1
542 8 m 2,52,53
 559 8 559 8 571 20.5 c 128,-1,54
 583 33 583 33 583 50 c 2,55,-1
 583 425 l 1,56,-1
 521 425 l 2,57,58
 478 425 478 425 447.5 455.5 c 128,-1,59
 417 486 417 486 417 529 c 2,60,-1
 417 592 l 1,61,-1
 125 592 l 2,62,63
 108 592 108 592 95.5 579.5 c 128,-1,64
 83 567 83 567 83 550 c 2,65,-1
 83 50 l 2,66,67
 83 33 83 33 95.5 20.5 c 128,-1,68
 108 8 108 8 125 8 c 2,69,-1
 542 8 l 2,52,53
EndSplineSet
Validated: 1
EndChar

StartChar: glyph97
Encoding: 97 57441 98
Width: 667
GlyphClass: 1
Flags: W
LayerCount: 2
Fore
SplineSet
654 496 m 2,0,1
 667 483 667 483 667 467 c 2,2,-1
 667 50 l 2,3,4
 667 -2 667 -2 630.5 -38.5 c 128,-1,5
 594 -75 594 -75 542 -75 c 2,6,-1
 125 -75 l 2,7,8
 73 -75 73 -75 36.5 -38.5 c 128,-1,9
 0 -2 0 -2 0 50 c 2,10,-1
 0 550 l 2,11,12
 0 602 0 602 36.5 638.5 c 128,-1,13
 73 675 73 675 125 675 c 2,14,-1
 458 675 l 2,15,16
 476 675 476 675 488 663 c 2,17,-1
 654 496 l 2,0,1
566 467 m 1,18,-1
 458 574 l 1,19,-1
 458 529 l 2,20,21
 458 504 458 504 476.5 485.5 c 128,-1,22
 495 467 495 467 521 467 c 2,23,-1
 566 467 l 1,18,-1
542 8 m 2,24,25
 559 8 559 8 571 20.5 c 128,-1,26
 583 33 583 33 583 50 c 2,27,-1
 583 425 l 1,28,-1
 521 425 l 2,29,30
 478 425 478 425 447.5 455.5 c 128,-1,31
 417 486 417 486 417 529 c 2,32,-1
 417 592 l 1,33,-1
 125 592 l 2,34,35
 108 592 108 592 95.5 579.5 c 128,-1,36
 83 567 83 567 83 550 c 2,37,-1
 83 50 l 2,38,39
 83 33 83 33 95.5 20.5 c 128,-1,40
 108 8 108 8 125 8 c 2,41,-1
 542 8 l 2,24,25
458 217 m 2,42,-1
 208 217 l 2,43,44
 191 217 191 217 179 229 c 128,-1,45
 167 241 167 241 167 258 c 128,-1,46
 167 275 167 275 179 287.5 c 128,-1,47
 191 300 191 300 208 300 c 2,48,-1
 458 300 l 2,49,50
 475 300 475 300 487.5 287.5 c 128,-1,51
 500 275 500 275 500 258 c 128,-1,52
 500 241 500 241 487.5 229 c 128,-1,53
 475 217 475 217 458 217 c 2,42,-1
EndSplineSet
Validated: 1
EndChar

StartChar: glyph98
Encoding: 98 57442 99
Width: 667
GlyphClass: 1
Flags: W
LayerCount: 2
Fore
SplineSet
542 -75 m 2,0,-1
 125 -75 l 2,1,2
 73 -75 73 -75 36.5 -38.5 c 128,-1,3
 0 -2 0 -2 0 50 c 2,4,-1
 0 550 l 2,5,6
 0 602 0 602 36.5 638.5 c 128,-1,7
 73 675 73 675 125 675 c 2,8,-1
 542 675 l 2,9,10
 594 675 594 675 630.5 638.5 c 128,-1,11
 667 602 667 602 667 550 c 2,12,-1
 667 50 l 2,13,14
 667 -2 667 -2 630.5 -38.5 c 128,-1,15
 594 -75 594 -75 542 -75 c 2,0,-1
125 592 m 2,16,17
 108 592 108 592 95.5 579.5 c 128,-1,18
 83 567 83 567 83 550 c 2,19,-1
 83 50 l 2,20,21
 83 33 83 33 95.5 20.5 c 128,-1,22
 108 8 108 8 125 8 c 2,23,-1
 542 8 l 2,24,25
 559 8 559 8 571 20.5 c 128,-1,26
 583 33 583 33 583 50 c 2,27,-1
 583 550 l 2,28,29
 583 567 583 567 571 579.5 c 128,-1,30
 559 592 559 592 542 592 c 2,31,-1
 125 592 l 2,16,17
500 342 m 2,32,-1
 167 342 l 2,33,34
 146 342 146 342 146 362 c 0,35,36
 146 371 146 371 152 377 c 128,-1,37
 158 383 158 383 167 383 c 2,38,-1
 500 383 l 2,39,40
 509 383 509 383 515 377 c 128,-1,41
 521 371 521 371 521 362 c 0,42,43
 521 342 521 342 500 342 c 2,32,-1
500 467 m 2,44,-1
 167 467 l 2,45,46
 158 467 158 467 152 473 c 128,-1,47
 146 479 146 479 146 488 c 0,48,49
 146 508 146 508 167 508 c 2,50,-1
 500 508 l 2,51,52
 521 508 521 508 521 488 c 0,53,54
 521 479 521 479 515 473 c 128,-1,55
 509 467 509 467 500 467 c 2,44,-1
500 217 m 2,56,-1
 167 217 l 2,57,58
 158 217 158 217 152 223 c 128,-1,59
 146 229 146 229 146 238 c 0,60,61
 146 258 146 258 167 258 c 2,62,-1
 500 258 l 2,63,64
 521 258 521 258 521 238 c 0,65,66
 521 229 521 229 515 223 c 128,-1,67
 509 217 509 217 500 217 c 2,56,-1
500 92 m 2,68,-1
 167 92 l 2,69,70
 146 92 146 92 146 112 c 0,71,72
 146 121 146 121 152 127 c 128,-1,73
 158 133 158 133 167 133 c 2,74,-1
 500 133 l 2,75,76
 509 133 509 133 515 127 c 128,-1,77
 521 121 521 121 521 112 c 0,78,79
 521 92 521 92 500 92 c 2,68,-1
EndSplineSet
Validated: 1
EndChar

StartChar: glyph99
Encoding: 99 57443 100
Width: 667
GlyphClass: 1
Flags: W
LayerCount: 2
Fore
SplineSet
654 496 m 2,0,1
 667 483 667 483 667 467 c 2,2,-1
 667 50 l 2,3,4
 667 -2 667 -2 630.5 -38.5 c 128,-1,5
 594 -75 594 -75 542 -75 c 2,6,-1
 125 -75 l 2,7,8
 73 -75 73 -75 36.5 -38.5 c 128,-1,9
 0 -2 0 -2 0 50 c 2,10,-1
 0 550 l 2,11,12
 0 602 0 602 36.5 638.5 c 128,-1,13
 73 675 73 675 125 675 c 2,14,-1
 458 675 l 2,15,16
 476 675 476 675 488 663 c 2,17,-1
 654 496 l 2,0,1
566 467 m 1,18,-1
 458 574 l 1,19,-1
 458 529 l 2,20,21
 458 504 458 504 476.5 485.5 c 128,-1,22
 495 467 495 467 521 467 c 2,23,-1
 566 467 l 1,18,-1
542 8 m 2,24,25
 559 8 559 8 571 20.5 c 128,-1,26
 583 33 583 33 583 50 c 2,27,-1
 583 425 l 1,28,-1
 521 425 l 2,29,30
 478 425 478 425 447.5 455.5 c 128,-1,31
 417 486 417 486 417 529 c 2,32,-1
 417 592 l 1,33,-1
 125 592 l 2,34,35
 108 592 108 592 95.5 579.5 c 128,-1,36
 83 567 83 567 83 550 c 2,37,-1
 83 50 l 2,38,39
 83 33 83 33 95.5 20.5 c 128,-1,40
 108 8 108 8 125 8 c 2,41,-1
 542 8 l 2,24,25
EndSplineSet
Validated: 1
EndChar

StartChar: glyph100
Encoding: 100 57444 101
Width: 750
GlyphClass: 1
Flags: W
LayerCount: 2
Fore
SplineSet
749 92 m 2,0,-1
 750 -117 l 2,1,2
 750 -134 750 -134 737.5 -146 c 128,-1,3
 725 -158 725 -158 708 -158 c 2,4,-1
 42 -158 l 2,5,6
 25 -158 25 -158 12.5 -146 c 128,-1,7
 0 -134 0 -134 0 -117 c 0,8,9
 0 92 0 92 1 92 c 1,10,11
 1 101 1 101 2 105 c 2,12,-1
 86 355 l 2,13,14
 96 383 96 383 125 383 c 2,15,-1
 148 383 l 1,16,-1
 120 412 l 2,17,18
 83 449 83 449 83 500 c 128,-1,19
 83 551 83 551 120 588 c 0,20,21
 145 613 145 613 181 621 c 128,-1,22
 217 629 217 629 250 618 c 1,23,-1
 250 675 l 2,24,25
 250 727 250 727 286.5 763.5 c 128,-1,26
 323 800 323 800 375 800 c 128,-1,27
 427 800 427 800 463.5 763.5 c 128,-1,28
 500 727 500 727 500 675 c 2,29,-1
 500 618 l 1,30,31
 533 629 533 629 569 621 c 128,-1,32
 605 613 605 613 630 588 c 0,33,34
 667 551 667 551 667 500 c 128,-1,35
 667 449 667 449 630 412 c 2,36,-1
 602 383 l 1,37,-1
 625 383 l 2,38,39
 654 383 654 383 664 355 c 2,40,-1
 748 105 l 2,41,42
 749 101 749 101 749 92 c 2,0,-1
179 529 m 0,43,44
 167 517 167 517 167 499.5 c 128,-1,45
 167 482 167 482 179 470 c 2,46,-1
 375 275 l 1,47,-1
 571 471 l 2,48,49
 583 483 583 483 583 500 c 128,-1,50
 583 517 583 517 571 529 c 128,-1,51
 559 541 559 541 541.5 541 c 128,-1,52
 524 541 524 541 512 529 c 2,53,-1
 417 434 l 1,54,-1
 417 675 l 2,55,56
 417 692 417 692 404.5 704.5 c 128,-1,57
 392 717 392 717 375 717 c 128,-1,58
 358 717 358 717 345.5 704.5 c 128,-1,59
 333 692 333 692 333 675 c 2,60,-1
 333 434 l 1,61,-1
 238 529 l 2,62,63
 225 542 225 542 208 542 c 0,64,65
 192 542 192 542 179 529 c 0,43,44
155 300 m 1,66,-1
 86 92 l 1,67,-1
 665 92 l 1,68,-1
 595 300 l 1,69,-1
 518 300 l 1,70,-1
 375 158 l 1,71,-1
 232 300 l 1,72,-1
 155 300 l 1,66,-1
667 -75 m 1,73,-1
 667 50 l 1,74,-1
 83 50 l 1,75,-1
 83 -75 l 1,76,-1
 667 -75 l 1,73,-1
EndSplineSet
Validated: 33
EndChar

StartChar: glyph101
Encoding: 101 57445 102
Width: 750
GlyphClass: 1
Flags: W
LayerCount: 2
Fore
SplineSet
571 492 m 0,0,1
 583 480 583 480 583 462.5 c 128,-1,2
 583 445 583 445 571 433 c 2,3,-1
 375 238 l 1,4,-1
 179 433 l 2,5,6
 167 445 167 445 167 462.5 c 128,-1,7
 167 480 167 480 179 492 c 128,-1,8
 191 504 191 504 208 504 c 0,9,10
 226 504 226 504 238 492 c 2,11,-1
 333 396 l 1,12,-1
 333 675 l 2,13,14
 333 692 333 692 345.5 704.5 c 128,-1,15
 358 717 358 717 375 717 c 128,-1,16
 392 717 392 717 404.5 704.5 c 128,-1,17
 417 692 417 692 417 675 c 2,18,-1
 417 396 l 1,19,-1
 512 492 l 2,20,21
 523 503 523 503 542 503 c 0,22,23
 560 503 560 503 571 492 c 0,0,1
749 133 m 2,24,-1
 750 -75 l 2,25,26
 750 -92 750 -92 737.5 -104.5 c 128,-1,27
 725 -117 725 -117 708 -117 c 2,28,-1
 42 -117 l 2,29,30
 25 -117 25 -117 12.5 -104.5 c 128,-1,31
 0 -92 0 -92 0 -75 c 0,32,33
 0 133 0 133 1 133 c 1,34,35
 1 142 1 142 2 146 c 2,36,-1
 86 396 l 2,37,38
 96 425 96 425 125 425 c 2,39,-1
 134 425 l 1,40,41
 141 411 141 411 149 403 c 2,42,-1
 211 342 l 1,43,-1
 155 342 l 1,44,-1
 86 133 l 1,45,-1
 664 133 l 1,46,-1
 595 342 l 1,47,-1
 539 342 l 1,48,-1
 601 403 l 2,49,50
 609 411 609 411 616 425 c 1,51,-1
 625 425 l 2,52,53
 654 425 654 425 664 396 c 2,54,-1
 748 146 l 2,55,56
 749 142 749 142 749 133 c 2,24,-1
EndSplineSet
Validated: 1
EndChar

StartChar: glyph102
Encoding: 102 57446 103
Width: 750
GlyphClass: 1
Flags: W
LayerCount: 2
Fore
SplineSet
0 262 m 1,0,-1
 154 383 l 1,1,-1
 375 246 l 1,2,-1
 221 117 l 1,3,-1
 0 262 l 1,0,-1
221 650 m 1,4,-1
 375 521 l 1,5,-1
 154 383 l 1,6,-1
 0 504 l 1,7,-1
 221 650 l 1,4,-1
750 504 m 1,8,-1
 596 383 l 1,9,-1
 375 521 l 1,10,-1
 529 650 l 1,11,-1
 750 504 l 1,8,-1
375 246 m 1,12,-1
 596 383 l 1,13,-1
 750 262 l 1,14,-1
 529 117 l 1,15,-1
 375 246 l 1,12,-1
375 196 m 1,16,-1
 529 67 l 1,17,-1
 596 112 l 1,18,-1
 596 62 l 1,19,-1
 375 -71 l 1,20,-1
 154 62 l 1,21,-1
 154 112 l 1,22,-1
 221 67 l 1,23,-1
 375 196 l 1,16,-1
EndSplineSet
Validated: 5
EndChar

StartChar: glyph103
Encoding: 103 57447 104
Width: 792
GlyphClass: 1
Flags: W
LayerCount: 2
Fore
SplineSet
773 578 m 2,0,1
 792 559 792 559 792 534 c 128,-1,2
 792 509 792 509 773 490 c 2,3,-1
 625 342 l 1,4,-1
 625 -33 l 2,5,6
 625 -50 625 -50 612.5 -62.5 c 128,-1,7
 600 -75 600 -75 583 -75 c 2,8,-1
 42 -75 l 2,9,10
 25 -75 25 -75 12.5 -62.5 c 128,-1,11
 0 -50 0 -50 0 -33 c 2,12,-1
 0 508 l 2,13,14
 0 525 0 525 12.5 537.5 c 128,-1,15
 25 550 25 550 42 550 c 2,16,-1
 417 550 l 1,17,-1
 565 698 l 2,18,19
 584 717 584 717 609 717 c 128,-1,20
 634 717 634 717 653 698 c 2,21,-1
 773 578 l 2,0,1
354 189 m 1,22,-1
 616 451 l 1,23,-1
 526 541 l 1,24,-1
 264 279 l 1,25,-1
 354 189 l 1,22,-1
247 244 m 1,26,-1
 250 175 l 1,27,-1
 321 172 l 1,28,-1
 247 244 l 1,26,-1
542 8 m 1,29,-1
 542 258 l 1,30,-1
 409 130 l 2,31,32
 393 114 393 114 358.5 103 c 128,-1,33
 324 92 324 92 294 92 c 2,34,-1
 167 92 l 1,35,-1
 167 219 l 2,36,37
 167 252 167 252 176 285 c 128,-1,38
 185 318 185 318 201 334 c 2,39,-1
 333 467 l 1,40,-1
 83 467 l 1,41,-1
 83 8 l 1,42,-1
 542 8 l 1,29,-1
646 480 m 1,43,-1
 700 534 l 1,44,-1
 609 625 l 1,45,-1
 555 571 l 1,46,-1
 646 480 l 1,43,-1
EndSplineSet
Validated: 1
EndChar

StartChar: glyph104
Encoding: 104 57448 105
Width: 706
GlyphClass: 1
Flags: W
LayerCount: 2
Fore
SplineSet
500 444 m 1,0,1
 591 417 591 417 648.5 342.5 c 128,-1,2
 706 268 706 268 706 170 c 0,3,4
 706 50 706 50 619.5 -33.5 c 128,-1,5
 533 -117 533 -117 411 -117 c 0,6,7
 313 -117 313 -117 234.5 -58 c 128,-1,8
 156 1 156 1 128 92 c 1,9,-1
 83 92 l 2,10,11
 48 92 48 92 24 116 c 128,-1,12
 0 140 0 140 0 175 c 2,13,-1
 0 592 l 1,14,-1
 417 592 l 2,15,16
 451 592 451 592 475.5 567.5 c 128,-1,17
 500 543 500 543 500 508 c 2,18,-1
 500 444 l 1,0,1
167 366 m 1,19,-1
 367 166 l 2,20,21
 379 154 379 154 396 154 c 0,22,23
 414 154 414 154 426 166 c 128,-1,24
 438 178 438 178 438 195.5 c 128,-1,25
 438 213 438 213 426 225 c 2,26,-1
 226 425 l 1,27,-1
 361 425 l 2,28,29
 378 425 378 425 390 437.5 c 128,-1,30
 402 450 402 450 402 467 c 128,-1,31
 402 484 402 484 390 496 c 128,-1,32
 378 508 378 508 361 508 c 2,33,-1
 83 508 l 1,34,-1
 83 231 l 2,35,36
 83 214 83 214 95.5 201.5 c 128,-1,37
 108 189 108 189 125 189 c 128,-1,38
 142 189 142 189 154.5 201.5 c 128,-1,39
 167 214 167 214 167 231 c 2,40,-1
 167 366 l 1,19,-1
417 -35 m 128,-1,42
 503 -35 503 -35 564 25.5 c 128,-1,43
 625 86 625 86 625 172 c 128,-1,44
 625 258 625 258 564 318 c 128,-1,45
 503 378 503 378 417 378 c 0,46,47
 387 378 387 378 348 362 c 1,48,-1
 455 255 l 2,49,50
 480 230 480 230 480 195.5 c 128,-1,51
 480 161 480 161 455 137 c 0,52,53
 430 112 430 112 396 112 c 128,-1,54
 362 112 362 112 337 137 c 2,55,-1
 217 257 l 1,56,57
 208 232 208 232 208 174 c 0,58,59
 208 88 208 88 269.5 26.5 c 128,-1,41
 331 -35 331 -35 417 -35 c 128,-1,42
EndSplineSet
Validated: 1
EndChar

StartChar: glyph105
Encoding: 105 57449 106
Width: 646
GlyphClass: 1
Flags: W
LayerCount: 2
Fore
SplineSet
375 71 m 128,-1,1
 452 71 452 71 507 126 c 128,-1,2
 562 181 562 181 562 258 c 128,-1,3
 562 335 562 335 507 390.5 c 128,-1,4
 452 446 452 446 375 446 c 0,5,6
 358 446 358 446 345.5 458.5 c 128,-1,7
 333 471 333 471 333 488 c 128,-1,8
 333 505 333 505 345.5 517 c 128,-1,9
 358 529 358 529 375 529 c 0,10,11
 487 529 487 529 566.5 449.5 c 128,-1,12
 646 370 646 370 646 258 c 128,-1,13
 646 146 646 146 566.5 67 c 128,-1,14
 487 -12 487 -12 375 -12 c 128,-1,15
 263 -12 263 -12 183.5 67 c 128,-1,16
 104 146 104 146 104 258 c 0,17,18
 104 275 104 275 116.5 287.5 c 128,-1,19
 129 300 129 300 146 300 c 128,-1,20
 163 300 163 300 175.5 287.5 c 128,-1,21
 188 275 188 275 188 258 c 0,22,23
 188 181 188 181 243 126 c 128,-1,0
 298 71 298 71 375 71 c 128,-1,1
277 633 m 1,24,25
 294 633 294 633 306.5 621 c 128,-1,26
 319 609 319 609 319 592 c 128,-1,27
 319 575 319 575 306.5 562.5 c 128,-1,28
 294 550 294 550 277 550 c 2,29,-1
 142 550 l 1,30,-1
 384 308 l 2,31,32
 396 296 396 296 396 278.5 c 128,-1,33
 396 261 396 261 384 249 c 128,-1,34
 372 237 372 237 354 237 c 0,35,36
 337 237 337 237 325 249 c 2,37,-1
 83 491 l 1,38,-1
 83 356 l 2,39,40
 83 339 83 339 71 326.5 c 128,-1,41
 59 314 59 314 42 314 c 128,-1,42
 25 314 25 314 12.5 326.5 c 128,-1,43
 0 339 0 339 0 356 c 2,44,-1
 0 633 l 1,45,-1
 277 633 l 1,46,-1
 277 633 l 1,24,25
EndSplineSet
Validated: 5
EndChar

StartChar: glyph106
Encoding: 106 57450 107
Width: 750
GlyphClass: 1
Flags: W
LayerCount: 2
Fore
SplineSet
625 300 m 2,0,-1
 125 300 l 2,1,2
 73 300 73 300 36.5 336.5 c 128,-1,3
 0 373 0 373 0 425 c 128,-1,4
 0 477 0 477 36.5 513.5 c 128,-1,5
 73 550 73 550 125 550 c 2,6,-1
 625 550 l 2,7,8
 677 550 677 550 713.5 513.5 c 128,-1,9
 750 477 750 477 750 425 c 128,-1,10
 750 373 750 373 713.5 336.5 c 128,-1,11
 677 300 677 300 625 300 c 2,0,-1
125 467 m 2,12,13
 108 467 108 467 95.5 454.5 c 128,-1,14
 83 442 83 442 83 425 c 128,-1,15
 83 408 83 408 95.5 395.5 c 128,-1,16
 108 383 108 383 125 383 c 2,17,-1
 625 383 l 2,18,19
 642 383 642 383 654.5 395.5 c 128,-1,20
 667 408 667 408 667 425 c 128,-1,21
 667 442 667 442 654.5 454.5 c 128,-1,22
 642 467 642 467 625 467 c 2,23,-1
 125 467 l 2,12,13
625 8 m 2,24,-1
 125 8 l 2,25,26
 73 8 73 8 36.5 44.5 c 128,-1,27
 0 81 0 81 0 133 c 128,-1,28
 0 185 0 185 36.5 221.5 c 128,-1,29
 73 258 73 258 125 258 c 2,30,-1
 625 258 l 2,31,32
 677 258 677 258 713.5 221.5 c 128,-1,33
 750 185 750 185 750 133 c 128,-1,34
 750 81 750 81 713.5 44.5 c 128,-1,35
 677 8 677 8 625 8 c 2,24,-1
125 175 m 2,36,37
 108 175 108 175 95.5 162.5 c 128,-1,38
 83 150 83 150 83 133 c 128,-1,39
 83 116 83 116 95.5 104 c 128,-1,40
 108 92 108 92 125 92 c 2,41,-1
 625 92 l 2,42,43
 642 92 642 92 654.5 104 c 128,-1,44
 667 116 667 116 667 133 c 128,-1,45
 667 150 667 150 654.5 162.5 c 128,-1,46
 642 175 642 175 625 175 c 2,47,-1
 125 175 l 2,36,37
EndSplineSet
Validated: 1
EndChar

StartChar: glyph107
Encoding: 107 57451 108
Width: 667
GlyphClass: 1
Flags: W
LayerCount: 2
Fore
SplineSet
583 508 m 2,0,1
 618 508 618 508 642.5 483.5 c 128,-1,2
 667 459 667 459 667 425 c 128,-1,3
 667 391 667 391 642.5 366.5 c 128,-1,4
 618 342 618 342 583 342 c 2,5,-1
 83 342 l 2,6,7
 48 342 48 342 24 366 c 128,-1,8
 0 390 0 390 0 425 c 128,-1,9
 0 460 0 460 24 484 c 128,-1,10
 48 508 48 508 83 508 c 2,11,-1
 583 508 l 2,0,1
583 217 m 2,12,13
 618 217 618 217 642.5 192.5 c 128,-1,14
 667 168 667 168 667 133 c 0,15,16
 667 99 667 99 642.5 74.5 c 128,-1,17
 618 50 618 50 583 50 c 2,18,-1
 83 50 l 2,19,20
 48 50 48 50 24 74 c 128,-1,21
 0 98 0 98 0 133 c 128,-1,22
 0 168 0 168 24.5 192.5 c 128,-1,23
 49 217 49 217 83 217 c 2,24,-1
 583 217 l 2,12,13
EndSplineSet
Validated: 1
EndChar

StartChar: glyph108
Encoding: 108 57452 109
Width: 792
GlyphClass: 1
Flags: W
LayerCount: 2
Fore
SplineSet
780 392 m 0,0,1
 792 380 792 380 792 362.5 c 128,-1,2
 792 345 792 345 780 333 c 0,3,4
 727 280 727 280 667 219 c 1,5,-1
 667 -33 l 2,6,7
 667 -50 667 -50 654.5 -62.5 c 128,-1,8
 642 -75 642 -75 625 -75 c 2,9,-1
 42 -75 l 2,10,11
 25 -75 25 -75 12.5 -62.5 c 128,-1,12
 0 -50 0 -50 0 -33 c 2,13,-1
 0 550 l 2,14,15
 0 567 0 567 12.5 579.5 c 128,-1,16
 25 592 25 592 42 592 c 2,17,-1
 375 592 l 1,18,19
 375 626 375 626 401 650.5 c 128,-1,20
 427 675 427 675 464 675 c 128,-1,21
 501 675 501 675 530 648 c 0,22,23
 626 546 626 546 780 392 c 0,0,1
470 136 m 1,24,25
 675 346 675 346 691 362 c 1,26,27
 550 505 550 505 471 590 c 1,28,-1
 464 592 l 1,29,-1
 458 590 l 1,30,-1
 458 425 l 1,31,-1
 417 425 l 2,32,33
 379 425 379 425 348 412 c 128,-1,34
 317 399 317 399 296 379 c 128,-1,35
 275 359 275 359 259 330.5 c 128,-1,36
 243 302 243 302 234 275 c 128,-1,37
 225 248 225 248 219 218 c 1,38,39
 309 299 309 299 417 300 c 2,40,-1
 458 300 l 1,41,-1
 458 135 l 1,42,-1
 464 133 l 1,43,-1
 470 136 l 1,24,25
83 8 m 1,44,-1
 583 8 l 1,45,-1
 583 193 l 1,46,47
 534 144 534 144 501 108 c 0,48,49
 487 92 487 92 464 92 c 0,50,51
 444 92 444 92 430.5 104 c 128,-1,52
 417 116 417 116 417 133 c 2,53,-1
 417 258 l 1,54,55
 274 255 274 255 167 92 c 1,56,-1
 167 112 l 2,57,58
 167 160 167 160 174 207 c 128,-1,59
 181 254 181 254 199.5 302 c 128,-1,60
 218 350 218 350 245 386 c 128,-1,61
 272 422 272 422 316.5 444.5 c 128,-1,62
 361 467 361 467 417 467 c 1,63,-1
 417 508 l 1,64,-1
 83 508 l 1,65,-1
 83 8 l 1,44,-1
EndSplineSet
Validated: 1
EndChar

StartChar: glyph109
Encoding: 109 57453 110
Width: 750
GlyphClass: 1
Flags: W
LayerCount: 2
Fore
SplineSet
167 112 m 2,0,1
 167 160 167 160 174 207 c 128,-1,2
 181 254 181 254 199.5 302 c 128,-1,3
 218 350 218 350 245 386 c 128,-1,4
 272 422 272 422 316.5 444.5 c 128,-1,5
 361 467 361 467 417 467 c 1,6,-1
 417 592 l 2,7,8
 417 609 417 609 430.5 621 c 128,-1,9
 444 633 444 633 464 633 c 0,10,11
 486 633 486 633 501 618 c 2,12,-1
 750 362 l 1,13,14
 582 193 582 193 501 108 c 0,15,16
 487 92 487 92 464 92 c 0,17,18
 444 92 444 92 430.5 104 c 128,-1,19
 417 116 417 116 417 133 c 2,20,-1
 417 258 l 1,21,22
 274 255 274 255 167 92 c 1,23,-1
 167 112 l 2,0,1
42 -75 m 2,24,25
 25 -75 25 -75 12.5 -62.5 c 128,-1,26
 0 -50 0 -50 0 -33 c 2,27,-1
 0 550 l 2,28,29
 0 567 0 567 12.5 579.5 c 128,-1,30
 25 592 25 592 42 592 c 2,31,-1
 375 592 l 1,32,-1
 375 508 l 1,33,-1
 83 508 l 1,34,-1
 83 8 l 1,35,-1
 583 8 l 1,36,-1
 583 133 l 1,37,38
 635 187 635 187 667 219 c 1,39,-1
 667 -33 l 2,40,41
 667 -50 667 -50 654.5 -62.5 c 128,-1,42
 642 -75 642 -75 625 -75 c 2,43,-1
 42 -75 l 2,24,25
EndSplineSet
Validated: 1
EndChar

StartChar: glyph110
Encoding: 110 57454 111
Width: 750
GlyphClass: 1
Flags: W
LayerCount: 2
Fore
SplineSet
375 425 m 128,-1,1
 297 425 297 425 238 383 c 0,2,3
 176 339 176 339 106 258 c 1,4,5
 174 179 174 179 238 134 c 0,6,7
 297 92 297 92 375 92 c 128,-1,8
 453 92 453 92 512 134 c 0,9,10
 576 179 576 179 644 258 c 1,11,12
 574 339 574 339 512 383 c 0,13,0
 453 425 453 425 375 425 c 128,-1,1
375 508 m 0,14,15
 481 508 481 508 560 451 c 0,16,17
 608 417 608 417 655.5 368.5 c 128,-1,18
 703 320 703 320 726 289 c 2,19,-1
 750 258 l 1,20,21
 741 245 741 245 724.5 223.5 c 128,-1,22
 708 202 708 202 658 150.5 c 128,-1,23
 608 99 608 99 560 65 c 0,24,25
 481 8 481 8 375 8 c 0,26,27
 268 8 268 8 189 65 c 0,28,29
 141 99 141 99 93.5 147.5 c 128,-1,30
 46 196 46 196 23 227 c 2,31,-1
 0 258 l 1,32,33
 9 271 9 271 25.5 292.5 c 128,-1,34
 42 314 42 314 91.5 365.5 c 128,-1,35
 141 417 141 417 189 451 c 0,36,37
 268 508 268 508 375 508 c 0,14,15
375 300 m 128,-1,39
 392 300 392 300 404.5 287.5 c 128,-1,40
 417 275 417 275 417 258 c 128,-1,41
 417 241 417 241 404.5 229 c 128,-1,42
 392 217 392 217 375 217 c 128,-1,43
 358 217 358 217 345.5 229 c 128,-1,44
 333 241 333 241 333 258 c 128,-1,45
 333 275 333 275 345.5 287.5 c 128,-1,38
 358 300 358 300 375 300 c 128,-1,39
375 133 m 128,-1,47
 323 133 323 133 286.5 169.5 c 128,-1,48
 250 206 250 206 250 258 c 128,-1,49
 250 310 250 310 286.5 346.5 c 128,-1,50
 323 383 323 383 375 383 c 128,-1,51
 427 383 427 383 463.5 346.5 c 128,-1,52
 500 310 500 310 500 258 c 128,-1,53
 500 206 500 206 463.5 169.5 c 128,-1,46
 427 133 427 133 375 133 c 128,-1,47
375 342 m 128,-1,55
 341 342 341 342 316.5 317.5 c 128,-1,56
 292 293 292 293 292 258 c 0,57,58
 292 224 292 224 316 199.5 c 128,-1,59
 340 175 340 175 375 175 c 128,-1,60
 410 175 410 175 434 199.5 c 128,-1,61
 458 224 458 224 458 258 c 0,62,63
 458 293 458 293 433.5 317.5 c 128,-1,54
 409 342 409 342 375 342 c 128,-1,55
EndSplineSet
Validated: 1
EndChar

StartChar: glyph111
Encoding: 111 57455 112
Width: 833
GlyphClass: 1
Flags: W
LayerCount: 2
Fore
SplineSet
826 282 m 0,0,1
 843 259 843 259 826 235 c 0,2,3
 820 226 820 226 798.5 198 c 128,-1,4
 777 170 777 170 727 118.5 c 128,-1,5
 677 67 677 67 626 31 c 0,6,7
 536 -33 536 -33 417 -33 c 0,8,9
 297 -33 297 -33 207 31 c 0,10,11
 156 67 156 67 106 118.5 c 128,-1,12
 56 170 56 170 34.5 198 c 128,-1,13
 13 226 13 226 7 235 c 0,14,15
 -10 258 -10 258 7 282 c 0,16,17
 12 291 12 291 34 319 c 128,-1,18
 56 347 56 347 106 398 c 128,-1,19
 156 449 156 449 207 485 c 0,20,21
 298 550 298 550 417 550 c 0,22,23
 535 550 535 550 626 485 c 0,24,25
 677 449 677 449 727 398 c 128,-1,26
 777 347 777 347 799 319 c 128,-1,27
 821 291 821 291 826 282 c 0,0,1
417 112 m 0,28,29
 477 112 477 112 519.5 155 c 128,-1,30
 562 198 562 198 562 258 c 0,31,32
 562 319 562 319 519.5 361.5 c 128,-1,33
 477 404 477 404 417 404 c 0,34,35
 356 404 356 404 313.5 361.5 c 128,-1,36
 271 319 271 319 271 258 c 0,37,38
 271 198 271 198 313.5 155 c 128,-1,39
 356 112 356 112 417 112 c 0,28,29
500 258 m 0,40,41
 500 224 500 224 476 199.5 c 128,-1,42
 452 175 452 175 417 175 c 128,-1,43
 382 175 382 175 357.5 199.5 c 128,-1,44
 333 224 333 224 333 258 c 128,-1,45
 333 292 333 292 357.5 317 c 128,-1,46
 382 342 382 342 417 342 c 0,47,48
 451 342 451 342 475.5 317.5 c 128,-1,49
 500 293 500 293 500 258 c 0,40,41
EndSplineSet
Validated: 33
EndChar

StartChar: glyph112
Encoding: 112 57456 113
Width: 708
GlyphClass: 1
Flags: W
LayerCount: 2
Fore
SplineSet
362 758 m 1,0,1
 513 730 513 730 610.5 612.5 c 128,-1,2
 708 495 708 495 708 342 c 0,3,4
 708 198 708 198 621 84.5 c 128,-1,5
 534 -29 534 -29 396 -66 c 1,6,-1
 396 -117 l 2,7,8
 396 -134 396 -134 383.5 -146 c 128,-1,9
 371 -158 371 -158 354 -158 c 128,-1,10
 337 -158 337 -158 324.5 -146 c 128,-1,11
 312 -134 312 -134 312 -117 c 2,12,-1
 312 -66 l 1,13,14
 174 -29 174 -29 87 84.5 c 128,-1,15
 0 198 0 198 0 342 c 0,16,17
 0 495 0 495 98 612.5 c 128,-1,18
 196 730 196 730 347 758 c 1,19,-1
 354 759 l 1,20,-1
 362 758 l 1,0,1
396 21 m 1,21,22
 496 56 496 56 559 141 c 128,-1,23
 622 226 622 226 625 333 c 1,24,-1
 494 202 l 2,25,26
 488 196 488 196 479 196 c 0,27,28
 466 196 466 196 460 208 c 128,-1,29
 454 220 454 220 464 231 c 2,30,-1
 621 388 l 1,31,32
 612 449 612 449 585 501 c 1,33,-1
 494 410 l 2,34,35
 488 404 488 404 479 404 c 0,36,37
 466 404 466 404 460 417 c 128,-1,38
 454 430 454 430 464 440 c 2,39,-1
 562 538 l 1,40,41
 485 647 485 647 354 674 c 1,42,43
 223 647 223 647 146 538 c 1,44,-1
 244 440 l 2,45,46
 254 430 254 430 248 417 c 128,-1,47
 242 404 242 404 229 404 c 0,48,49
 220 404 220 404 214 410 c 2,50,-1
 123 501 l 1,51,52
 96 449 96 449 87 388 c 1,53,-1
 244 231 l 2,54,55
 254 220 254 220 248 208 c 128,-1,56
 242 196 242 196 229 196 c 0,57,58
 220 196 220 196 214 202 c 2,59,-1
 84 333 l 1,60,61
 87 226 87 226 149.5 141 c 128,-1,62
 212 56 212 56 312 21 c 1,63,-1
 312 508 l 2,64,65
 312 525 312 525 324.5 537.5 c 128,-1,66
 337 550 337 550 354 550 c 128,-1,67
 371 550 371 550 383.5 537.5 c 128,-1,68
 396 525 396 525 396 508 c 2,69,-1
 396 21 l 1,21,22
EndSplineSet
Validated: 1
EndChar

StartChar: glyph113
Encoding: 113 57457 114
Width: 667
GlyphClass: 1
Flags: W
LayerCount: 2
Fore
SplineSet
167 467 m 1,0,-1
 500 467 l 1,1,-1
 500 175 l 1,2,-1
 167 175 l 1,3,-1
 167 467 l 1,0,-1
458 217 m 1,4,-1
 458 425 l 1,5,-1
 208 425 l 1,6,-1
 208 217 l 1,7,-1
 458 217 l 1,4,-1
542 717 m 2,8,9
 594 717 594 717 630.5 680.5 c 128,-1,10
 667 644 667 644 667 592 c 2,11,-1
 667 50 l 2,12,13
 667 -2 667 -2 630.5 -38.5 c 128,-1,14
 594 -75 594 -75 542 -75 c 2,15,-1
 417 -75 l 1,16,-1
 417 8 l 1,17,-1
 250 8 l 1,18,-1
 250 -75 l 1,19,-1
 125 -75 l 2,20,21
 73 -75 73 -75 36.5 -38.5 c 128,-1,22
 0 -2 0 -2 0 50 c 2,23,-1
 0 592 l 2,24,25
 0 644 0 644 36.5 680.5 c 128,-1,26
 73 717 73 717 125 717 c 2,27,-1
 250 717 l 1,28,-1
 250 633 l 1,29,-1
 417 633 l 1,30,-1
 417 717 l 1,31,-1
 542 717 l 2,8,9
583 550 m 1,32,-1
 583 592 l 2,33,34
 583 609 583 609 571 621 c 128,-1,35
 559 633 559 633 542 633 c 2,36,-1
 500 633 l 1,37,-1
 500 550 l 1,38,-1
 167 550 l 1,39,-1
 167 633 l 1,40,-1
 125 633 l 2,41,42
 108 633 108 633 95.5 621 c 128,-1,43
 83 609 83 609 83 592 c 2,44,-1
 83 550 l 1,45,46
 100 550 100 550 112.5 537.5 c 128,-1,47
 125 525 125 525 125 508 c 128,-1,48
 125 491 125 491 112.5 479 c 128,-1,49
 100 467 100 467 83 467 c 1,50,-1
 83 425 l 1,51,52
 100 425 100 425 112.5 412.5 c 128,-1,53
 125 400 125 400 125 383 c 128,-1,54
 125 366 125 366 112.5 354 c 128,-1,55
 100 342 100 342 83 342 c 1,56,-1
 83 300 l 1,57,58
 100 300 100 300 112.5 287.5 c 128,-1,59
 125 275 125 275 125 258 c 128,-1,60
 125 241 125 241 112.5 229 c 128,-1,61
 100 217 100 217 83 217 c 1,62,-1
 83 175 l 1,63,64
 100 175 100 175 112.5 162.5 c 128,-1,65
 125 150 125 150 125 133 c 128,-1,66
 125 116 125 116 112.5 104 c 128,-1,67
 100 92 100 92 83 92 c 1,68,-1
 83 50 l 2,69,70
 83 33 83 33 95.5 20.5 c 128,-1,71
 108 8 108 8 125 8 c 2,72,-1
 167 8 l 1,73,-1
 167 92 l 1,74,-1
 500 92 l 1,75,-1
 500 8 l 1,76,-1
 542 8 l 2,77,78
 559 8 559 8 571 20.5 c 128,-1,79
 583 33 583 33 583 50 c 2,80,-1
 583 92 l 1,81,82
 566 92 566 92 554 104 c 128,-1,83
 542 116 542 116 542 133 c 128,-1,84
 542 150 542 150 554 162.5 c 128,-1,85
 566 175 566 175 583 175 c 1,86,-1
 583 217 l 1,87,88
 566 217 566 217 554 229 c 128,-1,89
 542 241 542 241 542 258 c 128,-1,90
 542 275 542 275 554 287.5 c 128,-1,91
 566 300 566 300 583 300 c 1,92,-1
 583 342 l 1,93,94
 566 342 566 342 554 354 c 128,-1,95
 542 366 542 366 542 383 c 128,-1,96
 542 400 542 400 554 412.5 c 128,-1,97
 566 425 566 425 583 425 c 1,98,-1
 583 467 l 1,99,100
 566 467 566 467 554 479 c 128,-1,101
 542 491 542 491 542 508 c 128,-1,102
 542 525 542 525 554 537.5 c 128,-1,103
 566 550 566 550 583 550 c 1,32,-1
EndSplineSet
Validated: 1
EndChar

StartChar: glyph114
Encoding: 114 57458 115
Width: 671
GlyphClass: 1
Flags: W
LayerCount: 2
Fore
SplineSet
627 550 m 2,0,1
 662 550 662 550 669.5 533.5 c 128,-1,2
 677 517 677 517 652 492 c 2,3,-1
 477 317 l 2,4,5
 453 293 453 293 436 257 c 128,-1,6
 419 221 419 221 419 196 c 2,7,-1
 419 50 l 1,8,-1
 252 -33 l 1,9,-1
 252 175 l 2,10,11
 252 210 252 210 235.5 251 c 128,-1,12
 219 292 219 292 194 317 c 2,13,-1
 19 492 l 2,14,15
 -6 517 -6 517 1.5 533.5 c 128,-1,16
 9 550 9 550 44 550 c 2,17,-1
 627 550 l 2,0,1
EndSplineSet
Validated: 33
EndChar

StartChar: glyph115
Encoding: 115 57459 116
Width: 583
GlyphClass: 1
Flags: W
LayerCount: 2
Fore
SplineSet
512 611 m 0,0,1
 532 631 532 631 557.5 619.5 c 128,-1,2
 583 608 583 608 583 582 c 2,3,-1
 583 248 l 2,4,5
 583 231 583 231 571 219 c 0,6,7
 507 155 507 155 416.5 155 c 128,-1,8
 326 155 326 155 262 219 c 0,9,10
 225 256 225 256 174 259 c 128,-1,11
 123 262 123 262 83 230 c 1,12,-1
 83 40 l 2,13,14
 83 23 83 23 71 10.5 c 128,-1,15
 59 -2 59 -2 42 -2 c 128,-1,16
 25 -2 25 -2 12.5 10.5 c 128,-1,17
 0 23 0 23 0 40 c 2,18,-1
 0 582 l 2,19,20
 0 599 0 599 12 611 c 0,21,22
 76 675 76 675 166.5 675 c 128,-1,23
 257 675 257 675 321 611 c 0,24,25
 361 571 361 571 416.5 571 c 128,-1,26
 472 571 472 571 512 611 c 0,0,1
262 552 m 0,27,28
 225 589 225 589 174 592 c 128,-1,29
 123 595 123 595 83 563 c 1,30,-1
 83 468 l 1,31,32
 137 494 137 494 199.5 484 c 128,-1,33
 262 474 262 474 306 430 c 0,34,35
 345 391 345 391 400 385 c 128,-1,36
 455 379 455 379 500 408 c 1,37,-1
 500 505 l 1,38,39
 442 480 442 480 375.5 492.5 c 128,-1,40
 309 505 309 505 262 552 c 0,27,28
321 278 m 0,41,42
 358 241 358 241 409 238 c 128,-1,43
 460 235 460 235 500 267 c 1,44,-1
 500 362 l 1,45,46
 457 342 457 342 417 342 c 0,47,48
 337 342 337 342 277 400 c 0,49,50
 238 439 238 439 183 444.5 c 128,-1,51
 128 450 128 450 83 421 c 1,52,-1
 83 325 l 1,53,54
 125 342 125 342 167 342 c 0,55,56
 257 342 257 342 321 278 c 0,41,42
EndSplineSet
Validated: 33
EndChar

StartChar: glyph116
Encoding: 116 57460 117
Width: 583
GlyphClass: 1
Flags: W
LayerCount: 2
Fore
SplineSet
512 611 m 0,0,1
 532 631 532 631 557.5 619.5 c 128,-1,2
 583 608 583 608 583 582 c 2,3,-1
 583 248 l 2,4,5
 583 231 583 231 571 219 c 0,6,7
 507 155 507 155 416.5 155 c 128,-1,8
 326 155 326 155 262 219 c 0,9,10
 225 256 225 256 174 259 c 128,-1,11
 123 262 123 262 83 230 c 1,12,-1
 83 40 l 2,13,14
 83 23 83 23 71 10.5 c 128,-1,15
 59 -2 59 -2 42 -2 c 128,-1,16
 25 -2 25 -2 12.5 10.5 c 128,-1,17
 0 23 0 23 0 40 c 2,18,-1
 0 582 l 2,19,20
 0 599 0 599 12 611 c 0,21,22
 76 675 76 675 166.5 675 c 128,-1,23
 257 675 257 675 321 611 c 0,24,25
 361 571 361 571 416.5 571 c 128,-1,26
 472 571 472 571 512 611 c 0,0,1
EndSplineSet
Validated: 33
EndChar

StartChar: glyph117
Encoding: 117 57461 118
Width: 583
GlyphClass: 1
Flags: W
LayerCount: 2
Fore
SplineSet
396 633 m 1024,0,-1
396 633 m 1,1,-1
 83 338 l 1,2,-1
 292 217 l 1,3,-1
 188 -33 l 1,4,-1
 500 263 l 1,5,-1
 292 383 l 1,6,-1
 396 633 l 1,1,-1
396 717 m 0,7,8
 430 717 430 717 454.5 692.5 c 128,-1,9
 479 668 479 668 479 633 c 0,10,11
 479 616 479 616 471 598 c 2,12,-1
 397 419 l 1,13,-1
 542 335 l 2,14,15
 577 315 577 315 582.5 273.5 c 128,-1,16
 588 232 588 232 557 202 c 2,17,-1
 245 -94 l 2,18,19
 220 -117 220 -117 187 -117 c 0,20,21
 142 -117 142 -117 118 -79 c 128,-1,22
 94 -41 94 -41 111 -1 c 2,23,-1
 187 181 l 1,24,-1
 42 265 l 2,25,26
 7 285 7 285 1 326 c 128,-1,27
 -5 367 -5 367 26 398 c 2,28,-1
 338 694 l 2,29,30
 363 717 363 717 396 717 c 0,7,8
EndSplineSet
Validated: 33
EndChar

StartChar: glyph118
Encoding: 118 57462 119
Width: 500
GlyphClass: 1
Flags: W
LayerCount: 2
Fore
SplineSet
479 299 m 2,0,1
 497 289 497 289 499.5 268 c 128,-1,2
 502 247 502 247 487 232 c 2,3,-1
 174 -64 l 2,4,5
 163 -75 163 -75 146 -75 c 0,6,7
 124 -75 124 -75 111.5 -56 c 128,-1,8
 99 -37 99 -37 107 -17 c 2,9,-1
 197 199 l 1,10,-1
 21 301 l 2,11,12
 4 311 4 311 1 332 c 128,-1,13
 -2 353 -2 353 13 368 c 2,14,-1
 326 664 l 2,15,16
 339 675 339 675 354 675 c 0,17,18
 371 675 371 675 383.5 662.5 c 128,-1,19
 396 650 396 650 396 633 c 0,20,21
 396 623 396 623 392 615 c 2,22,-1
 303 401 l 1,23,-1
 479 299 l 2,0,1
EndSplineSet
Validated: 33
EndChar

StartChar: glyph119
Encoding: 119 57463 120
Width: 667
GlyphClass: 1
Flags: W
LayerCount: 2
Fore
SplineSet
542 133 m 0,0,1
 594 133 594 133 630.5 96.5 c 128,-1,2
 667 60 667 60 667 8 c 128,-1,3
 667 -44 667 -44 630.5 -80.5 c 128,-1,4
 594 -117 594 -117 542 -117 c 0,5,6
 502 -117 502 -117 469.5 -93.5 c 128,-1,7
 437 -70 437 -70 424 -33 c 1,8,-1
 292 -33 l 2,9,10
 206 -33 206 -33 144.5 28 c 128,-1,11
 83 89 83 89 83 175 c 2,12,-1
 83 474 l 1,13,14
 47 487 47 487 23.5 519.5 c 128,-1,15
 0 552 0 552 0 592 c 0,16,17
 0 644 0 644 36.5 680.5 c 128,-1,18
 73 717 73 717 125 717 c 128,-1,19
 177 717 177 717 213.5 680.5 c 128,-1,20
 250 644 250 644 250 592 c 0,21,22
 250 552 250 552 226.5 519.5 c 128,-1,23
 203 487 203 487 167 474 c 1,24,-1
 167 467 l 2,25,26
 167 415 167 415 203.5 378.5 c 128,-1,27
 240 342 240 342 292 342 c 2,28,-1
 424 342 l 1,29,30
 437 378 437 378 469.5 401.5 c 128,-1,31
 502 425 502 425 542 425 c 0,32,33
 594 425 594 425 630.5 388.5 c 128,-1,34
 667 352 667 352 667 300 c 128,-1,35
 667 248 667 248 630.5 211.5 c 128,-1,36
 594 175 594 175 542 175 c 0,37,38
 502 175 502 175 469.5 198.5 c 128,-1,39
 437 222 437 222 424 258 c 1,40,-1
 292 258 l 2,41,42
 225 258 225 258 167 301 c 1,43,-1
 167 175 l 2,44,45
 167 123 167 123 203.5 86.5 c 128,-1,46
 240 50 240 50 292 50 c 2,47,-1
 424 50 l 1,48,49
 437 86 437 86 469.5 109.5 c 128,-1,50
 502 133 502 133 542 133 c 0,0,1
542 342 m 128,-1,52
 525 342 525 342 512.5 329.5 c 128,-1,53
 500 317 500 317 500 300 c 128,-1,54
 500 283 500 283 512.5 270.5 c 128,-1,55
 525 258 525 258 542 258 c 128,-1,56
 559 258 559 258 571 270.5 c 128,-1,57
 583 283 583 283 583 300 c 128,-1,58
 583 317 583 317 571 329.5 c 128,-1,51
 559 342 559 342 542 342 c 128,-1,52
125 633 m 128,-1,60
 108 633 108 633 95.5 621 c 128,-1,61
 83 609 83 609 83 592 c 128,-1,62
 83 575 83 575 95.5 562.5 c 128,-1,63
 108 550 108 550 125 550 c 128,-1,64
 142 550 142 550 154.5 562.5 c 128,-1,65
 167 575 167 575 167 592 c 128,-1,66
 167 609 167 609 154.5 621 c 128,-1,59
 142 633 142 633 125 633 c 128,-1,60
542 -33 m 128,-1,68
 559 -33 559 -33 571 -21 c 128,-1,69
 583 -9 583 -9 583 8 c 128,-1,70
 583 25 583 25 571 37.5 c 128,-1,71
 559 50 559 50 542 50 c 128,-1,72
 525 50 525 50 512.5 37.5 c 128,-1,73
 500 25 500 25 500 8 c 128,-1,74
 500 -9 500 -9 512.5 -21 c 128,-1,67
 525 -33 525 -33 542 -33 c 128,-1,68
EndSplineSet
Validated: 1
EndChar

StartChar: glyph120
Encoding: 120 57464 121
Width: 667
GlyphClass: 1
Flags: W
LayerCount: 2
Fore
SplineSet
583 126 m 1,0,1
 620 113 620 113 643.5 80.5 c 128,-1,2
 667 48 667 48 667 8 c 0,3,4
 667 -44 667 -44 630.5 -80.5 c 128,-1,5
 594 -117 594 -117 542 -117 c 128,-1,6
 490 -117 490 -117 453.5 -80.5 c 128,-1,7
 417 -44 417 -44 417 8 c 0,8,9
 417 48 417 48 440.5 80.5 c 128,-1,10
 464 113 464 113 500 126 c 1,11,-1
 500 203 l 2,12,13
 500 228 500 228 482 246.5 c 128,-1,14
 464 265 464 265 438 265 c 0,15,16
 375 265 375 265 333 309 c 1,17,18
 291 265 291 265 229 265 c 0,19,20
 204 265 204 265 185.5 246.5 c 128,-1,21
 167 228 167 228 167 203 c 2,22,-1
 167 126 l 1,23,24
 203 113 203 113 226.5 80.5 c 128,-1,25
 250 48 250 48 250 8 c 0,26,27
 250 -44 250 -44 213.5 -80.5 c 128,-1,28
 177 -117 177 -117 125 -117 c 128,-1,29
 73 -117 73 -117 36.5 -80.5 c 128,-1,30
 0 -44 0 -44 0 8 c 0,31,32
 0 48 0 48 23.5 80.5 c 128,-1,33
 47 113 47 113 83 126 c 1,34,-1
 83 203 l 2,35,36
 83 263 83 263 126 306 c 128,-1,37
 169 349 169 349 229 349 c 0,38,39
 255 349 255 349 273.5 367.5 c 128,-1,40
 292 386 292 386 292 411 c 2,41,-1
 292 474 l 1,42,43
 255 487 255 487 231.5 519.5 c 128,-1,44
 208 552 208 552 208 592 c 0,45,46
 208 644 208 644 244.5 680.5 c 128,-1,47
 281 717 281 717 333 717 c 128,-1,48
 385 717 385 717 421.5 680.5 c 128,-1,49
 458 644 458 644 458 592 c 0,50,51
 458 552 458 552 434.5 519.5 c 128,-1,52
 411 487 411 487 375 474 c 1,53,-1
 375 411 l 2,54,55
 375 386 375 386 393.5 367.5 c 128,-1,56
 412 349 412 349 438 349 c 0,57,58
 498 349 498 349 540.5 306 c 128,-1,59
 583 263 583 263 583 203 c 2,60,-1
 583 126 l 1,0,1
125 -33 m 128,-1,62
 142 -33 142 -33 154.5 -21 c 128,-1,63
 167 -9 167 -9 167 8 c 128,-1,64
 167 25 167 25 154.5 37.5 c 128,-1,65
 142 50 142 50 125 50 c 128,-1,66
 108 50 108 50 95.5 37.5 c 128,-1,67
 83 25 83 25 83 8 c 128,-1,68
 83 -9 83 -9 95.5 -21 c 128,-1,61
 108 -33 108 -33 125 -33 c 128,-1,62
333 633 m 128,-1,70
 316 633 316 633 304 621 c 128,-1,71
 292 609 292 609 292 592 c 128,-1,72
 292 575 292 575 304 562.5 c 128,-1,73
 316 550 316 550 333 550 c 128,-1,74
 350 550 350 550 362.5 562.5 c 128,-1,75
 375 575 375 575 375 592 c 128,-1,76
 375 609 375 609 362.5 621 c 128,-1,69
 350 633 350 633 333 633 c 128,-1,70
542 -33 m 128,-1,78
 559 -33 559 -33 571 -21 c 128,-1,79
 583 -9 583 -9 583 8 c 128,-1,80
 583 25 583 25 571 37.5 c 128,-1,81
 559 50 559 50 542 50 c 128,-1,82
 525 50 525 50 512.5 37.5 c 128,-1,83
 500 25 500 25 500 8 c 128,-1,84
 500 -9 500 -9 512.5 -21 c 128,-1,77
 525 -33 525 -33 542 -33 c 128,-1,78
EndSplineSet
Validated: 1
EndChar

StartChar: glyph121
Encoding: 121 57465 122
Width: 667
GlyphClass: 1
Flags: W
LayerCount: 2
Fore
SplineSet
583 126 m 1,0,1
 620 113 620 113 643.5 80.5 c 128,-1,2
 667 48 667 48 667 8 c 0,3,4
 667 -44 667 -44 630.5 -80.5 c 128,-1,5
 594 -117 594 -117 542 -117 c 128,-1,6
 490 -117 490 -117 453.5 -80.5 c 128,-1,7
 417 -44 417 -44 417 8 c 0,8,9
 417 48 417 48 440.5 80.5 c 128,-1,10
 464 113 464 113 500 126 c 1,11,-1
 500 474 l 1,12,13
 464 487 464 487 440.5 519.5 c 128,-1,14
 417 552 417 552 417 592 c 0,15,16
 417 644 417 644 453.5 680.5 c 128,-1,17
 490 717 490 717 542 717 c 128,-1,18
 594 717 594 717 630.5 680.5 c 128,-1,19
 667 644 667 644 667 592 c 0,20,21
 667 552 667 552 643.5 519.5 c 128,-1,22
 620 487 620 487 583 474 c 1,23,-1
 583 126 l 1,0,1
542 633 m 128,-1,25
 525 633 525 633 512.5 621 c 128,-1,26
 500 609 500 609 500 592 c 128,-1,27
 500 575 500 575 512.5 562.5 c 128,-1,28
 525 550 525 550 542 550 c 128,-1,29
 559 550 559 550 571 562.5 c 128,-1,30
 583 575 583 575 583 592 c 128,-1,31
 583 609 583 609 571 621 c 128,-1,24
 559 633 559 633 542 633 c 128,-1,25
542 -33 m 128,-1,33
 559 -33 559 -33 571 -21 c 128,-1,34
 583 -9 583 -9 583 8 c 128,-1,35
 583 25 583 25 571 37.5 c 128,-1,36
 559 50 559 50 542 50 c 128,-1,37
 525 50 525 50 512.5 37.5 c 128,-1,38
 500 25 500 25 500 8 c 128,-1,39
 500 -9 500 -9 512.5 -21 c 128,-1,32
 525 -33 525 -33 542 -33 c 128,-1,33
250 592 m 0,40,41
 250 552 250 552 226.5 519.5 c 128,-1,42
 203 487 203 487 167 474 c 1,43,-1
 167 126 l 1,44,45
 203 113 203 113 226.5 80.5 c 128,-1,46
 250 48 250 48 250 8 c 0,47,48
 250 -44 250 -44 213.5 -80.5 c 128,-1,49
 177 -117 177 -117 125 -117 c 128,-1,50
 73 -117 73 -117 36.5 -80.5 c 128,-1,51
 0 -44 0 -44 0 8 c 0,52,53
 0 48 0 48 23.5 80.5 c 128,-1,54
 47 113 47 113 83 126 c 1,55,-1
 83 474 l 1,56,57
 47 487 47 487 23.5 519.5 c 128,-1,58
 0 552 0 552 0 592 c 0,59,60
 0 644 0 644 36.5 680.5 c 128,-1,61
 73 717 73 717 125 717 c 128,-1,62
 177 717 177 717 213.5 680.5 c 128,-1,63
 250 644 250 644 250 592 c 0,40,41
125 633 m 128,-1,65
 108 633 108 633 95.5 621 c 128,-1,66
 83 609 83 609 83 592 c 128,-1,67
 83 575 83 575 95.5 562.5 c 128,-1,68
 108 550 108 550 125 550 c 128,-1,69
 142 550 142 550 154.5 562.5 c 128,-1,70
 167 575 167 575 167 592 c 128,-1,71
 167 609 167 609 154.5 621 c 128,-1,64
 142 633 142 633 125 633 c 128,-1,65
125 -33 m 128,-1,73
 142 -33 142 -33 154.5 -21 c 128,-1,74
 167 -9 167 -9 167 8 c 128,-1,75
 167 25 167 25 154.5 37.5 c 128,-1,76
 142 50 142 50 125 50 c 128,-1,77
 108 50 108 50 95.5 37.5 c 128,-1,78
 83 25 83 25 83 8 c 128,-1,79
 83 -9 83 -9 95.5 -21 c 128,-1,72
 108 -33 108 -33 125 -33 c 128,-1,73
EndSplineSet
Validated: 1
EndChar

StartChar: glyph122
Encoding: 122 57466 123
Width: 667
GlyphClass: 1
Flags: W
LayerCount: 2
Fore
SplineSet
167 126 m 1,0,1
 203 113 203 113 226.5 80.5 c 128,-1,2
 250 48 250 48 250 8 c 0,3,4
 250 -44 250 -44 213.5 -80.5 c 128,-1,5
 177 -117 177 -117 125 -117 c 128,-1,6
 73 -117 73 -117 36.5 -80.5 c 128,-1,7
 0 -44 0 -44 0 8 c 0,8,9
 0 48 0 48 23.5 80.5 c 128,-1,10
 47 113 47 113 83 126 c 1,11,-1
 83 154 l 2,12,13
 83 232 83 232 144 287 c 1,14,15
 183 255 183 255 220 239 c 1,16,17
 167 208 167 208 167 154 c 2,18,-1
 167 126 l 1,0,1
125 -33 m 128,-1,20
 142 -33 142 -33 154.5 -21 c 128,-1,21
 167 -9 167 -9 167 8 c 128,-1,22
 167 25 167 25 154.5 37.5 c 128,-1,23
 142 50 142 50 125 50 c 128,-1,24
 108 50 108 50 95.5 37.5 c 128,-1,25
 83 25 83 25 83 8 c 128,-1,26
 83 -9 83 -9 95.5 -21 c 128,-1,19
 108 -33 108 -33 125 -33 c 128,-1,20
500 474 m 1,27,28
 464 487 464 487 440.5 519.5 c 128,-1,29
 417 552 417 552 417 592 c 0,30,31
 417 644 417 644 453.5 680.5 c 128,-1,32
 490 717 490 717 542 717 c 128,-1,33
 594 717 594 717 630.5 680.5 c 128,-1,34
 667 644 667 644 667 592 c 0,35,36
 667 552 667 552 643.5 519.5 c 128,-1,37
 620 487 620 487 583 474 c 1,38,-1
 583 460 l 2,39,40
 583 376 583 376 520 316 c 1,41,42
 485 345 485 345 444 361 c 1,43,44
 500 396 500 396 500 460 c 2,45,-1
 500 474 l 1,27,28
542 633 m 128,-1,47
 525 633 525 633 512.5 621 c 128,-1,48
 500 609 500 609 500 592 c 128,-1,49
 500 575 500 575 512.5 562.5 c 128,-1,50
 525 550 525 550 542 550 c 128,-1,51
 559 550 559 550 571 562.5 c 128,-1,52
 583 575 583 575 583 592 c 128,-1,53
 583 609 583 609 571 621 c 128,-1,46
 559 633 559 633 542 633 c 128,-1,47
581 126 m 1,54,55
 619 114 619 114 643 81.5 c 128,-1,56
 667 49 667 49 667 8 c 0,57,58
 667 -44 667 -44 630.5 -80.5 c 128,-1,59
 594 -117 594 -117 542 -117 c 128,-1,60
 490 -117 490 -117 453.5 -80.5 c 128,-1,61
 417 -44 417 -44 417 8 c 0,62,63
 417 47 417 47 439 79 c 128,-1,64
 461 111 461 111 497 125 c 1,65,66
 486 182 486 182 439.5 220 c 128,-1,67
 393 258 393 258 333 258 c 0,68,69
 239 258 239 258 169 320 c 128,-1,70
 99 382 99 382 86 474 c 1,71,72
 48 486 48 486 24 518.5 c 128,-1,73
 0 551 0 551 0 592 c 0,74,75
 0 644 0 644 36.5 680.5 c 128,-1,76
 73 717 73 717 125 717 c 128,-1,77
 177 717 177 717 213.5 680.5 c 128,-1,78
 250 644 250 644 250 592 c 0,79,80
 250 553 250 553 228 521 c 128,-1,81
 206 489 206 489 170 475 c 1,82,83
 181 418 181 418 227 380 c 128,-1,84
 273 342 273 342 333 342 c 0,85,86
 427 342 427 342 497.5 279.5 c 128,-1,87
 568 217 568 217 581 126 c 1,54,55
125 633 m 128,-1,89
 108 633 108 633 95.5 621 c 128,-1,90
 83 609 83 609 83 592 c 128,-1,91
 83 575 83 575 95.5 562.5 c 128,-1,92
 108 550 108 550 125 550 c 128,-1,93
 142 550 142 550 154.5 562.5 c 128,-1,94
 167 575 167 575 167 592 c 128,-1,95
 167 609 167 609 154.5 621 c 128,-1,88
 142 633 142 633 125 633 c 128,-1,89
542 -33 m 128,-1,97
 559 -33 559 -33 571 -21 c 128,-1,98
 583 -9 583 -9 583 8 c 128,-1,99
 583 25 583 25 571 37.5 c 128,-1,100
 559 50 559 50 542 50 c 128,-1,101
 525 50 525 50 512.5 37.5 c 128,-1,102
 500 25 500 25 500 8 c 128,-1,103
 500 -9 500 -9 512.5 -21 c 128,-1,96
 525 -33 525 -33 542 -33 c 128,-1,97
EndSplineSet
Validated: 1
EndChar

StartChar: glyph123
Encoding: 123 57467 124
Width: 750
GlyphClass: 1
Flags: W
LayerCount: 2
Fore
SplineSet
625 550 m 2,0,1
 677 550 677 550 713.5 513.5 c 128,-1,2
 750 477 750 477 750 425 c 2,3,-1
 750 92 l 2,4,5
 750 40 750 40 713.5 3.5 c 128,-1,6
 677 -33 677 -33 625 -33 c 2,7,-1
 125 -33 l 2,8,9
 73 -33 73 -33 36.5 3.5 c 128,-1,10
 0 40 0 40 0 92 c 2,11,-1
 0 508 l 2,12,13
 0 560 0 560 36.5 596.5 c 128,-1,14
 73 633 73 633 125 633 c 2,15,-1
 292 633 l 2,16,17
 326 633 326 633 350.5 608.5 c 128,-1,18
 375 584 375 584 375 550 c 1,19,-1
 625 550 l 2,0,1
625 50 m 2,20,21
 642 50 642 50 654.5 62.5 c 128,-1,22
 667 75 667 75 667 92 c 2,23,-1
 667 383 l 1,24,-1
 500 383 l 2,25,26
 492 383 492 383 485.5 389.5 c 128,-1,27
 479 396 479 396 479 404 c 128,-1,28
 479 412 479 412 485.5 418.5 c 128,-1,29
 492 425 492 425 500 425 c 2,30,-1
 667 425 l 1,31,32
 667 442 667 442 654.5 454.5 c 128,-1,33
 642 467 642 467 625 467 c 2,34,-1
 375 467 l 2,35,36
 340 467 340 467 316 491.5 c 128,-1,37
 292 516 292 516 292 550 c 1,38,-1
 125 550 l 2,39,40
 108 550 108 550 95.5 537.5 c 128,-1,41
 83 525 83 525 83 508 c 2,42,-1
 83 425 l 1,43,-1
 250 425 l 2,44,45
 258 425 258 425 264.5 418.5 c 128,-1,46
 271 412 271 412 271 404 c 128,-1,47
 271 396 271 396 264.5 389.5 c 128,-1,48
 258 383 258 383 250 383 c 2,49,-1
 83 383 l 1,50,-1
 83 92 l 2,51,52
 83 75 83 75 95.5 62.5 c 128,-1,53
 108 50 108 50 125 50 c 2,54,-1
 625 50 l 2,20,21
500 300 m 2,55,56
 517 300 517 300 529.5 287.5 c 128,-1,57
 542 275 542 275 542 258 c 128,-1,58
 542 241 542 241 529.5 229 c 128,-1,59
 517 217 517 217 500 217 c 2,60,-1
 417 217 l 1,61,-1
 417 133 l 2,62,63
 417 116 417 116 404.5 104 c 128,-1,64
 392 92 392 92 375 92 c 128,-1,65
 358 92 358 92 345.5 104 c 128,-1,66
 333 116 333 116 333 133 c 2,67,-1
 333 217 l 1,68,-1
 250 217 l 2,69,70
 233 217 233 217 220.5 229 c 128,-1,71
 208 241 208 241 208 258 c 128,-1,72
 208 275 208 275 220.5 287.5 c 128,-1,73
 233 300 233 300 250 300 c 2,74,-1
 333 300 l 1,75,-1
 333 383 l 2,76,77
 333 400 333 400 345.5 412.5 c 128,-1,78
 358 425 358 425 375 425 c 128,-1,79
 392 425 392 425 404.5 412.5 c 128,-1,80
 417 400 417 400 417 383 c 2,81,-1
 417 300 l 1,82,-1
 500 300 l 2,55,56
EndSplineSet
Validated: 1
EndChar

StartChar: glyph124
Encoding: 124 57468 125
Width: 750
GlyphClass: 1
Flags: W
LayerCount: 2
Fore
SplineSet
625 550 m 2,0,1
 677 550 677 550 713.5 513.5 c 128,-1,2
 750 477 750 477 750 425 c 2,3,-1
 750 92 l 2,4,5
 750 40 750 40 713.5 3.5 c 128,-1,6
 677 -33 677 -33 625 -33 c 2,7,-1
 125 -33 l 2,8,9
 73 -33 73 -33 36.5 3.5 c 128,-1,10
 0 40 0 40 0 92 c 2,11,-1
 0 508 l 2,12,13
 0 560 0 560 36.5 596.5 c 128,-1,14
 73 633 73 633 125 633 c 2,15,-1
 292 633 l 2,16,17
 326 633 326 633 350.5 608.5 c 128,-1,18
 375 584 375 584 375 550 c 1,19,-1
 625 550 l 2,0,1
125 550 m 2,20,21
 108 550 108 550 95.5 537.5 c 128,-1,22
 83 525 83 525 83 508 c 2,23,-1
 83 425 l 1,24,-1
 667 425 l 1,25,26
 667 442 667 442 654.5 454.5 c 128,-1,27
 642 467 642 467 625 467 c 2,28,-1
 375 467 l 2,29,30
 340 467 340 467 316 491.5 c 128,-1,31
 292 516 292 516 292 550 c 1,32,-1
 125 550 l 2,20,21
625 50 m 2,33,34
 642 50 642 50 654.5 62.5 c 128,-1,35
 667 75 667 75 667 92 c 2,36,-1
 667 383 l 1,37,-1
 83 383 l 1,38,-1
 83 92 l 2,39,40
 83 75 83 75 95.5 62.5 c 128,-1,41
 108 50 108 50 125 50 c 2,42,-1
 625 50 l 2,33,34
500 217 m 2,43,-1
 250 217 l 2,44,45
 233 217 233 217 220.5 229 c 128,-1,46
 208 241 208 241 208 258 c 128,-1,47
 208 275 208 275 220.5 287.5 c 128,-1,48
 233 300 233 300 250 300 c 2,49,-1
 500 300 l 2,50,51
 517 300 517 300 529.5 287.5 c 128,-1,52
 542 275 542 275 542 258 c 128,-1,53
 542 241 542 241 529.5 229 c 128,-1,54
 517 217 517 217 500 217 c 2,43,-1
EndSplineSet
Validated: 1
EndChar

StartChar: glyph125
Encoding: 125 57469 126
Width: 876
GlyphClass: 1
Flags: W
LayerCount: 2
Fore
SplineSet
846 467 m 2,0,1
 862 467 862 467 870 455.5 c 128,-1,2
 878 444 878 444 875 425 c 2,3,-1
 783 92 l 2,4,5
 770 39 770 39 724.5 3 c 128,-1,6
 679 -33 679 -33 625 -33 c 2,7,-1
 125 -33 l 2,8,9
 72 -33 72 -33 36 3 c 128,-1,10
 0 39 0 39 0 92 c 2,11,-1
 0 508 l 2,12,13
 0 561 0 561 36 597 c 128,-1,14
 72 633 72 633 125 633 c 2,15,-1
 296 633 l 2,16,17
 330 633 330 633 354.5 608.5 c 128,-1,18
 379 584 379 584 379 550 c 1,19,-1
 629 550 l 2,20,21
 669 550 669 550 701 527.5 c 128,-1,22
 733 505 733 505 746 467 c 1,23,-1
 846 467 l 2,0,1
83 508 m 2,24,-1
 83 121 l 1,25,-1
 150 383 l 2,26,27
 156 402 156 402 170.5 413.5 c 128,-1,28
 185 425 185 425 204 425 c 2,29,-1
 667 425 l 1,30,31
 667 444 667 444 655.5 455.5 c 128,-1,32
 644 467 644 467 625 467 c 2,33,-1
 375 467 l 2,34,35
 340 467 340 467 316 491.5 c 128,-1,36
 292 516 292 516 292 550 c 1,37,-1
 125 550 l 2,38,39
 106 550 106 550 94.5 538.5 c 128,-1,40
 83 527 83 527 83 508 c 2,24,-1
704 112 m 2,41,-1
 779 383 l 1,42,-1
 208 383 l 2,43,44
 205 383 205 383 200.5 380.5 c 128,-1,45
 196 378 196 378 196 375 c 2,46,-1
 117 83 l 2,47,48
 114 71 114 71 115.5 63.5 c 128,-1,49
 117 56 117 56 121 53 c 2,50,-1
 125 50 l 1,51,-1
 625 50 l 2,52,53
 650 50 650 50 674 68.5 c 128,-1,54
 698 87 698 87 704 112 c 2,41,-1
EndSplineSet
Validated: 1
EndChar

StartChar: glyph126
Encoding: 126 57470 127
Width: 750
GlyphClass: 1
Flags: W
LayerCount: 2
Fore
SplineSet
625 550 m 2,0,1
 677 550 677 550 713.5 513.5 c 128,-1,2
 750 477 750 477 750 425 c 2,3,-1
 750 92 l 2,4,5
 750 40 750 40 713.5 3.5 c 128,-1,6
 677 -33 677 -33 625 -33 c 2,7,-1
 125 -33 l 2,8,9
 73 -33 73 -33 36.5 3.5 c 128,-1,10
 0 40 0 40 0 92 c 2,11,-1
 0 508 l 2,12,13
 0 560 0 560 36.5 596.5 c 128,-1,14
 73 633 73 633 125 633 c 2,15,-1
 292 633 l 2,16,17
 326 633 326 633 350.5 608.5 c 128,-1,18
 375 584 375 584 375 550 c 1,19,-1
 625 550 l 2,0,1
125 550 m 2,20,21
 108 550 108 550 95.5 537.5 c 128,-1,22
 83 525 83 525 83 508 c 2,23,-1
 83 425 l 1,24,-1
 667 425 l 1,25,26
 667 442 667 442 654.5 454.5 c 128,-1,27
 642 467 642 467 625 467 c 2,28,-1
 375 467 l 2,29,30
 340 467 340 467 316 491.5 c 128,-1,31
 292 516 292 516 292 550 c 1,32,-1
 125 550 l 2,20,21
625 50 m 2,33,34
 642 50 642 50 654.5 62.5 c 128,-1,35
 667 75 667 75 667 92 c 2,36,-1
 667 383 l 1,37,-1
 83 383 l 1,38,-1
 83 92 l 2,39,40
 83 75 83 75 95.5 62.5 c 128,-1,41
 108 50 108 50 125 50 c 2,42,-1
 625 50 l 2,33,34
EndSplineSet
Validated: 1
EndChar

StartChar: glyph127
Encoding: 127 57471 128
Width: 750
GlyphClass: 1
Flags: W
LayerCount: 2
Fore
SplineSet
708 467 m 2,0,1
 725 467 725 467 737.5 454.5 c 128,-1,2
 750 442 750 442 750 425 c 2,3,-1
 750 258 l 2,4,5
 750 241 750 241 737.5 229 c 128,-1,6
 725 217 725 217 708 217 c 1,7,-1
 708 8 l 2,8,9
 708 -44 708 -44 671.5 -80.5 c 128,-1,10
 635 -117 635 -117 583 -117 c 2,11,-1
 167 -117 l 2,12,13
 115 -117 115 -117 78.5 -80.5 c 128,-1,14
 42 -44 42 -44 42 8 c 2,15,-1
 42 217 l 1,16,17
 25 217 25 217 12.5 229 c 128,-1,18
 0 241 0 241 0 258 c 2,19,-1
 0 425 l 2,20,21
 0 442 0 442 12.5 454.5 c 128,-1,22
 25 467 25 467 42 467 c 2,23,-1
 140 467 l 1,24,25
 125 499 125 499 125 529 c 0,26,27
 125 589 125 589 168 632 c 128,-1,28
 211 675 211 675 271 675 c 0,29,30
 333 675 333 675 375 631 c 1,31,32
 417 675 417 675 479 675 c 0,33,34
 539 675 539 675 582 632 c 128,-1,35
 625 589 625 589 625 529 c 0,36,37
 625 499 625 499 610 467 c 1,38,-1
 708 467 l 2,0,1
667 300 m 1,39,-1
 667 383 l 1,40,-1
 458 383 l 1,41,-1
 458 300 l 1,42,-1
 667 300 l 1,39,-1
333 508 m 1,43,-1
 333 467 l 1,44,-1
 417 467 l 1,45,-1
 417 508 l 1,46,-1
 333 508 l 1,43,-1
417 383 m 1,47,-1
 333 383 l 1,48,-1
 333 300 l 1,49,-1
 417 300 l 1,50,-1
 417 383 l 1,47,-1
479 592 m 0,51,52
 459 592 459 592 442.5 580 c 128,-1,53
 426 568 426 568 420 549 c 1,54,55
 436 547 436 547 447 535.5 c 128,-1,56
 458 524 458 524 458 508 c 2,57,-1
 458 471 l 1,58,59
 470 467 470 467 479 467 c 0,60,61
 505 467 505 467 523.5 485.5 c 128,-1,62
 542 504 542 504 542 529 c 128,-1,63
 542 554 542 554 523 573 c 128,-1,64
 504 592 504 592 479 592 c 0,51,52
208 529 m 128,-1,66
 208 504 208 504 226.5 485.5 c 128,-1,67
 245 467 245 467 271 467 c 0,68,69
 280 467 280 467 292 471 c 1,70,-1
 292 508 l 2,71,72
 292 524 292 524 303 535.5 c 128,-1,73
 314 547 314 547 330 549 c 1,74,75
 324 568 324 568 307.5 580 c 128,-1,76
 291 592 291 592 271 592 c 0,77,78
 246 592 246 592 227 573 c 128,-1,65
 208 554 208 554 208 529 c 128,-1,66
292 383 m 1,79,-1
 83 383 l 1,80,-1
 83 300 l 1,81,-1
 292 300 l 1,82,-1
 292 383 l 1,79,-1
167 -33 m 2,83,-1
 292 -33 l 1,84,-1
 292 258 l 1,85,-1
 125 258 l 1,86,-1
 125 8 l 2,87,88
 125 -9 125 -9 137.5 -21 c 128,-1,89
 150 -33 150 -33 167 -33 c 2,83,-1
333 -33 m 1,90,-1
 417 -33 l 1,91,-1
 417 258 l 1,92,-1
 333 258 l 1,93,-1
 333 -33 l 1,90,-1
583 -33 m 2,94,95
 600 -33 600 -33 612.5 -21 c 128,-1,96
 625 -9 625 -9 625 8 c 2,97,-1
 625 258 l 1,98,-1
 458 258 l 1,99,-1
 458 -33 l 1,100,-1
 583 -33 l 2,94,95
EndSplineSet
Validated: 1
EndChar

StartChar: glyph128
Encoding: 128 57472 129
Width: 652
GlyphClass: 1
Flags: W
LayerCount: 2
Fore
SplineSet
277 550 m 128,-1,1
 208 550 208 550 159.5 501 c 128,-1,2
 111 452 111 452 111 383 c 128,-1,3
 111 314 111 314 159.5 265.5 c 128,-1,4
 208 217 208 217 277 217 c 128,-1,5
 346 217 346 217 395 265.5 c 128,-1,6
 444 314 444 314 444 383 c 128,-1,7
 444 452 444 452 395 501 c 128,-1,0
 346 550 346 550 277 550 c 128,-1,1
277 633 m 128,-1,9
 380 633 380 633 453.5 559.5 c 128,-1,10
 527 486 527 486 527 383 c 128,-1,11
 527 280 527 280 453.5 206.5 c 128,-1,12
 380 133 380 133 277 133 c 128,-1,13
 174 133 174 133 100.5 206.5 c 128,-1,14
 27 280 27 280 27 383 c 128,-1,15
 27 486 27 486 100.5 559.5 c 128,-1,8
 174 633 174 633 277 633 c 128,-1,9
527 -33 m 2,16,17
 544 -33 544 -33 556.5 -45.5 c 128,-1,18
 569 -58 569 -58 569 -75 c 128,-1,19
 569 -92 569 -92 556.5 -104.5 c 128,-1,20
 544 -117 544 -117 527 -117 c 2,21,-1
 111 -117 l 2,22,23
 94 -117 94 -117 81.5 -104.5 c 128,-1,24
 69 -92 69 -92 69 -75 c 128,-1,25
 69 -58 69 -58 81.5 -45.5 c 128,-1,26
 94 -33 94 -33 111 -33 c 2,27,-1
 277 -33 l 1,28,-1
 277 8 l 1,29,30
 122 8 122 8 12 118 c 0,31,32
 0 130 0 130 0 147.5 c 128,-1,33
 0 165 0 165 12 177 c 128,-1,34
 24 189 24 189 41.5 189 c 128,-1,35
 59 189 59 189 71 177 c 0,36,37
 156 92 156 92 277 92 c 0,38,39
 399 92 399 92 484 177 c 128,-1,40
 569 262 569 262 569 383 c 0,41,42
 569 505 569 505 484 590 c 2,43,-1
 454 619 l 1,44,-1
 540 704 l 2,45,46
 552 716 552 716 569.5 716 c 128,-1,47
 587 716 587 716 599 704 c 128,-1,48
 611 692 611 692 610.5 674.5 c 128,-1,49
 610 657 610 657 598 645 c 2,50,-1
 570 617 l 1,51,52
 652 515 652 515 652 383 c 0,53,54
 652 228 652 228 542 118 c 0,55,56
 465 41 465 41 361 18 c 1,57,-1
 361 -33 l 1,58,-1
 527 -33 l 2,16,17
EndSplineSet
Validated: 33
EndChar

StartChar: glyph129
Encoding: 129 57473 130
Width: 652
GlyphClass: 1
Flags: W
LayerCount: 2
Fore
SplineSet
277 -33 m 1,0,-1
 277 8 l 1,1,2
 122 8 122 8 12 118 c 0,3,4
 0 130 0 130 0 147.5 c 128,-1,5
 0 165 0 165 12 177 c 128,-1,6
 24 189 24 189 41.5 189 c 128,-1,7
 59 189 59 189 71 177 c 0,8,9
 156 92 156 92 277 92 c 0,10,11
 399 92 399 92 484 177 c 128,-1,12
 569 262 569 262 569 383 c 0,13,14
 569 505 569 505 484 590 c 2,15,-1
 454 619 l 1,16,-1
 540 704 l 2,17,18
 552 716 552 716 569.5 716 c 128,-1,19
 587 716 587 716 599 704 c 128,-1,20
 611 692 611 692 610.5 675 c 128,-1,21
 610 658 610 658 598 646 c 2,22,-1
 570 617 l 1,23,24
 652 515 652 515 652 383 c 0,25,26
 652 228 652 228 542 118 c 0,27,28
 465 41 465 41 361 18 c 1,29,-1
 361 -33 l 1,30,-1
 527 -33 l 2,31,32
 544 -33 544 -33 556.5 -45.5 c 128,-1,33
 569 -58 569 -58 569 -75 c 128,-1,34
 569 -92 569 -92 556.5 -104.5 c 128,-1,35
 544 -117 544 -117 527 -117 c 2,36,-1
 111 -117 l 2,37,38
 94 -117 94 -117 81.5 -104.5 c 128,-1,39
 69 -92 69 -92 69 -75 c 128,-1,40
 69 -58 69 -58 81.5 -45.5 c 128,-1,41
 94 -33 94 -33 111 -33 c 2,42,-1
 277 -33 l 1,0,-1
27 383 m 128,-1,44
 27 486 27 486 100.5 559.5 c 128,-1,45
 174 633 174 633 277 633 c 128,-1,46
 380 633 380 633 453.5 559.5 c 128,-1,47
 527 486 527 486 527 383 c 128,-1,48
 527 280 527 280 453.5 206.5 c 128,-1,49
 380 133 380 133 277 133 c 128,-1,50
 174 133 174 133 100.5 206.5 c 128,-1,43
 27 280 27 280 27 383 c 128,-1,44
EndSplineSet
Validated: 1
EndChar

